<mxfile host="app.diagrams.net" modified="2023-11-22T14:36:35.399Z" agent="Mozilla/5.0 (Macintosh; Intel Mac OS X 10_15_7) AppleWebKit/605.1.15 (KHTML, like Gecko) Version/16.6 Safari/605.1.15" etag="DBaQP0BZJNay8Eu9uURH" version="22.1.3" type="github">
  <diagram name="Page-1" id="EuLfDXoeXgADx2S9hT4u">
    <mxGraphModel dx="1434" dy="827" grid="1" gridSize="10" guides="1" tooltips="1" connect="1" arrows="1" fold="1" page="1" pageScale="1" pageWidth="3200" pageHeight="5500" math="1" shadow="0">
      <root>
        <mxCell id="0" />
        <mxCell id="1" parent="0" />
        <mxCell id="J574YpdcSMkNGBud1Ear-30" value="" style="rounded=1;whiteSpace=wrap;html=1;fillColor=none;strokeColor=#0000CC;strokeWidth=3;" vertex="1" parent="1">
          <mxGeometry x="721.5" y="410" width="115" height="99" as="geometry" />
        </mxCell>
        <mxCell id="J574YpdcSMkNGBud1Ear-1" style="edgeStyle=orthogonalEdgeStyle;rounded=0;orthogonalLoop=1;jettySize=auto;html=1;exitX=0;exitY=0;exitDx=30;exitDy=85;exitPerimeter=0;strokeWidth=3;strokeColor=#67AB9F;" edge="1" parent="1" source="J574YpdcSMkNGBud1Ear-2" target="J574YpdcSMkNGBud1Ear-14">
          <mxGeometry relative="1" as="geometry">
            <Array as="points">
              <mxPoint x="360" y="483" />
              <mxPoint x="360" y="508" />
            </Array>
          </mxGeometry>
        </mxCell>
        <mxCell id="J574YpdcSMkNGBud1Ear-2" value="" style="shape=cube;whiteSpace=wrap;html=1;boundedLbl=1;backgroundOutline=1;darkOpacity=0.05;darkOpacity2=0.1;fillColor=#67AB9F;strokeColor=#6c8ebf;" vertex="1" parent="1">
          <mxGeometry x="297" y="398" width="30" height="150" as="geometry" />
        </mxCell>
        <mxCell id="J574YpdcSMkNGBud1Ear-3" value="" style="shape=cube;whiteSpace=wrap;html=1;boundedLbl=1;backgroundOutline=1;darkOpacity=0.05;darkOpacity2=0.1;fillColor=#67AB9F;strokeColor=#6c8ebf;" vertex="1" parent="1">
          <mxGeometry x="277" y="403" width="30" height="130" as="geometry" />
        </mxCell>
        <mxCell id="J574YpdcSMkNGBud1Ear-4" value="" style="shape=cube;whiteSpace=wrap;html=1;boundedLbl=1;backgroundOutline=1;darkOpacity=0.05;darkOpacity2=0.1;fillColor=#67AB9F;strokeColor=#6c8ebf;" vertex="1" parent="1">
          <mxGeometry x="257" y="409" width="30" height="100" as="geometry" />
        </mxCell>
        <mxCell id="J574YpdcSMkNGBud1Ear-5" value="" style="shape=cube;whiteSpace=wrap;html=1;boundedLbl=1;backgroundOutline=1;darkOpacity=0.05;darkOpacity2=0.1;fillColor=#67AB9F;strokeColor=#6c8ebf;" vertex="1" parent="1">
          <mxGeometry x="239" y="419" width="28" height="79" as="geometry" />
        </mxCell>
        <mxCell id="J574YpdcSMkNGBud1Ear-6" value="" style="shape=cube;whiteSpace=wrap;html=1;boundedLbl=1;backgroundOutline=1;darkOpacity=0.05;darkOpacity2=0.1;fillColor=#67AB9F;strokeColor=#6c8ebf;" vertex="1" parent="1">
          <mxGeometry x="217" y="428.5" width="28" height="60" as="geometry" />
        </mxCell>
        <mxCell id="J574YpdcSMkNGBud1Ear-7" style="edgeStyle=orthogonalEdgeStyle;rounded=0;orthogonalLoop=1;jettySize=auto;html=1;strokeWidth=3;strokeColor=#67AB9F;" edge="1" parent="1" source="J574YpdcSMkNGBud1Ear-8">
          <mxGeometry relative="1" as="geometry">
            <mxPoint x="210" y="450.75" as="targetPoint" />
            <Array as="points">
              <mxPoint x="160" y="450" />
              <mxPoint x="160" y="450" />
            </Array>
          </mxGeometry>
        </mxCell>
        <mxCell id="J574YpdcSMkNGBud1Ear-8" value="" style="shape=image;verticalLabelPosition=bottom;labelBackgroundColor=default;verticalAlign=top;aspect=fixed;imageAspect=0;image=data:image/png,iVBORw0KGgoAAAANSUhEUgAAAHYAAAB1CAYAAACbMxW/AAABWWlDQ1BJQ0MgUHJvZmlsZQAAKJFjYGDiSCwoyGFhYGDIzSspCnJ3UoiIjFJgf87AzSDKIMbAy2CWmFxc4BgQ4ANUwgCjUcG3awyMIPqyLsgskWb9urrFSxZY/rtz1ezc/LuY6lEAV0pqcTKQ/gPEBskFRSUMDIw6QHZAeUkBiF0DZIsUAR0FZE8AsdMh7CUgdhKEvQOsJiTIGcg+A2QLJGckpgDZd4BsnSQk8XQkdm5OaTLUDSDX86TmhQaDzAFiGQZfhkwGBSCZz5AHZJUA6SIc6k3A6p2BKgoYKhmKgKrTGTKAOhQYHIEiBQw5DKlAtifQnGQGPQYdINuIwQCIjUHhjB5+CLEsYLiZ/WBgYGZEiKWVMjDs6WFg4N+AEFNtAToFGEYHagoSixLhocr4jaU4zdgIwubezsDAOu3//8/hDAzsmgwMf6////97+///f5cBzb8F1PsNABtIZlDj14fSAAAAVmVYSWZNTQAqAAAACAABh2kABAAAAAEAAAAaAAAAAAADkoYABwAAABIAAABEoAIABAAAAAEAAAB2oAMABAAAAAEAAAB1AAAAAEFTQ0lJAAAAU2NyZWVuc2hvdByy64YAAAHWaVRYdFhNTDpjb20uYWRvYmUueG1wAAAAAAA8eDp4bXBtZXRhIHhtbG5zOng9ImFkb2JlOm5zOm1ldGEvIiB4OnhtcHRrPSJYTVAgQ29yZSA2LjAuMCI+CiAgIDxyZGY6UkRGIHhtbG5zOnJkZj0iaHR0cDovL3d3dy53My5vcmcvMTk5OS8wMi8yMi1yZGYtc3ludGF4LW5zIyI+CiAgICAgIDxyZGY6RGVzY3JpcHRpb24gcmRmOmFib3V0PSIiCiAgICAgICAgICAgIHhtbG5zOmV4aWY9Imh0dHA6Ly9ucy5hZG9iZS5jb20vZXhpZi8xLjAvIj4KICAgICAgICAgPGV4aWY6UGl4ZWxZRGltZW5zaW9uPjExNzwvZXhpZjpQaXhlbFlEaW1lbnNpb24+CiAgICAgICAgIDxleGlmOlBpeGVsWERpbWVuc2lvbj4xMTg8L2V4aWY6UGl4ZWxYRGltZW5zaW9uPgogICAgICAgICA8ZXhpZjpVc2VyQ29tbWVudD5TY3JlZW5zaG90PC9leGlmOlVzZXJDb21tZW50PgogICAgICA8L3JkZjpEZXNjcmlwdGlvbj4KICAgPC9yZGY6UkRGPgo8L3g6eG1wbWV0YT4KtorL2gAAQABJREFUeAGt3QWUJUmxBuDqO4O7O/Tg7q7N4u5uDYu72yINLO6wuMuyuLsO7u4+uLtrv/xy+u+Nya27nMd7cU7NvV0ZGR6RkVnVPStHO9rRNv/2t79N//rXv6bNzc0JLBaLaefOndNRj3rU/vnPf/5z+v3vfz/9+9//7uP+WVlZmY50pCNNJzjBCTq+8d/97nfbOMbNN4628T//+c/TP/7xj20avhzxiEecjnCEI/QL/b/+9a8TfuFl/OhHP/r2+B//+MeOE1lD7ChHOcrkIvff//736Q9/+EPna5wsxsiCFtrm4/WjH/1oWya8mj063s9+9rMuL1zyhw5a5D3ykY/c77EdnUKT7Y51rGNt2+0vf/lLlyf6mL9jx45tPn/605+6rPSqAA8tvKLrKAv7k4Pc0Tn2XWlMujcjGOIYI8wxiGO+PaHdDyOEGSqOM7cqgEYuBgdwOS40EkQUYKTIUcfNIzy5yEGJEcwPD+OhA48M5uY7mdGnl0/yZAwemSKjudEpNMjiEhjkQSN40dc99jnGMY7R5RXY7oUPPDL7BGhVCB33wo8cZM6YT7IKWrwkFhuCRQZ9BgggEk5zmtNMt7nNbfrkOuY7gsc//vGn/ffffzrHOc6xLXTFI4gLrWMf+9jTec5znu1gCR6+BDOGJvwYAE5+FmRra2vbQZf5+eTU05/+9NPpTne6HjyVhu8cJajIcelLX3q6/OUvv02bDC5ycgS9yGIe/gE45DjJSU4yXepSl+p47lU8313kkf1XvepVDyNz8H2e6EQnmk5xilOExfanMcCpJzzhCadb3epWPYkyl1x4kPfiF7/4dLvb3a7LHwKLTOTxAKUYgFN/8IMf7KNccBC9znWuM73+9a+fPvaxj/XbESY4PuFx/D3vec8uRBwVHLwod/Ob37w7OPfzyXBwzna2s01Xv/rVt7My4z7hKLP3ve99p/Of//x1aJ/vMu7GN77xdNzjHnd697vf3fWK4/A42clO1gN1v/326w5M9lYigp2ROR++rBsBLU4917nONX3605/ergwj3jGPeczpyle+8j4OCQ6d0BZED33oQ6fjHOc4+wQ82VSea1/72t1Xz372s/vSkfk7r3vd604UecQjHjF97Wtf6/cJ5p515l3vele/JwBiBEwZx5r5y1/+smcDIYynrKEhuhni+te//vTkJz95+ulPf7q9bkUAwl32spedfvvb33YHoSOzKi+Ov8hFLjI99rGP7aUGbTIIJBclb3KTm/To/sAHPtANpUSiA+Dic8ELXnA69alPPT3ucY+brGnoZFxWiPzXve51029+85vpLGc5y3Sxi11s+uY3v9ltQFd81lrVePvb3z595jOf2V473ScHPoBTzVcav/GNb2zrEl74SqSb3vSm05e//OVpz549PWDRMOaT7cj6oAc9aPrCF74wPe95z+t9SmfQ/uGPi170ov3zZS97WS/lbBZZdrSytPGrX/2qT6YQwqLx1re+dVfy5z//+XSZy1xmutKVrtSFpCAFCC+KCMUZvmsajGMAx8/3u9/9puMd73j9/ve///1u0AjnE84Nb3jD7RJnPqPXdVSZvtnNbtbLrMwkp3HOowinPOxhD5t+8YtfTJe4xCV6oJALHufGsXe7292mgw46qMtCR8629hnnCEsCR1zxilfshv/iF7847dq1a/rud7/b55CV8zn73Oc+d79kHXmz1rLF2c9+9m5HpV0p/slPftIbpNiF0+i0vr7eqxhbCvo0seZZUh7/+MdPpzzlKbtcaPzwhz/cXkMlFlne8pa3dNoqLLr8R5YFgjKTEUCcBsF9hO9973vvsw4wlm7vpCc9ab/Oetaz9jXnFre4Rc8WNFwYWT/e8573TGc4wxmm853vfJ1H/Ydj4Mha46JYNAbQEbmM+453vKMHlCWC8sbIybiCR2kEDKVs1+UFH7qoKFe5ylWme9zjHr0qhQ+jKnvWac780Ic+1KuRpSTVAy6+17zmNbvxvvKVr3TH0B8euclAHoHuO2cICLIGyKwaKLGHHHJITyTyg9iNHQQfG7pnTadDQABJSDyvcIUr9CXmAQ94wLafFqLzU5/61HZXpgyks7rABS7QDU0ZpSBdJEV9F923v/3te8R+8pOf7FFXSxI86+873/nO6aMf/WhXNoLlU+aho6T/+Mc/7mv6aARbkm9961t9vTKPk9HGy6WMf/vb3+6ZwdjkZ5AK8GXW9a53ve5Q38nGyGh873vf6xeDynbZfLWrXW36+te/3jMCLXOMMehHPvKRLhNZUhXILetlkwzS2JzpTGfqsmWJQgceJ6WC+W57ljEBKcjo8Otf/7oHzYc//OF9qhi7nfnMZ+59kLUcPjmU/+6Dtv5tMjzjUB5wpFKhPGFICdmbztJEIFpE+BnPeMYeGAJEOUSHwUStBktGKunWLwasQCmZf6c73Wn63Oc+N733ve/tNAgJjMuAy13ucn2NNP/ggw/ep8ziRVaZxCGcK7sFCjrG6UQOTRjlv/rVr/ZAjGPJDEe2KrMc8/GPf3z60pe+1HWjM1ncP+95zzutrq52ugKc/eiXgLQ0yFJVjT2yN6cPHA4XNCqRgFYdyBy7yX5yXPjCF+5ONWYtJncCBM7JT37y3qDRQWUQhJayzqeVrdkDCkqmDGU9i0P7zC0hlQR4iKvtcIPHECJYADAwBVMNQsM84/iZbzzCdwGbIdAXxeihzZiMED7JFHR8N8aoWfcqHXxA9qDwQ4cseISX+WShUyDjcMybk5m8la7vCdTQYRe2I2u1b2QxRlYyRdaRBhwXHHTYLnbZmR/C0CdBACVMEgVh2Ae2/nGPUMHzc8UjCCeggQ8jzIFxhlLqqlPhkkVJMtf4HESOOIRyeFdZfEeDIcjr8nPFMc/lfoKJbBXQNW4+XAHks0J0ILtgIz8bhh+esUvkyfzIk4BSgdAfnQofPWN6Cjx8FwRgoSzEkT5zWcyvda1r9QkQc9/3gHvmn/a0p+2lMEIZDz7FNArKae73L1v/MKAmwdrGMZlXcbT1Jz7xiXuAMHRwfAYoZq2xrxsBnnl42X45nJAxcxA8axa9Ko/gM7Zul9yRJ2M+zeF4Zds6aEdh3XW/XuTR0I2NERrsZumwG6Bb5hkD+Zld2fcOd7hDz/C9o82xBCAoRYPsU6cly0QWAepYJrsnABhUE1EdC8c8yhGcoKLTHMYI4OtQgRzhU+n4fqpTnaobRhBZu+DBRwv4zD70bW9722HOteGYQ1Ydtaal8jAeCJ4tmMalZiM+xvHSWOpLlMuUw9AgG4PDkRwaO5Ut8kZXznZggs6YkezihIzOAn7kwYbuC3jbOM1ldMJnQUgEznnOc247V2oTak/rACFp2zk/glHAd8xtHZyuMMIIxjUrDj7sP1dbw1FpwCecgwOdMYUFwIgDzyGFgw5dLQdVHN8vdKEL9SZGk1fHzAUx1Kte9aouT7rQvaN7/zUvOmnQNETV4MbZga3e9KY3dT5O1cbtDJ1s32zxHMw4zKjNKW4cxiH0tl+OUyIPOehk/6qRxWMEstjWcSp5qk6LHDLoBH0XkZwg/UWd0x5p7gDA/WSbT11ZFn74GYsAouySl7xkN9Bd7nKXLgSBq+E5UskTYC9/+cv70SPHBcij5N3oRjfqBtq9e3c/9lMJKtjQ24YofU5rdOr4A/zwYWhdrioE0HYF4KPLoYwkW2vGoqE6yRKnQUq6bp3sqSA+BapDHbuJrMGhxYES5xrXuEbnwzkHHHBAt3W1H7nYwfHl05/+9H7yFjl9okcffOxGnCHwYYJswRiMouy6gNMYSt7xjnec3v/+9/fTGpmg7MQphKDgrtaWa/+d+FQjoENJdOCYrwIIhBqdvqNLAcYyp46jKaLf8IY39JLmQIXCHBBZ8AK2PCqILYZgyHiCQ+WQgdZZhuD8CngLXvLIumpoeEqnDH3f+97XT32cMH32s5/t2yZ08ZEcjmltPWxXZHelA4fsbEY+spirWar2YwPjnCcQqk3I4meBppLd5z736YHv0CU+Wkh3Slibsk9yCvWCF7ygd3L2WxRgUB1XmCMsGu2vlOFRsDCXHZQzbr/mswKaDjfQ1bC8+c1v3u7s4FHO+s1Z1lrHaBRCN46D5/xWX8ChHP+d73xnW1bj8AWuiGZYfNPQGQcMyDHkVY1ANSg7mcfYssOhy+5WQWoJREMHbO9pj4pXpUFm9wSJfTdHO31CtwLb2tfzCV3sySsdwcJPe1qysJ39/Ste8YrtxFlpTDYpzeCZmEwTvS6g1mNCAIQioNIkK60jGMVxGDOcyHSIIXCcIMnYCozFGbJfgKgg5MnalghnCLh+tl7BzRYCPZEqMJR648pplYXByapfoIuGhrxoJFgdlCiN5nMWWSMHHpwuQ9jHXFWojtPZkmR9RctpEafYpgUPjuBaaw8T2FI1ii54BOiKl3IPRwVg/9Ahg3WaTOgJIsGfqrvSGPVjJE6tjk025JPywQkehwI4LkyrMTHPeOZHsD7Q/qGoy/wYGP18R8N4eMLzMzqu3K+84LhfZTEnsmQOHpE7Y/BCv09o/0QWQWWuOcD9jEUu98M/fHzme+jD8919eoSO+yD0wsu9ys9ckHGf1R591IQw7thb/4ialKsQrXiIuS9KRU7qu+nu20BnE42ObBgBDRe6IhAtBgyETjIXDQ5zVVngo2O+y7yA73UOGi73GaOCADFGFiW/AhoxHl2V1AQUWYxVenDYZdQnsuAfXpWP73Rhf1XIfHOqTsaB+btaD+Mz99xvjt/reT8EIFDM+rveHi0hPBoRLiWUC83CDW5wg27Q0Mgn+sq5J/xK4QiERV+p9dBZKa0KhK91U3eOXu5VWgysEbn73e/eO+MYvOLQi6FsmRhjDpRsfJzjLgNB6uGJZq06Lfjkg6PRslWZkxcuWRyoKKUjCIrVtj1k37n5bKRiGn/kIx/Z7VZpLHgaQrztE1FO0IxoZkSL+7kQYGDRqLnS7tsfWgMCcBmXoxxQMJgmqNKA62eZ4XTJng6vCvjIDA2N5ivPT0PHJxxG0sWLco3GCHDIIAg1gt4MGYHeDGV9tGYxXjUqXhzptIi81uoahKFHbz0DHJ1+pQGHLBzvAQk+1vPoExpkdWKlF+AfesEJ4IGGZPB82DoeGj4XTn04yESAqQZD1L72ta/tBjDGuEpcMsEnY9s36urSGEUJxOHrIJ2+vOY1r+kKmBca+BEaf0J6xCW7RwU4TYYxEjxXyiR5GVvkuy/AND0MU/nAl9GC1VgtmeQAHGvfbUegERm3ZuQyl06cUQN5L4W99lPtND2aJ01WbAIHDbLI9uhkXALQJcDmeBlzyCOY6rj7qy2jyfvWt761y24Ondmjv8ymTKYcuIkpoWQQ5ygnjr6UZj8DDrnrXe/aN8eMVJ1RhTPPoYCH9d5ryvzgMIIsUoopzMloB9AVuZ6dEvrBD35wDzrzKOoi+3pbMhwMOIGxfbKf5SiABsPZKj3kIQ/pRqLLCNFhPCUKnnHyO5VzMPCEJzyhB1PG86mCqYR40GcEcinlAkhySCIZHv7wOQ4vLx+wvz13HfddgDncude97tUPdmzR2I4/dso0BBACbkptx3eMwahKk7JjM+74MEBoZVbUeI3D3i2ZgB4mst9htneR/MwR4YVOFn2RrZzgk5bdOBmyHfK6DqN76C9j0OFsWU4WGfaoRz2qf3foUjMWLcFgvydTqpGMAcsA/s6TBaO9sW1Tyq05gg/e/u3tTFUi+u6lsLdptL2zx+VA+13PaysNNlDyyazi2d6RPTho+RmeQw5LBzmqzHDZQpZKRO+EOVOAy347WkZtvPGNb+wTU3rsr+xLHQiIJC9/eRvR6Q/j63QBI4kmzlFG7VUjXIygCUm0KdkeCHNI8CgvsvFyymUc/ep86xAjyOqnPvWpfa8bGcjBuBwJBy8Z7K09TjJGFpVIACSLGNt6XQFPAeMBgEz4xCc+0UtyxUFHoFuaGF6w10CEq9FjbIHkgf4YHAJccKkgkorekknAVL09rLAntix88IMf3D5DwINOfIE3WYw737Y8sO1Ky6hNPzjpSPQR2ESZIt0///nP9408pq4YiwE5ztplkbcG1uYn2YYGI3Namp84Fo61UWZTLgcgVRaKCB5GNd8YOcjoSgZwBucxJnkoHTxzBQbH53BCplRAi6E5zpVTtciKj4zFw7rn8EFDODrWOD4ySpMmWKIPHrKMbdFgFw7kA7JWXmwjWB2i8A8+GVeNXNZhl0Bnm+CsNCabkDHOpKrs4X1HmKIyPYLP4cNjlPCZwzHO+FFupMcgxkV7nF/p4AHHJxBgIw33ZZGxOZnNz0Uv8jLYaBeykgOvOVmqHPQBc7KYz8lwyINP8PukrX/wQhONkU7s5jM0TFtIYx438L8FczQKonwZEMi4yFvGA46x1dblKc1zyqGPjmaCoiOYYy55OGUO8JFNSqXvI6DB2CqIpga9ZQDP8jPHiy7m4jUna2iSQaDlgUDuj594pLkcx8hBH5Wz8lp40do6Wo0JGZJ1Lx0zYd2PQXy3rulSteJ+ro6D52fO0PTojpcFAEN6jGXfV3lQInwZgDxKHNlGPPJbtx74wAf2Zm00ADrmOUgZg8d9ZU/59UmOZHa1S/jKMoGa949HXvTxRgid0ak0Ki5eGk9BJBMrHvtxKJ4aVA3ZWDngWA41cspwXQYXulGL80jU3tH2RP1X3+PQCKYsrq2t9XURUU6rjoVHKHQcdtiGKBUjcBBDr7Zs9WbhuF7BZ0jrp07dW4x4j47Fa7/22wvma7YqxEh6AWu1pqPqG1z36WHt82SlNmhwGB9vGeIxo5e15+S17eAEb+jPjaNFJoEqOdhmTh72hIOW9X4fx7Ux4wKM/a3nlcbC5pbjApBFnL0lZApyjj2iTo9hADytuKhygmLfOJZbRkg5gu8awTKg5dd4cZ6faxD5bmvggTZZZaVOkRxRBI5mxDNhT4csL3hXOn627bINkUXkEhxkQkfQ0cUbCXDg4+FeAC7a3jhxCqbxiV7h5WdbRNtIpVpQswteAUHI+bLaK67W6RHQE9AemcIRdCPIeCWYw/mMrOa5FsoPYQIE0MW67/d2GMEvVHHebW972+11xxxCKwP2UMYowiABDEQ5x3kYzEEjyFaGsHXy4pYIjcPgMoKSpqrgeeCBB/YDgmoofMiAPxpeR6Go+wHfOd/W4853vnN/MC070UnTojPnBK+aqA74Ml4AfydKgsCe3cEAB0VnPHy3d3XCxehKqL4gAQIHX3tgSSNIXCOQi+0tC2xAxlEfsqFNd8epyjL+8BZeOZElAcKnuVDanvvc5/aGRHnzey85RmN82WELoyQp6WPpEkm2FLYFlFF2RiCECz34Wvs41n2yWcMZ0Os5ypZ9NTmMA5/20+Sx/9ZAcSxdAmiShTM4xRwyMRhgPJVJRvrtBo6AXwNIBgkOZ9EekjvkpzPa6LnoYPlyqvTqV7+6b4fMqc7nENVFkCj7nuuOAEfiOCQhF96xC1zfJQ37s8me9sAdrQTijma4DftHUQjZJTtENiM74/VkXnkiQHUeBZRoClJi9+7dvaygQUmf6CrTDOWBgpORChQWSJo4a6worusSGvaByqgxhyQMG4OihRe6olvJ8s6T/SXeAUYwT4CQ1zm4/az7eHAwWRjcmuWwxbEq58IB+LCNZsay8fCHP7w7sdoOLQFGH2VUBXrlK1/ZaSaI8HFf8D3xiU88jM54CTQ8ONW7U/TKfOP4CCIBrqTzjV8NZSt4K62N7m9QMFQmilIlUsSbbMxnBUoqWzpqgDAmwTMOKMEpaAqWZHwfbP9wuJIjqjlHMKFBcEAGWStiAUNbkzLeb7Z/lCFGMB8PhohDgoOWbQPZ6KSHqCCD8UIbD1ccD48u7EIW+jDinCyy3iV7VDKOjk5koLP1mxyCuAZP5OFYNPBj2xqkwTEfD7TQJw+93F9pwm5ixKmJvDoREkXj9Iz5pByixtKAVcdSwiUyGQDOSCeK4pPgwi+OM+47GRmWjPBGMMYpgHM5ZOSFB5kZDU0yVcgYngye+VUW+KHDqDWAYivzffeJJlni2NxH2zi50R8dF7zwpj+IzMaBz1wJwj6XY0S69c/kCIWgn40zRAh1alsEGXKtbXk0LQSPU4NjngxxqJ7Mzlg+0aUc/iI0QmbcJ5mMKZORz/3guieLNBHWLcacAzqpDkqxKjICR2kcd209JIAfw8LlDBe+dLeuk70CWQLo4eUzgF4cYC557M1HCB5+cDRhmtAK5rvoW2X1faGb1STVjsoA4Sm43h6H6RarwIgjRmjN1xhtxs0nkEd7fn+0MjYe4HxriWYkRstYPhnGA32HD6OR8KGcMqqLtSUjm/sj0EE3qglz0D/C6upq3+7oHRh/GQh2nSycObuYp4Tqjjl/GS049ML38IBDvRkyJof5Ou9xB4DWzpe+9KW9xis90pxxGSZK+tXHNDwMyEEE9V125CkJBtY2awoamIpEnZ3TK02HOXFesptQHOKpjRIK8AiQhWIMacvEYbpkvDQ56JFHxgtO8sbZxtBifI5XWWytPJMlCxlT/skhW3X4lozRYaFjHv4ynu7muxe70EuwOgxRYZ75zGd2u0YnstEJfbYhoyczAWNw4aUq6OTtTjRRAZ0/+3t70YMG/Q4d2dBau6M9MN6AzFAci6HS7OEvQpjoJGUVZrLTpUzD8alLlHHKpc6VsqLaIzJbC5d9sUOG1RadulM00BYQ+HmbXYdNBhdn4UdgvzvrAIM8jid1gbp0QYQGmWViDlGUfzzDAx2y6WI1Ii5zNU9wACOSbU/bNijraNFbwHM0PkDWMGhOnVQQ/Olccbw1YhfA6O5njCzoC3o2c5JGX84AxtHTTDpm9X6WEywvGpBXIAC2tZshL1urDOhyeN/zizwOchPEsSLPOSbmok9GKLuiExCUU/3Wmb2U6K1rDgE50wmMyH3GM57R11q/6iGzAvgyroNwF1x0ARoEZWCOF1ze4Gdol/GA6Ldk2EY4NKnLBzzRbPthnuCwV2WQGJzBZIvlw3tEDO+32AQRedCQ4dZx2ySOICt90A4d8pCXY+hpTpXTOHq2gJwqAOoBBfuTy7Na59r0J48Arzzg0UV1WGt9zp7mYAHClnTZKQI9RE/kmuwwwvrpniyRAaLc35IInsk2xjIBKGP2fSmxPmWvkyBrDbqc/KIXvahXhz6p/SN7BZeSYu/p5WkGDhDcXNFr/fRmg8xTYarB8HaYDpQjc+q4CkAmtNGIM+DAZRTGsf803z7W+2BOocwFslNmOwSRtQLe0aKsZuhkk+9w9Ch0sp0J4MexxshrOXnJS16S4f6Jh+rG5rpuc1S1/FUfSOwlEQQB++HpoX+eD6+0MrrpdRcE4hRZhJCIsAejuIk+XRT1s7UmjZesdQTJ4HAY0LrlXFe5FeXKKUeiq3QBFUBUik4yOA+Gk1Is6kWvDBRU8G34s81gTIqrDiKb7MqWt+c5iyzGGUCGCTSlyoEKp4QPWQSRQJetzpIZ0sXR+KDtEIRt0LU2Mj4axmM/sspEpVPwcx4cQBZBJfPxMS7gkzDsKpFUCnrb+8PJG5qhk8qJnjkJKj93nZvC/U8VEMqNMOcYP3ekhhyCHWFLQIq6EDM/BggOGqKcEMYJHz7hBZdBKYuO6IcXfoQODeNAGaRIpUGOlD3zOTXKmhM6HOw+PoIDBA99Msson+gIwDqOh3EgQOkDYivf4bjMYxNAn8hLFuPsgj5Z8IYPJ/aoNOgTm3SCW/+Yhx6InL6vNCE3w7QOGDSBwRhWJoZxxkQuI7sitLH/BghofYsxRyUiC3nwmxuPwdGohq7yMJr1SlZ4C3MZXp0zfo8sSqYyyzGVTgIEL86rAVBphU4CSWYnUNAwl75jwow0zCeL+amEC/WZANUxiLqUQQ2Rx3MiPfcjkFcwOT33fVbwM1xnwdYT6zABKp7vhCeHRgxuBeMuTrdd0a3Kpjkgr94AVB75mSxKrddHOWMEc1QOJVKzSLcKkQUd2aT0jzjwjdGD7cg9B2jBkxzKtuVoBHpa7vhnGbCdpY7e5Ar0X3w2cTSWCZoeE6xXAI7JIoRATkMEBGdRIM6HGyOgo+tz2G0d1WwZC6DHIR472bLMBRka+Ol2rdVzQLa8/E6mWn3wQxcf3bADCM9SawVCEx+GtF92qMLJ1Vh4uNzPH+1Kqa6Jwak6b29YyNY6hg+aeMHzSFT10VdUvMi8qzVZMncENNynE5ntGpKtcHfuaZ1gWumsOQY4anV1te/FMI2hMOdYUY2Yn+2pXJoj3aT1ABDe9sMGm7E8MJYphAo9tGxjGGF9ff0wbz/AFTCqgydN5E256ky2/oFjm4H/CIwkOzRythie/VYjBN8WxfZF566jr90sHDLTie66YsE64sCzrZLJdhvKYwWyoMG2TtI8rfJoju2NBdiFwzRP47IDBy4eGrU8yaqBsfCI6ylPeUo3LESGBIzkZ+XTNqOWA5HCkYTjFA/hOdD7TwQC6OiKHSlytG0MYRi0OkbEOS6zkVfa/CwrAoRVEZQ1D68dVlgfyRBD+NTFKp/23TrkKm+C0XIg4z3wZzQ0oi9+aNDJMas/D6D0C4gAudAWZE6U0KW/zKt0OBsdycHJdMILsI9EYvfnP//5vXL4e5OqWnDgcb4KZLehOpC58sBb5TCP3PzF3mSEt9DOp5UWkW4ylNJnPRItJjNmxuDZMtjz+VOyosZJTv5ULMHQoJg1UVQqTZQdgVGUGyVfFjg+JHQF9/C2jWEkgcZAcSxcP9vCeM7qrYJKA55rdctpgk2AyHJ0A35G/9GPfnQPdoZlvABZyUhPzrH1cTJkXgVlXgDt187gnco56OEoIEi9S+YdJmu9gxXbIuNVZjbWsFoOBRjHVYDrIof1WbURuGRxvzdPNvfKpExykxGUECmuRIgCawUwLgMdVsgyyvqZEH71ojYlop3Q6MMT3SPoYO0FZTIaaFaHwSeXgwLdoUyETw5XgLxkxTOOzBg89O07ZZwDGN/dY8CAPTunpGLEGRmXUQKY870TxukOF1SjURZzHGtaxiqQX4a5NKXswgZKf6Xhnhf119bWejDI3BHY2h6XXVQJDWh0X2ke3uS0WscpoMmRbSLBiQYhGSIg0o0p14xK4QrGCS87RJIG7GlPe1pf3yqeCNbVKaEOJ5x/clDKNSPLRqVe5WAAByoJtNBiZMuG6FWFGDTyUpY8nE4mgSjgfFags9KZNz5e/OIX98wKnvkCQ1bQWRBka1XpCAjysh89rKGClo3RUA2Nk0nlE8zkqUDm0HGAMfoouOynssIVsOjQu/+pgkRKPhnThTEQ1RQYAQ4BzKuBAc9c0QkHoDFHB54reKEVerkfXmiksnTCW/9wPiBPeIVGHLuFug9O7vkkR+iERj6NkyHykpMBYzPjgeD4xJscLrjuoeNCO/r6XsG84FV9Rzz00k8kGdDZ0QhvVIK+y1gECOMzxhrxoqg6r6TItKqouZjBE1FRsNKBD88FD+8YA57x0AydOYNSMM2fDMuc8AodeHjI8OiFLvBzeJObTJWO75FVAKhYAp5eFfBw4eEib3BCw8+yl13IM5c44UUm9Mwla3TAM/dDNzIf2jkUyQxiplwooybNARx1XTerAcIkkDmiyVOS8VXO4OWT8EqpUuj7CMqfbYZmJBFacRjJmoXX4YFyq2nRrDFqDIOmTllnDSL/HC3OsnxonhIUFY/85NHwaJzmaLmn0yXvHI3Qg6dx1RA6B8AbuC+QLT1KvsSq9u/Nk6cEhMAgRtUgWGsYAphkLON+FrG6XWvauPjDYzjB4UmFZqvS6T9s/cOost42QmMksALoGMfLIYb1iNEiq3GyCDAd6562z3XPVQG+7YAulEyejmSdhmsM/3T/9LZ24Vt5+c42uuHoHNuEX2wj0HTynOAKGGcb/PQCkSPj5KEzPoJd/7He9vgSSfazj/mrrcv3GwkC1Q4kcpi/8Ne8/C6pZ62Q+83G2JZCRGiaLNAmihaKAZ+iyIbfmavSQhjzA+bLVG9p6DjNkXkVhzDoOzxw4KHD3GetaHMYXabaZpCRbD7NdeFrvmfCNvQMwjEMEX0EA6fSo76mSVZG19DQx9sinCmo/QcY3tciHz7kNx8du4jwomfVCY4q5sBG01QBHrkkkowVyGgHfFfm6extD3/ykHy2YP4koSDgWDLd8pa37HI4h3DoYh4fob8QlTqzZEkEtClmPIcCotPrLU6HCA0IoEw7npMtxpQxRAE6jAmfAfzqhHeNZGYFdDhCt5nfw63j6KgoSg0j+c15jjSPwsaNKWmMJAAoKljxij6UJp9fMla+BAfjhIalhOPY48D22wZ4sonyz3HwXLZsbMNpnhE7VfNcNnzILsgsKR4TplzXcfKzme4+ARed6SX4OdUhkIMSge4e/gF2RVO1dF8wktm+F+5OhrAX84wzTQdFRIzSZotiv6R8Ga+LvL2V/2CAQbTamMleQECBoVUX4WgKAtuECvh4K4Jworg+2IbHuEqaJzr+WqgItv3K4zDKpTTnYTyD4U3uRLdNvu8ckw297NTwuY8vJ9qLC7Ddu3d3QzFcZCYjwzlcSNlXGtFhA1WL3hwquGSXUzkVogJH2Zasra31KuE9LXZI86l6CA4nU/e///07XbZXPQMqGzkkCxsr6/Qgr5O8He3UaMNaQRmCEJATMXKSQymZ4B0jkzBAABBQZMp4p1eygQOMMzhHU4zBlGIP4u390iGisdrWCY5hNFkQ5fwMVABlVZlkAGt1eBjHhxxKkLXcGuyPWDozZjyyoJFDAfRlL2cwCH1Cw2lRAhS+9dHeOnt0ThMUnEs3AeRNCYcDZIjMbEhnpVbJxis64+USmOys2pDBYRAaxgQlnR2j4i3I6JQgpDdc5VcikcubLnCcvJmz0lJ4E2EXZEjKEScTmGEIHKHznQAcooy6F/woQDnBYfGXrf58AMFkUTUC5ZUQRt3TGh8VITwowCmMSCYOFURoADIAvBhCp6oZUfrRkE0ADWVXaXNfgCrrrtDwyeFkpRcZ6cQBCWS2oa8gck/W+KQzusEjCxz38GDbjOETnvDIRucENHkjB1nIwQ90Rs/PgCzo+KR/bArHxTKHFu4+5dB/MHWZTEkT5iBMjMWxFY+gmFMuTsm4uXgAjljGw3x4xufwjGftJQNecSwDyAI4HLWMBzw8fM7xiMzoxKAxeMZ8Rk7f5+zh/n+CyEIngA6ZEiBkAMEzVnkd2o51tH3/YQCRrtzG+Pti7P3JmNIl0jEaAUM0rKFzwEgy1+cyEL2e/4ryZXiyWvlSKarzorzyGEPN8TGmCTG3zh9xjZFHhRC0IxjXwBwer3HO+HNktremE34jxO5kHm2y0HAwVnUIgUSEpzaegvh5TlGEKeDX9yzyVZEI5p6uUde8LDjw9we+BJF5VRZymEdBz0qVLePuB49SGg5Ng22KqE5kxxhoWM/IY545aLh85yBy6v7Hsfzs06Uca57GAKq8dOBzzojs6EgEwaqzRk/5Dg/ykNejUI5LCQ4P/iCH32hgv+gRm+x0OG8SgkllRpFBXtnQNHldczQUBoyly/TGnfeGlesR0DVuj6mJGMH66fGYtTNKVV7uERzOs571rB5g5li3UtbhWD91y/ikYw4v4xxKP7R9J7ufYzBGQsPTEsGqsbH26/w9ncoaiJZtlK2ebjc2Cy+f5IMX2nUs3y0NtkLeRiSvF9BDi3MclAhkvYfGqO5G0IDDLqqgngI/V2y3wNwPyUgTRBqnWrR1fcZFjQgVGQARESVLtOGcVunAQYuSDKSzjiOMBYz77XFduUaLoAwfwEcmkYmRGWO9ncKQBeAhuv0ODFnpQ1ZlOXQ4UaAKHk5TifKMkz5oWEoYU6epu/YKDYOrRjIrvHw318lVjNgHyz8qD13JLEDoUIG8MtWvmgBbI78cnkCQuZYux54Htz/Khad9LxkrqGL4sAU5Pbf2nT6L/drDYMYNxGHWI1sYSPa6XtKWeVGSseydLNqMinGCAy3zCCjTZJLMFggjcADlvUNrn6okjSVsre33/H1Ehnd8xnHouwBZGNOZqTcT7HX9h4DJHM5LqeI0hyEy3v46hxjktxVjXPz81jzHpqvFJzrZV9urynBOGoE8AsihiaCFE1l90i8vpnOoQKuNkbkS64UvfGEPaidg3tjwZkeArQWWRHDUajvoeHfX1pn9gpCMEqdgTFnHe5zsvRzHjfaE2YogHjxHXfaXDhkifJhTUIYpc9Zy+78R4HA4x9rO4JtSih7nMLYgsRknq3eSyAPIbZwxNjY2uqIeonN+DCqqbYOcGFn76GVNRgtP4FN5NGbpEayyRmlWudwnj0/07E+t5wn0TmTrH05iYBXIn+0jX+zrEx1y4L9/e0FPQLqXCxllWUI5MGGDvjdtOBXYgP0koD2sswK8wI6WhRu72wY4xuw3W4RzhGy2AfYSmTVAvRfphJMB0l95YAAnV2p9yhMhGVa5kGXWKYcLlQ9eaDnek41+445RGS6GQMehgLNXByCcquwLsvBiBL0CmWSYzb7TtGQgWnAsB+Y4dLGvdnLDaXhwrIB2fCr6OcSfyLVXrdnEsYzpqJXOtYTSB+DlQluPQp9A7KIiSioB8pjHPKYHKjldnKPK0Zuee9r+XoB5OQ7NgO+WQeu0pOEnJ2jmrLTI2uQQjQ+lMVYqUsYoxRnjPpaCypdsY0wGYJxEjHEZINN8mo9OVZKAxtHgWA6BVyPcOkkWxnSfU8IjCvqUsbIH38icCkMn933ix+jkCB1jLuuTTHafTRgOrQRZSnp0og+cBFjkQYvMZHeSVSEyKKGc4dRP75DKEVw2oxMa6NNFAxeZ0QktvHw3HvutNCduQqZsBGRE4OdEURjmEyHMQSLUPd9BjOV7hKuR7z6AZ1x2qwbmV55k8TPaDOtnBo2x91LZu85GnvCpRggeOvj5jOON+RnggTa56B956lhwgwM/toPnPpzQIkfkdb+O0cdcsgSMux+b5H7lgweASx9BzS7htdCd1XUCoowlFIhA/YfyDzyNT8v4LkSMUFD6XHjWO5lAgBGM45+1OEYJXoIOjtKv8YlSwcmnztd+mfxVbt9zMZbMxE8goGWM/D7JA0cVsZ2ovDgZnosuSrdyyQkVDw0gszWNCST3wkvwmUdm1Spgrvv6ktXV1X1si+8IdMDDy3X0jh4LkVKjhRBqP2cQYhkg6C12j+MoMEKMpEw45GCAOXruxbGJtpGWn3WOGjRNxBwdgag71FUnKOfocIAnJ4w5x49Rba+sW/SKkyot9xhRc1OzPjjRSall8Or04Pi0F3ZVHr6zmXXeErcMOBCuHscrwPxR6SysASIvpxcGZSKlGUh0W0vt3YJDeR0dA9k8Wws0A+hECXTgeLPQ3lDjRWHZEBxCw0Hfog+MV8cINEFha6UhsjZSBk904LrQcOkOBYrvaMNxkdllb2guPDpWIDP+tjKaNOtsxTGOl6CwjbE+WtPGTMKPjBos+9BazqMjndjGNk43G4jdOJdv0EZLl27nEPuxi+Tz+056E3+LSymmIxoLzpGhOlcKu0kZn5wqopQt7+5k089BFDTugbAtjwfC9lmMCuCIIns9r18qLTIh41HEfdnhERo57N/gVbAXBh7JyUh71JQvRpRZfu+V3JYGD9n9ZTQGSSQziA287prBdOvuVZCFSr1xTZE1vwJebKSL140yfrKavgE62gqB0ensynbsKikkDLsG0CG3rYyAwE+gSQ7z4iOOdfDDb+yrpPPHtmNlEoMhRnCC2BYwgn2YPZZTIdsQnRziAJ7s8YtUlCSkKMYQ9Khp9PxsvfJrDM41Ma7j+DCkgwP0nA4ROMDYgsp2Bh3lnwzWKDzQtydcb6dRDlCUY1lJUeU7BucAr+nQDS8XfdEIcLRtnnsCR8bXcbQYz8GG7LA1ok94hA6Hc74Kxz4jkFkAykCBrRqFD5kEFHkFiMMbGcnReLMRwNd21HvYDiacXjktwxOtBeIQPFRW00WJ8iBiRZXIpuxqW8jt+7KPVYL8Bw4yjaFFnSO9qqTvxhxyE9KeLQ6hAOHwk9UCiIIcgi4goHkMrsnztgZF/AdC1lqAhmUAiGbgeatAUirJi5fAVRrRsof1IF6Gj/LmLQ9Viu7mBnwX3MqoKpNfuhpLLWcJRAFvnzsCOmR1rg3HOu0efV2WADQ5KQlkzXWmwC/Ggq9SCRQZvdZOzNIb7WjKbfgbhqnnFGV8mUM4B92yMQ/KMcrFgJjLEOuE3z7LIUCPmiaswwTGcCRWX2nBx0VQBnZshheeAgwPQAmyWTPxcPpENvcBGgxhjnXTsqAUkzelNDqZI5s4hJEqDbTCi1N9F0Tomg/oJKAZ1YtlnBYeHWHrH5luWYHnjYa6Dscu9FNi2Y/985DBOEfL0LXmKHoLFAcdTs/YCvjM4Ynqoeqy/552mEH2lSbEJkf6wRXAABCOYlEun8ZFv8jziYZNdu0SZasxxqQcASoP9EWbrCNoaCdwjOOTrPWzA4rgZRwfPOCSI1UlRoCHB1nhGo/OaCWIzCdPaAk6+kTmjNPJnIxVefCyfHAuHPKaX3HYFI5yS0a2qQGCD3nh+O6CAzey4GO+HgKu++SlF74rrW73v0GRGyYEGIGiEI1X4YLznz4JZW0wlyGqAuZGcJ+MYQ2Zk+U/8SGr+ejgE6OP8+AxGOPCwasaK/iCgO7GOKcCHowp4BiTff4b4BQ8OGy0S6VHljhvPKGqstTEWWiQkpWVmAnKhEZmXGvgGWdIpUKpTffpfr0YUiOhAXJ/DmSAbtQ6wlhzwBnWNg0RJUcQODJNU7QM8Ker0qYMkm0E43RxoGIdJdsIcGSLtZ1jRoj+dCGzwDYn4Lt5+hJ2QWsOIgud7TjmZKED+nqUSmdh8RYx1ei+I6Kp8QiMc6NAhGZcQeExmZYbcYZF3BihXH7WGdqnyo4R4AgQ25C6PgeP4C6G9ux3ra07DD8Cx3Oqg39lq2YhmSMPGe0frdcjHhzO8MqLDt5fVkuTVvnhr5vntLkgw8/9BIdAShDhwbbGvB0B5iohPLYji+3dsoyGowG27ax22amtr80IRgQjjC5St6WpUbYAIQjJGf4Eu0ZFEyVzbZY1P5oYzQAj2ZMqHwxJ2BEIpuPVqOhI5xTAS3B5FdQrn0pOBfLaFtAFnTmAw/lrLTA8GrSFGEuo4JUdfqWCXnNORZtDNYx+zVJwzIEqJoA80tT8SZ4AOWxNHLhoKJXzEdiOXTSLmj10xjJsjm7f7/TYBWj0AgsRIfNEcgV7Qw+KGVH0MQzwydD2jJSSIfZ1BLA9ci+ZKYIEh0d+SsV622viE1rooWX/qyzJEnvVCuEnwimgnU/0Bw9O3mogsyriuI9xAoyZ3xawRUugGkdPFnGYd550stY1587uBQQm/h5TCnZLjOVDtao6wSFrXnOtToWHFztIGgHi10j4IZWOTfjETsGWyImepapmNjqSYlfbD3skKnFqoC5sR5TcKhhFsi5QAuOa5gzhQF72MKgX0WSaKLdXZTT0so6gZxNtTXK/Zi7hONVBiXItAqssqRDKtLcaBNxY/uCrGNZNDpEhIw6ZZaOgs2+vgWxMhbLN4TBB5FxaBcoSRAd8GNI99rGlYXQyVp3YBB8ZRx4Qp6Dhnu0MeSWF5gxdY4As6y0Jdrfn5BJIgMV2HaH9A1eAcLheyImcgADGFggrcckyAxS1z7NPIjgF3QsQUhRaZ/y2F4Ki3L5OCRY5cKxzMl79h+NQwM9REj24lgLOEKVj5MElG0PgqdzGAFUeJ2Mcx8GCNYchFYfxHbbI3uoIPOinSeQ0B/f2xs6La/mDZ2mxn4Rjr4yPoK46CT70I3sd850unOEkTDCrUmxHrzjMOGd764NtLHE1I6sNHMMKgAQhHv0/LTRRlkUAk0SkTCYkog4p4BAYAcJ4XGSObBYEsq7uM90X/aKNMgxR1wFGl6Gizbj1JgfvUQK/NAhKqYMBdGopJa8AFBjoM5Lx0DBOFqdaHC9oBVAaLE41bl2kE12swdZYwRQ6ZFldXe3ONTa+7ZEgUr7RtHb6ruSi0w3eZKGPEixh0PG/gdIJ4GEJkYkClewaXHjkqDLjIdCU/fHAZKU5qf+nhSZVxyIo1ZU0Y9bOCIa5cQ52L/MwpQAwHjx04Mi8jHek9g8axuHbw+JVZSG8MXL4bn4NwtAxnvJr3JwYIbIY9x19dHyCzCMvHmQ112fkgWcsF1zyjvpUeni50IHnM/foXHnlDDg2M+a7K/pWuwTPp0CAE7wua0v5DcxqKY7DYgBKxggmEdCFKAGNVaJwopBPZRgNPMwbAR1g7TE+Giu8ZBU6rhHQIDeIrCOvzCOzrIns7sM1L5/WfRmjAlV54LjwQoNO4ReZguNnDlL6q+54xNHoCCz3YrPIEDx6q6D4ZUcAN/Q51hiadDG20NWBIOa7EmmLocOrYx25/cOQq60sadutTYRwVaAUhg73fS4DiuHlVxlGCF2l1t9Hsq4nwyouPM2KDnuOV+gY0xDqmtHhhIyh55513GM3uMYC+a650YCtta3TnCzBF6g6ZzKzxQhsa/+uUeM4UGUxh97WTy8r1IYvsliL9Tm2VpXHIg+4w5TDEPBXxzFOJo/OpZADAcolgkcc0cj51liQ8XyGp4hzAuNpjLE67jteDGR/CTcZnvk+ybzeOkndelUwOOiQRxYytJ4h/UD44cOZulXrtCtZjg48zqKPbZynWWRxhUbFs4XhOHTiCOPkkDhe62VnPyfT0HHRUx+jI86fSrL2ByKLIOUDT+dCA07/3ygppCxBZhRNiGYmhwFKgXLqM0bzaXvglVJCUFYkV6PDZ6QwpUAMEQHx1WBpDiIsegH4eOveNRgaOWW/AhxNDxl03gKNfOgBn/honjQaDlAYKcY2Hj6M5LtHl3niEl7wVCc0/OcLOmbGFwyxC1x6a468NuQVVo1aEgTtJI49s18s9+5wgowv6C+p/IqH5svrqfbEKcN4oKPBkq1+QVrTSAbzfe5oz0o3RJUObk975MP4WmyLOWMrOUqBwwPGcM8YQ/nDl46zHD7YRlDa4yWGZwQKy0Qdpug1R8CIrBiVcBRA2/5POTbfK5lRgEMooLrAqx1tcNZbtipHOmfLi4AjJz5kYUw62JZxvGBibDjG6e0dJRnvHd5dbauhPLJLAonR/CI3WpwnmywP9CMvumC1VSl/20OwcbwXujNmnix70pOe1APWrsN2Dw3ycBinWlJy6icAvEWiCxdsgPMsFwJepXPyZI31+I5OPWM1ChRgBMT9XgqHMCYDePDtZWTZl8j0af/mXRu/aechuGM9RgowiC1MDidsn6wJhA9wuC2OKmHbxQBxKhwyCQi0KeJ5q3JYacCTIfaUMskaCT+ywkWDQ5xrC1z4Ai+gwWEk/DY2Nvo7RgKeMwPwBZ9P9PzGP9mzd8cH/lrLev/zBrtYI6usCSI0/XEQ1cOeWFUyhr9AtlxwmPWX3AK6HreyEz0FoowW1C680NjRftjwV13s7TKRx23COZUjMMRYFshYkeGeMQYivGjf3U5KlMqMY0Bx64k9IuG8hYF+IlimeMVENDrn9VdowoPy+ChNIpbx/TaAI7RkUXDQs37KAIHh0CWHIWiYqydQ2mS8c+n6pwoYBA3VR2Wgv+M8JS68OJMsTpyUTj/DIXdwjMtiAY0Xm8nI6IuPiz6qlSpnDWY7dmEzgSPQBadqaQmSWPVMX9C6NJ30ZLfnPOc53d5kWWlO2f5PCxEFoo4xMCAoMJnjOQ0e4WS6jld58SsRSgdDRAk0XEqaqMPQeBRAV/aZbywON7/SEFSUVB6t12M5x0P5UoJVHIbgmEqDHnAEEl1ypTliJM4ni3tk8UnfikMXDmMbgcHBcAE52CUnbQLQUSgaruDQh0P1KEqwYJcA5EWDDOwCj1wSgrx0q7KwKTw6kUPVhdPpNGaH9vOd9d76jQEHxtkx0hZK/0CQIlX5Op7vjGo+vDk6waNE+EaBjOGDH3kIH7kynmBEf5wbHJ8preb/t3iRJTotkwU/sv5fgd5gTrcEE5mMk8XVfj50vasCcIYuN4auY76bZ1zJEDnLgLMc4ymTInEZ4CMLRKDvI6CDn/Ll+xyQw/JweEB5POLgZbiyxbUMGG/cBQSX/JomOv9/ALvQbZmv6GKpU3ECi2RJNSahdXQW92WGhm+R9+RHEPi5MvYzhgTav/2qICPMRW/wjDsUX20dZQU0XAxFHjxcorg6WNDoJO0LU8JCBw/rIRoe1usg8RshssDVPGpOBELAuAt9y4L1ONkUHJ9s5n3tuYA3n9wuMjhU8aaGX4K2XtIVwKMTGbwsruFzLxA70Mmbit6j1u+QHd5CNCDGmQEDa62zU6pEgrWpGhGen617aj8BREt1LBz3NAkWfetR5WE8wFB5pWXEM4ehKG2tERyqRM0m8lr3rG1zhiYXfPtKjZMH5MvKsPnoM5C1fDQmXdnDVkejOEeHXay7nlXPAR4aU09lnNxZG23D8tsSmcMv9Na7WIer/cglMOw0bDU9BKh9xUJkEnSfNG6GyAPkjdb626tSqDrOdy25Mmuvi8EYAIyjQfCKCaGUSYFUjQVHZHvC4y2BbLuinABSGez9dMSy8oADDuj3oih6Kowg1O2OmUJW+injmgwZokym0oQXg5tLHy/J4111hmfcts9BiAMKxg0dcpjjVIqTNIQCjl1qwLGlrRs5bIs8A7Yr0FgmUNAhMxtnx5IxctBd1fAWC6d6QpTtIjn6Xz9VmqR8wAAkDrVZZ1SGSJrDg+OYD3Pjyq3oo2SAMhxJYBGuDOJD6IBMsj1wakTQEdBzsGBPJwjtI/N4kAzApy2IbRWne4Mixjbuu1LGWQ4wZD2dGb3Kwkm2XrLEoQB+NeDR4lQdrG43OpmHjot+9uZ0VhrpZi/KDgF28R6YQAbk4bRa9vG11RFI+AjaGmQca9+KN3ntmVfbMiZo2GNh/+NLLW0YiEilQBlUcqwZNdsQtv2xtZBJecaZLCIwujbvnjsqTfaXWUOMA9sHgtl3ym5OCA2KyFbdtLXE2apyc9BBB/W97l4Ke/+1bVBiOcw2TDlNltAHDc8u7fUcLAgOe14yBpRHBrelYhd70eztg0NeWW/f7lUgdkqVIbcLTbwECQc78El/EX70FIB+JQXNESQRGtZO9ocTu8BlG9XJGYJgUo0kQAJoR/vzABv+xqG/Y1iVkLHWGMiyxEac8ZQXgImNPGc4sTHf/9ZBEWMYE15WizrZaJ3w0Dj7PnQEzlpbzznBn/uphxPGGUI2M6I/DeCy1pKjKsq4TopEMUfKBvL7Dk/Z5DQ4+Ils72KhFTqMwkjuc4bMjEPIQieZyogCx6mbwwl2S5kkl56CHPRnE5VCLxI+nGYJU0XQs1SRv4KMNY4Gp6KRZ+KRBV++IY/A9SeZrOtkWWmRt2lxpnicRgFgTZQx0p0CIhUBAjI4psbgm8uQxoF7DKUSwFemCMJxFQgtU+CQozodHgdwvkxnZIETI1Y6cAQPJZ2XohVjkpUs1jrZTBZOE7wqSmRGw3wNHCMKigrocAqjs43qQaY4LLhswjbuk8EVWmiYr7Ra6gS6gKdXBfPZntycRZ4azOzBtniRWTC58AIrDaG3wxhX5gY5JxdjEhROFEGc4f1MwTi9zg0OoTg2c+EAhqIEh1bB947ulYExOAOYX/kEDx9jkRdOAiD3Mj+0jBtLVoaPe2jFJpHZPPd84hceGY8slZ97oTM3Dhc9nwlEeGTJhZcLHQ4G0VelY78EDxzzFoQioBsB91yYiS4RIZoJYBLwKZp0s8bmIhdTa6OOGXP0KqBhrsgVeaFdcXwPntIkw5fhCTINFJkr0I2OLoEkW/Dl2Di14qOvVKYaZSzBzaiaSTTmZKEnWTRnsmrEiTzoktVBvkYL3QrmuYcOO1tPKxhD39VudDAAAAUCSURBVFaRfcmHdg/Yijh+50h7Mq99rraOqzrGmHvj+7uVBsd7zKWjnctWuNp5Qi9zmACjPKcCNEdDuQ+PAWyHOK/KahyY57GgvgD+CMYFo67WesxYc3hKum0GG8yBORoff6RrGY55gsehDBt43jryEhxk9ZTN82GltgJ5JQ4abFTt0n8TgBEY3jqLOASXTHWy5DemNU4iIUBgnbK1F1DWOiEr0HDBYWTlw1w03QsPRsTDlsoro3U8FYRsnOnSQCjZ5rsfPpHJ3lu3S4/MN4au+ZowRrRvlI0CwXqaMkY2WWh7ccghh3Q6+ISW78BcslifyTACXrZV3rBIxxwcsnCYvsIzW7r7zQS2Cx+4ZEFH06iTd7DCtgG4Ak9zuqc9R8/aGrssnNbYLCsHmObSyUpxjvGUgkE5J4ogoCMTMSKKkJjUckI4gMZqy27bGo7MfTQIj7ZPOI7YasnBz3zymIef7MaHrMCnZiZ73Nzvg+0f8znDvtBbIRwqCBzFVV5oeDvCYQHjs4l7FWSGOXltJvaoOGSUsXBlP1pVJj+zba1i1bZoJThsdfQedK804Fh21tfXe9Oq6uGb4Fv483QiC5KJmUwhzGVVDh6MVUX8bMNuvsy1oYcPjIkqzGQKAaylfmsMDZf1Taai4YBDgMDjgApw0fPuDx7wGafKwtkMbu+oetQxkS0LKe20R3evg7cPtN0BDOdRmrnkcnaLn3IZIANa9rBocJyrBjNca7j7yv5GO7ljA3OBT7wkwVrbdhkXQCOY7wSL8wWgpSg0gitR3FeK/dIzOmSh50KkKKmUlOp+xpghENJqU86EGBhh32McgisZ9rW1nMhE2S6bbQ2UE6UPXXgMqN1HXyDZjCtJykpVglwU3d0eRjs6E4QCqOKQCY89rSzt144E6RDwXYn1poIA1MzR01FcukwOI4eewm8Y2jI5NJGZATqnUtjvcrATL0FV+WmsHII4uGEjJbtCbCeQVA8N0AgC19bM39xwloBm5cF59Od4Zwh0zzk72+5oR2cbns5TIB2iCSJhtZVGSJonExkjQDjr7q62d1Tm/Lq9N/8YyhiAbz/pcIMA8DkanwSA7zJeyfLaihMf5VJQBOD62bg10isw9qBZz+Gho/w5TTJe30EyX1BZex1caOYEckohfcnKCZxEX32FIIETWeH5zlEqB9D0jLIIdM2Xfag/+oFutR2nkEcwCR6nV1kjO9H2j1KcY0Tj7Gu9jiyh4VOw+m9rBKOyDfp/9sAZDJfFmQLKmnUNorIDJ0T7xIYji1wAXmUcHJ+yS6SbH6fG+XhZAylCSIZ0VUPAMe4StQyFHxqhg4cAE+nk4MTQQDfrbBo8cpEnzvIzQ+PByOxR6RuHC+DANZ9dRllUH1nofrVtZKUDOVUR9oBD5woZh0sWOHBDgyxwXHDCZ3u8lYL+34xSJoYIAwZhMEYZO8AQhoOhaw7gcb5x9GtwzOEvu4cGJchZFQw+5VxkBRQd9XGfvJxCL4HM+JGdrOYbp+/cfDTwMR+tmtHGKpCX3GSJ8+s4PnDYRCBWCA+Ompsb3PhBIKEBFyw8mE7WBTmfiCtNnqnKuAqU0uFaZwiIwQjmY6h5kv3LwFz0rZ3WHJFcIXJosHwHc/zIqvEa54eWOeQmky6S3onw4DC0jpnjloH5Sr7SP9rFHHzMV0E0oCNkXGZbo62fI5BN86WZi84jjp+NwdVgVb3/B8zr+GBaqoREAAAAAElFTkSuQmCC;" vertex="1" parent="1">
          <mxGeometry x="70" y="433.5" width="34.8" height="34.5" as="geometry" />
        </mxCell>
        <mxCell id="J574YpdcSMkNGBud1Ear-9" style="edgeStyle=orthogonalEdgeStyle;rounded=0;orthogonalLoop=1;jettySize=auto;html=1;strokeWidth=3;strokeColor=#FFD966;" edge="1" parent="1">
          <mxGeometry relative="1" as="geometry">
            <mxPoint x="740" y="462.5" as="targetPoint" />
            <mxPoint x="662" y="462.5" as="sourcePoint" />
          </mxGeometry>
        </mxCell>
        <mxCell id="J574YpdcSMkNGBud1Ear-10" value="" style="shape=cube;whiteSpace=wrap;html=1;boundedLbl=1;backgroundOutline=1;darkOpacity=0.05;darkOpacity2=0.1;fillColor=#fff2cc;strokeColor=#d6b656;gradientColor=#ffd966;" vertex="1" parent="1">
          <mxGeometry x="632" y="416" width="30" height="69" as="geometry" />
        </mxCell>
        <mxCell id="J574YpdcSMkNGBud1Ear-11" value="" style="shape=cube;whiteSpace=wrap;html=1;boundedLbl=1;backgroundOutline=1;darkOpacity=0.05;darkOpacity2=0.1;fillColor=#fff2cc;strokeColor=#d6b656;gradientColor=#ffd966;" vertex="1" parent="1">
          <mxGeometry x="622" y="404" width="30" height="108" as="geometry" />
        </mxCell>
        <mxCell id="J574YpdcSMkNGBud1Ear-12" value="" style="shape=cube;whiteSpace=wrap;html=1;boundedLbl=1;backgroundOutline=1;darkOpacity=0.05;darkOpacity2=0.1;fillColor=#fff2cc;strokeColor=#d6b656;gradientColor=#ffd966;" vertex="1" parent="1">
          <mxGeometry x="612" y="384" width="30" height="146.75" as="geometry" />
        </mxCell>
        <mxCell id="J574YpdcSMkNGBud1Ear-13" value="" style="shape=cube;whiteSpace=wrap;html=1;boundedLbl=1;backgroundOutline=1;darkOpacity=0.05;darkOpacity2=0.1;fillColor=#fff2cc;strokeColor=#d6b656;gradientColor=#ffd966;" vertex="1" parent="1">
          <mxGeometry x="600" y="376.75" width="30" height="167.25" as="geometry" />
        </mxCell>
        <mxCell id="J574YpdcSMkNGBud1Ear-14" value="" style="shape=image;verticalLabelPosition=bottom;labelBackgroundColor=default;verticalAlign=top;aspect=fixed;imageAspect=0;image=data:image/png,iVBORw0KGgoAAAANSUhEUgAAAKIAAACjCAYAAAAJrsW+AAABWWlDQ1BJQ0MgUHJvZmlsZQAAKJFjYGDiSCwoyGFhYGDIzSspCnJ3UoiIjFJgf87AzSDKIMbAy2CWmFxc4BgQ4ANUwgCjUcG3awyMIPqyLsgskWb9urrFSxZY/rtz1ezc/LuY6lEAV0pqcTKQ/gPEBskFRSUMDIw6QHZAeUkBiF0DZIsUAR0FZE8AsdMh7CUgdhKEvQOsJiTIGcg+A2QLJGckpgDZd4BsnSQk8XQkdm5OaTLUDSDX86TmhQaDzAFiGQZfhkwGBSCZz5AHZJUA6SIc6k3A6p2BKgoYKhmKgKrTGTKAOhQYHIEiBQw5DKlAtifQnGQGPQYdINuIwQCIjUHhjB5+CLEsYLiZ/WBgYGZEiKWVMjDs6WFg4N+AEFNtAToFGEYHagoSixLhocr4jaU4zdgIwubezsDAOu3//8/hDAzsmgwMf6////97+///f5cBzb8F1PsNABtIZlDj14fSAAAAVmVYSWZNTQAqAAAACAABh2kABAAAAAEAAAAaAAAAAAADkoYABwAAABIAAABEoAIABAAAAAEAAACioAMABAAAAAEAAACjAAAAAEFTQ0lJAAAAU2NyZWVuc2hvdM/tHP8AAAHWaVRYdFhNTDpjb20uYWRvYmUueG1wAAAAAAA8eDp4bXBtZXRhIHhtbG5zOng9ImFkb2JlOm5zOm1ldGEvIiB4OnhtcHRrPSJYTVAgQ29yZSA2LjAuMCI+CiAgIDxyZGY6UkRGIHhtbG5zOnJkZj0iaHR0cDovL3d3dy53My5vcmcvMTk5OS8wMi8yMi1yZGYtc3ludGF4LW5zIyI+CiAgICAgIDxyZGY6RGVzY3JpcHRpb24gcmRmOmFib3V0PSIiCiAgICAgICAgICAgIHhtbG5zOmV4aWY9Imh0dHA6Ly9ucy5hZG9iZS5jb20vZXhpZi8xLjAvIj4KICAgICAgICAgPGV4aWY6UGl4ZWxZRGltZW5zaW9uPjE2MzwvZXhpZjpQaXhlbFlEaW1lbnNpb24+CiAgICAgICAgIDxleGlmOlBpeGVsWERpbWVuc2lvbj4xNjI8L2V4aWY6UGl4ZWxYRGltZW5zaW9uPgogICAgICAgICA8ZXhpZjpVc2VyQ29tbWVudD5TY3JlZW5zaG90PC9leGlmOlVzZXJDb21tZW50PgogICAgICA8L3JkZjpEZXNjcmlwdGlvbj4KICAgPC9yZGY6UkRGPgo8L3g6eG1wbWV0YT4KSUbf1AAAFaJJREFUeAHtnVnsXdMXx8+vvdVWzS3aKFo0RAxBH4ixJYaQeJD+i3jzjidvHiReJNJ44F9BIp54EA8ipkaE5F9RUkOjCaqqLVVDBx1otfU/n8O6/Z517/2N93fuPveulZzsffa81/6evdfa0xn6O6csKDjQYw5M6XH+kX1woOBAADGAkAQHAohJNEMUIoAYGEiCA412pThy5EjGMzQ0lA0RIDeDggNj5kCuB6MJow9PnTq1wFOnNFqACAC3bt1aPCeffHI2ZUp0mp2YF+7DcwAAHjx4MNu/f3928cUXZ8cee2xHMLYA8a+//spWrFiRPffcc8PnEr7BgVFy4JhjjsnefPPNbPHixVmj0QK5IpXG4cOHi67T0qRHpBcExUHBgW5xYLjekDwazz//fHYo7wWNDudAXL9+vb2GGRzoCgemT5/+j77RIbXGI488kh04cKDpbeN60yEswYFucWAYpbexZs2aQkO2vBiqkRGfeeYZcwozODDpHGicddZZpUwOHTqUnXDCCSW3eAkOTDYHGn56hnfmD4OCA1VyICYJq+R25NWRAwHEjqwJjyo5EECsktuRV0cOBBA7siY8quRAALFKbkdeHTkQQOzImvCokgMBxCq5HXl15EAAsSNrwqNKDgQQq+R25NWRAwHEjqwJjyo5EECsktuRV0cOBBA7siY8quRAALFKbkdeHTkQQOzImvCokgPtT7JUWYI+zGvOnDktpx/Z4zlv3rxmbTleOXfu3GzWrFnNbXfsjv/jjz+yH3/8MWODshF7RDdv3pxxsM2IsOys37NnT+nMkfnXzQwgTkKLzZ49O+PkmtJ5552X3XTTTU0n/JcsWZKxMRlQQhxcA4SrVq0qHd/Yt29f9uqrr2Z79+5txifszp07M/wUtM0ANbPE0FyzBuvX4gYQ+7Vla1avAGLNGqxfixsy4gRalrM9Jt9pMjNmzMg4x6s0c+bMktw4bdq0QqHxp4NIDz+UESOUFdJELjRCLkRR4YxRP8iIAURr2XGYgG3hwoUtMZ999tnsjDPOKLkDpOOOO67pVlxwxSG1/FHQnXbaadndd99dcgNo/1m2LDskmvT+ffuz/678b/bCCy+UtOlmBjWzBBAn2GD+xCPv9Gi+R0RL7nTvixWhCU5z+Nek15uWx58qPSK9ZLve2EWtzWvIiLVpqv4uaACxv9u3NrULINamqfq7oCEjjrJ9Tz/99OKiSQ1+4oknZg899JA6Ffb58+eXFBMc/Y0atkSHJqzKCvZ2WjBat8qjpEeZzjzzzGJZ0Arxyy+/ZH/++ae9FiZ5tEuzFKjHLwHEUTYAWq+/E4g15euvv74lBQDqFRMFGxEMcCgd6odd15QJO5SDjjVpTZN4aOHkpcuJLPt50JNG6kCMoZlWCuo5BwKIPW+CKAAcGPihWeUuGGLzgN6dq3dPOukkgjSJoZFh0IdtBhjBguymQzPDMpefsxUMdyPmJGfl+TNvaHlhp0wMzciPRsiIfmhmqPfDvYVPxRxoINKoNLJODNOICxYsaDa4NdS9996bXXPNNfZamAABhcGTpuf97B0Q/vTTT9nvv//elBFx27ZtW/b6668XgLSwyIePPfZYCXDkceedd2Y333xzCbRPP/109vPPP1vUwvz++++z9957r+SW2stAA5HGAIzWy/AOEBH+fa9Cb8hGViWUBwCh8fH37xrH7Kas0FOZsgIQ2V+4e/fukuaLu9eEyRvliR5R6ZRTTmkJi6KVOoWMmHoLDUj5AogD0tCpV3Ogh2aGXzYoMMzZcIrJUOaHZsJZGGtU/27uozGJSx4M7TY0Ew83/HzaNpRr2oS18OZu6do7pk9L/VKxDzQQARe/5mJi2hoLYNxwww2lyWMa65JLLmmRxzwIxtKoxOVsC4qIARFZkB8toUDpBDRl4vCUnlkhPr+oIw0rO/nzrnFxQylKnQYaiCgll156abZo0aKm5kzvuHz58qKn1MYDtABCyW9qVb+R7IAHIBkICQ+AduzYUShLOt0C6DhUhSJjZB+B/1+iT5PwfkXI0kjJHGggAgaAp1M4vDMtA/Amk8hbezLyApQGMJ/330da16DpQT0Rn0fJ56N+qdjLJU6lVFGOgeNAAHHgmjzNCg/M0Ix8x6PDFsMvGjJDscl/mKMdypDp9D+G1sS4eYWBfPTMCsMwjw6vxEE2ZJlPZUTKs3ff3uzwkaO3P1B2Jrk1vuVfR3OggLggX7ozwNFYaKxXXXVVdtlllzXdAerU/BmNIsJ6MP8y9MRyml8JIY978kNRRpzR27VrVykc6aGUbNy4saQhI7dyYk+3e2G/7bbbsgsuuKD0cQHa0X5IVpYUzIEBYgGwvLejUY3oVVBU6K0MoEVDIuznDToS0RvRe3lCu/X/uy6AqWnmcYmvPae9A0jd9EDPSS+Lm4GMeOSNXz9QyIj90Ip9UIcAYh80Yj9U4eg41Q+1yetgMpIqJbgx/LJvj6HYCCWFd8JqePNXk2FRh1H82DfIThlPDJk+LG66MoI/cRnCTeHAZFhHUTE3S9u7UV7S8EMz4obKksTHjUeJeO3ia5gq7Q1fEd69W5UFmmhegO7kfCvUcbkiYvIUabK68PDDD5dWGQDh+eefX2izFhazXf03bNjQss/v119/zZ544okivMXD5LYGD+y1a9eW5EmA9cknn2RsZLX8MAHnli1bSjIiabLHUNOk7KwKASYFLUuRXlHig+FAlyf2KVre3q/q9wZfpBaGL1+nDqou0ETzo9Gm5QoJvZ82HPsJL7roomJd2fLAnykV31uQhid6M4CntD1fw0XD9UTvqz0v/hxq2rRpUzMoysdXX32Vbd++vcl/2gH+A0YA5knLdfzxxxe9qQ/H/kT8lFj2o/dXIi9NT/16YW/ccsstpbkwCghz6k6eyYAOzdi0Y+qHm4Uzs1O94QuP0pH8XXsj8/PhcMdNw2LXx+KaW6c0NJzZ1aQevi7t3Ijjw2k6Vdsb9AgqU8AAvt6g4ECVHGhwJa4SQ8Ojjz6arVixQp2Ttfuvmnd6Onus4NYr+PDmrz2Q2s2/6KkOlzcZ4AZpeNLn3fw0vg6j7Xo+TcfidcM0nmhak5WX5jEWe0NPgBERIOqk71gSqzosYEP2wTRi6OXcBtfCaT2Qk6irlwe9sE8DeWGftNnTt3nLZsumMNmyBb98o7Ji4vMhTZ38Jh5yJ/K4xgeg+l7KcBQv1N9/bChq3NWtRL2//vrrklKk/lXbG77QvHu3qgs12vwAIABTuW9a45/NrosXL26CgfrYQSMV2mlwTtGpcoYboPNg+PTTT7N169aVigaQ/AoKAdCwPQ8pq5YTwAEGAKlEvj5v9R/J7j8AwqMxowsoUef3339fnXpqr/U8on002iNOmfrP9n80V5V9sQMEDWu9jza8AUTdaCEaTns03Nr1hhYWsxfkPwDKwMgAP5Tgg/JC/XphPzqm9SL3yDM48C8HAogBhSQ4UJuhmWFEZSy4x9QTNx3omQxkJFYXOBSlygp2ZDKV6VhxeOWVV7IffvihqeUyNH/zzTfNd2sl5laRJ5VUtlT31OxMrnNATIkJ9XbDuIap0l4bIMI0gKjMs2UultSMABzLdvzpSYEIwGwd18Ly/vnnnxfaIyCFCMeKh5cRScvLVBbH0kvVpOy6KZdy8sEqL3td9hiae90CkX/BgQBiACEJDgQQk2iGKEQtZESTD5EJVa5BzmG1RCepkSO9/IO8x8oGW6l0LpAJaRQQlBZkQwiTx8uIyIPezeIEjCbOgdoAEWGbFQLVnFnK49ez7fbaedb89ttv2QMPPFAcWDI/JqS/++67YpOHB5mFCbMaDsTQXA2fI5cROBBAHIFB4V0NBwKI1fA5chmBAwHEERgU3tVwoBbKCgoKf1h68MEHSysEaMuc0VBNGu2WQ0HcmKBaLct4X3zxRenUHQoKy3R1VFSszn4Xjda5Ggh1J5daABGmM3XD3kP9xQTTNLrVC5YAKrRhpmt0CY4pGqZudK25OyzsbSqtx7x6W57x5h5D83g5F/G6yoEAYlfZGYmNlwMBxPFyLuJ1lQNJyogI4PxcxwRylBX+8HTqqaeWLlSf+u/WLFU2ENY51MTl57pfkBsV6irIt2txqzMnrc1u4fw7sjErS0rsR/Th1L9qe5JAtD2Ftv8PIHIP4LnnnlvaBAuzdM8h7ygqW7duzT777LPSujJryvj1G/FxKaDUbnVl3+UmuWUCdz7SlD7MGJqttcLsKQcCiD1lf2RuHAggGifC7CkHkpQRPUdQWkxx8X7IRCoXYWciG3lQZcJ2+wl9Wqm+IysjJ/MYMZnPu+dLu3oiD+o+TNJITUZMFoispBjjMXnn0ZUUhG2uitMVFATzjz/+OFu1alXpljPCtLtKxBo2FRPQaR0pF0uZy5YtKxQ1Ax5AvPLKK1vCfvTRR8XF71qfDz/8MFu5cqU6FR8vmnMqlCwQlUHGfNzUznu7HhGAAjwFqNcuiZsyaT0BJ7MDfIhGABE3DYcf9dSRADc/OuDm+YZbLylkxF5yP/JucqAWPWKztBOwqBw5gWQmPSq9H4/2dNjN3QowZehoGK0bPSKPUh1Gg1oD0YYXZTzDMUMRwjiPkYW19xRMwKUE4PgJETuMdKIeGZFtcOw+MkJu5hyPVzq2bdvWsorCqoqKKZZGSmatgQgjaQiViXhHYeGEHo+R9hrm1ksT0AE2BSN2QHjrrbeW5EEAh7LCYTEj4rO1jeVMJZQ09mIqcXqx3fa3lHhSeyD6ns7e2w1R2jip2AGUkYETpUSPyNqRWdwsPPXjo7P6WhpM0/jZAQtnYVI0y2NDiiWMMg0EBwKIA9HM6Vey1kOzDU86MYsdmTEl+QcYIP+pAoKywS2uOhfIsIuywn9S9IZXmz/UIZc68vcHP6GPLOhXUVSGThWStQYiDP7ggw8K5cQYjADvD06ZXy9NDnnpHYVMSF977bWFNmwKC0BkH+bSpUtLQKTcq1evLn1cyH3vvPNO9u6775ZmBwKIPWhlpiQO5IekVCOkR0xROAdsgM+IXo4LRgGnLWUCxDmzZ2ez88d6QcLTE9LDMxtgRD3RmNnwq+7mXzez1j1i3Zjty2sasHfnfTi/duHr7hbKSt1bsE/Kn2yP6HsE/w7/cZuSC/02tOGG3WQu3ntBfqKaMjAs63CL3TYuWPmLOuZ1QuRAvDBC+eBpp5TpqpKFr6OZLBBhpgeff6fBFy5cWKwwGPORF1EMegnGRYsWtWzPYonuiiuusGIW2jKXznMgTMtKHfkjlBIrRG+99VbplgoUtW+//ba0qqRx6mZPGojGTBrHQGgmfgCRi9t1uoJGY01Ww1k6VZkXXnhhy69qAd1dd93VLALgY5qGntHKSu+G8sEfof46eLRH3LV7V6Eh60/KCQsY6zA106z0MJZaALFT+WlAhjXVRm1YtMbtFHcy3SmD39zKvKAu21E+G56trIALezE0HzoKREDJUN0P2nEnvtdGWUltgroTQ8N9fByoDRDHV72IVRcO1G9ozid2jRjGkLVM68SdIZEhkK1TqqWaJuplKtM6rcclPdKw4dLyYvjXfHD3eVtYJqSR/5TYQWN54U5+TFSrfIv/nj17ikeX8/b/sT/5/YRa1/HYG1u2bClVkgbzv/oaT8LdiGPgwGw+LmFWJrSBaUB+CYu7NjJLfyyHqRtp4k6djQAgChAgU7r88ssLDV3dACc3UHg655xzSh8B/sh4gMyIPNF6UUC0ntxS8fbbb5emaqiT/4AsnX4xG/fdd19pzopGZZdvr8kaZ7hyABoe7akABz0iy2c6F2c9nYKWPIireREOxcIDkSkhejoletx58+a19J6EUwWKONbTWXyAyLwgH4LlT9l4ZwpK5wwBodbF0ugns0HPoZWEGfyBPSg4UCUHGpx3PSJD06Hc/vjjjxc/RqyyIJHXYHOgoX/2hBUMA+yJqwt5pYKhll6eFReV/RjymCxWGZHen7k5lb8YkvnFrh+a+dspw7CSiQHqhp0RxYZb82PvIPKfEUMvf0bl97smLhCHcOyq0TLhr++WRj+Z9dOahftePsQLIAIkHiUa8sYbbyyBk4YHiApY0mynrGhaw9lJk9sWAL4SeyTXr1/fdML/jTfeyDbl18X1O8ialR7GUlYNhwkYXsGByeRAAHEyuRtpj5oDAcRRsyoCTiYHkpURkbVMiMfURxmCTOcVFvX3dh8WpcTyIaz3t/iUxxNuKl+a/8ED5b2DuKMk6TQZciH5tkvX0hkkM0kg0rhffvllExQoILitWbOmtHSG1opSokt5nRqPNLgQ3hNA8GBoB0a2l+myG+ng9tprr5WSJK0nn3yyZXXKPiQLzLuB0dwG2UwSiDSm9lI0EEAsnrwnMaI38yAyP28CruJOhdxUGm18wvmwlEdXQCxdAJvKMqmVKXUzZMTUW2hAylcbILYbLgekjQaimrUB4kC0xgBXMlkZUbfF0xtu2LAhe/HFF0tb8Nkls2TJktKSJEoJh5fYisWW/bESCgRnRpD/lNatW9dy3RuyIMt0nvyqiveP91YOjL2lWtPougtKgR4UAohMf7CVSodogMgmVt2EyvvMGTOzs88+e1xABIBr164tTbVQQcC5cePGUl0BLfs5gybOgRiaJ87DSKELHAggdoGJkcTEORBAnDgPI4UucCBJGbFdvZAbmeRWGRF5DoVB9w4ywbxj545in5/frm9xke2MSFeVGpbhmIz2ygrpejc/6W5phjl2DtQCiIAFTbSdNoom7empp57yTqV3A6Q5kr6Sfze/Tu7mH+b4OVALIA5XvXbgaOc2XBrh13sOhIzY+zaIEuQcCCAGDJLgQAAxiWaIQgQQAwNJcCCAmEQzRCECiIGBJDgQQEyiGaIQAcTAQBIcCCAm0QxRiABiYCAJDgQQk2iGKEQAMTCQBAcCiEk0QxQigBgYSIIDAcQkmiEKEUAMDCTBgQBiEs0wIIVwO+G11i1AZHdz7HBWFoW9GxzgfE/5QEY51RYgEkFvWSgHj7fgwNg5QMfGJfXDdXAtZ1a4smPp0qVFbpxue/nll4vfzt5+++3FRen+4NHYixUxusUBGpZL4vlT1XXXXVdcs6InGruVz3jToXycmOT04/z580unLX2aQ3nglh6TyDz8Aenqq6/O+LXDSy+9VFyIGUD0LOzhe950/1u9Orv//vuLf+Pccccdpb9w9bBkzayLITkvJ0d7h/tIWnpEUqAnpGcsrtrN750hAdx4AohNHidhoW1oE9rL2i2Jgo2xEC0y4hjjR/DgQFc4EEDsChsjkYlyYEQgTs+veeOqt6A0OYDsZU+aJRxdqdrKiBYVAC5fvry4jT/kQ+NKWubcuXOze+65J1uwYEGt5fe2WrOxGoWa+2YQhrkUMxQV40w6JheYopnSNqP5zUc6JS+X5P85QPOSIRFVogAAAABJRU5ErkJggg==;" vertex="1" parent="1">
          <mxGeometry x="393.23" y="468" width="79.51" height="80" as="geometry" />
        </mxCell>
        <mxCell id="J574YpdcSMkNGBud1Ear-15" style="edgeStyle=orthogonalEdgeStyle;rounded=0;orthogonalLoop=1;jettySize=auto;html=1;strokeWidth=3;strokeColor=#331A00;" edge="1" parent="1" source="J574YpdcSMkNGBud1Ear-16">
          <mxGeometry relative="1" as="geometry">
            <mxPoint x="390" y="348.125" as="targetPoint" />
            <Array as="points">
              <mxPoint x="304" y="348" />
              <mxPoint x="304" y="348" />
            </Array>
          </mxGeometry>
        </mxCell>
        <mxCell id="J574YpdcSMkNGBud1Ear-16" value="" style="shape=image;verticalLabelPosition=bottom;labelBackgroundColor=default;verticalAlign=top;aspect=fixed;imageAspect=0;image=data:image/png,iVBORw0KGgoAAAANSUhEUgAAAO0AAADBCAYAAAAjIzfCAAABWWlDQ1BJQ0MgUHJvZmlsZQAAKJFjYGDiSCwoyGFhYGDIzSspCnJ3UoiIjFJgf87AzSDKIMbAy2CWmFxc4BgQ4ANUwgCjUcG3awyMIPqyLsgskWb9urrFSxZY/rtz1ezc/LuY6lEAV0pqcTKQ/gPEBskFRSUMDIw6QHZAeUkBiF0DZIsUAR0FZE8AsdMh7CUgdhKEvQOsJiTIGcg+A2QLJGckpgDZd4BsnSQk8XQkdm5OaTLUDSDX86TmhQaDzAFiGQZfhkwGBSCZz5AHZJUA6SIc6k3A6p2BKgoYKhmKgKrTGTKAOhQYHIEiBQw5DKlAtifQnGQGPQYdINuIwQCIjUHhjB5+CLEsYLiZ/WBgYGZEiKWVMjDs6WFg4N+AEFNtAToFGEYHagoSixLhocr4jaU4zdgIwubezsDAOu3//8/hDAzsmgwMf6////97+///f5cBzb8F1PsNABtIZlDj14fSAAAAVmVYSWZNTQAqAAAACAABh2kABAAAAAEAAAAaAAAAAAADkoYABwAAABIAAABEoAIABAAAAAEAAADtoAMABAAAAAEAAADBAAAAAEFTQ0lJAAAAU2NyZWVuc2hvdAjAAW0AAAHWaVRYdFhNTDpjb20uYWRvYmUueG1wAAAAAAA8eDp4bXBtZXRhIHhtbG5zOng9ImFkb2JlOm5zOm1ldGEvIiB4OnhtcHRrPSJYTVAgQ29yZSA2LjAuMCI+CiAgIDxyZGY6UkRGIHhtbG5zOnJkZj0iaHR0cDovL3d3dy53My5vcmcvMTk5OS8wMi8yMi1yZGYtc3ludGF4LW5zIyI+CiAgICAgIDxyZGY6RGVzY3JpcHRpb24gcmRmOmFib3V0PSIiCiAgICAgICAgICAgIHhtbG5zOmV4aWY9Imh0dHA6Ly9ucy5hZG9iZS5jb20vZXhpZi8xLjAvIj4KICAgICAgICAgPGV4aWY6UGl4ZWxZRGltZW5zaW9uPjE5MzwvZXhpZjpQaXhlbFlEaW1lbnNpb24+CiAgICAgICAgIDxleGlmOlBpeGVsWERpbWVuc2lvbj4yMzc8L2V4aWY6UGl4ZWxYRGltZW5zaW9uPgogICAgICAgICA8ZXhpZjpVc2VyQ29tbWVudD5TY3JlZW5zaG90PC9leGlmOlVzZXJDb21tZW50PgogICAgICA8L3JkZjpEZXNjcmlwdGlvbj4KICAgPC9yZGY6UkRGPgo8L3g6eG1wbWV0YT4KQApIVwAAQABJREFUeAHM3We0b1dVN/5f7j2BEFLoXTmhKL0KCAS4hGIkUUo0NIEgChk+yvN3WIbDd77whTiGQ4PiUBSUIggIooKIoBdpSld6CVx6CyolkHaT//qsc7/nzruyf+3cc8Mzx9hn7dXmmmu2Ndfa++zfcXe/+92vuuKKK2auiy++ePa///u/PZ0dgquuuqrf7dmzZ3b88cf3S7vjjjtudu1rX3t2ySWXzNImfZJe5zrXmV166aXJrpze+ta3nt3kJjfpuOE/ePDgNl2XX355zy9Chp6NjY3Zta51rdl3v/vd2f3ud7/Zb/3Wb80e+tCHzl7/+tfPnvOc58z+8z//s9fBY2417Zny58orryy52ewOd7jD7OSTT55961vf6ny76KKL+jyNa8xvf/vbR7Qf+TPmTz311I4Lfy+77LJteoJE+yan2aMe9ajZxz72sdnrXve6Pt6JJ564PYe0lZ522mmdPnSRFdniwzhu+pDlIlBvvuQA3ymnnDJ79KMfPXv6058+u9Od7tRl9cEPfnB2wQUXzF75ylf2+RtrHt7Nzc3Z9773vdmXv/zluW2W0TPWkxE54qX7b37zm10/tcPT0BOa5Fflh3b06Va3utXs61//+tV4HtzGmodTXQCdVadCU+qXpRtjg717945F2/ko9wMf+MDZfe9739n1rne9bkyUlAEz0hNOOGH2la98ZfbP//zPs8997nOduPTbRrSDGwrNICiOaxFkPO1ufvObz37qp35qdvvb3372H//xH7OXv/zls4985CPdIRDETgCTq3DwTJnxKMgyqP0pGT4yBEo8Bca6173uNdu3b9+M09L+q1/96tWUZ6ovmvSp9E61W1RGwRgZum94wxvO7nKXu8we9KAHdYO98Y1vPHv3u989e+ELXzj7l3/5l+58tHMda4ic6R5ngs7/+Z//md30pjed3fGOd5zd5ja3mf3QD/1Qd3Df+c53Zu9///tnH/7whzvfdsqTKT5ynuYbHbVQhbZqnGShfy59tEP7OrCttesw+uEPf/js/PPP78z5xje+Mfva177WjRXxDJfyMQgrAsPdDSAYk7byTikERqRcW8xiCPe///1nP/IjPzK70Y1u1JXrne98Z8fBuehDeEcLjNZ8CYvRho55eAk3SsOpnHXWWZ2Wv/u7v5tZHSlYhVvc4hazH/3RH53d4AY3mH32s5+tVf1+2XjrzhE+vKlgXhzMPe95z9kTn/jE7kBEQxdeeOHsbW972+wNb3jD7DOf+czSuVec695nnjGIpJT+ute97uwHfuAHZj/4gz84e8ADHtDp5KgZL37SUVHW3/7t387e+973dlnRVQuBVXlqzqFPnbGkoSF1UrwRzQA8go8tABGOMQLaxZBDf+qWpRm7G+0ooDEfZIyGghpUSkkZCMZUYCxPecpT+mpgAmO4WNuuek/RGca8iWZC8LlnlJT8jBYSWxnQwGCFtOrAKqtib7jkD9rwAl/wrtIy1RXvYkicyWMf+9juSCi/7Qk8dZ5C0Fve8pazD33oQ7M3vvGNfdWDl2JYAadgngyn2tayKdrDT3Q85CEP6U6GwX7hC1+YveMd7+gG+6UvfakbDl7g8W7CMp7artgS7GuRyOmnn94jAMajH/6cdNJJnbaf/umf7nor1H/Pe94z++IXvzjJv2XjjXMzZ5cVfrOF/vRORAIsapF1+n3+85/v5eoY8VifdvPSI4x2FFjNmwhl4jnsq970pjf1fRZlMnmrAfjv//7vziSGzGCEooyDwQcQWpUy5TU1dr30WcTMik/b7GXv37wuw0CHCIATiUDNJ6EVwXIK+qHXvTrpqIToqJexIzjGq24RGBcQLofCyX38Yx/v9FEy9S50o8fqdrvb3a7PAS3GskrEiVbe1nGtPuaybvhlPhxLUnjueY97zs4++6zZIx75yL6HRReDfclLXjL7wAc+0IdFM/rG+Vc9qvStcw8nPpGfcfDu3ve+dw9/RSHCdPv+m93sZr1eREJ25EHe1z/1ep1n55xzTo+8rLj235/61Kd6+Xg2U+cw0p+VE9/RIiVHTsG2AS1ohZMzQxPD1E76+RZ9fvwTn+iR3xdb/adbtKIdiM4v4s0RRqthVYAQHqIRCOxhMIXBCkkQ9cM//MP9oCcehmKd0pjFq40MgQ+uamgd8ZI/iyYUfDEgToSyU3yGYD/7pWa0mEmQLowmcHsfgrUaf/rTn57t37+/zy/Knvnjx9Q9sjMuvPNAXzhcjAJvrBDgIx/9yIwH5igCZIGfeIvH2qMTP6MsaTumkZ1yY8FVy8b2yWtjLpmH/bMzDCHxI5vBkqsVwpnFi170om64FDF9oiPhU/AeTQo3vAwW2FLY9jz5yU/uhooneIN32vz7v//77O1vf3sP3bVX//hzz509pK3E2olQGAlnQ48z59CuzwiZjxQvs/DQp+tf//qzu971rrOf+ImfmN32trftuG0bLGZxmhwfOrS/bzsY5fw++tGP9i3F3//9388c5LnwnbxCC9oydmjaiCBVjJVpNKaUy/4FECrPwkgIz6kiwToQsLIhPAdII56d5ENjnUyECp8JY+hmC1OEchhllX3LW97SPRqh8sD2PkJ43hHTr3udFmpeekk/HXR48fznP78L3VysKhVCQ8ow2LiuVUB7eK0WVgdKmC1EDpkoIAGKWG7cHI9QlJDxVV11riM9Yx5/tB/L59GaeZDpPe5xj9mznvWsfvBI4fCC07ZKMQ77Ras+WqNo8Fb5zBtn3XJy47ycUVgxhcJ0z7wOXn5FP2SyxbB3/a//+q/ZgQMHujNBtwXm7m0u+Es/qnGYLx7BU+0h9CkPT6Quxu802WrPWMmQrr3qVa/qUSinkKiArPGI4Ur14QDx1kXfXvayl/UDXKfTZBWZoSE0hZ7tg6gUrJJiAqSIZ6gUiXH+27/92+wnf/Inex08QmXEU846cBR0lbGm2lRcqU8ZBhOIMTEDjej4+Mc/3plIaKIDKyxaMZoTAvpY+Txa4YWdgse7Z5ykxjMWyNh4QrGqQaW9tArCPT46LIHH6gkovjxBK7NPumlTVAd6QjkwD3+vnPgDnyt0jk1qXZQSnyjUeeed1x+Z4RM5c9ZOia0KIhEOeTTYir/yqZavc48nVkdKb5vA0T7mMY/pBpDtmC2b1f8f/uEfuvEK07UnU4sHQw3fzO3EZjzmSg7V2VReVBqVB5yJMFJnEc94xjP6dgEvcoruoIveGF+5rZex2Qo6/umf/qkvJHhrhXZWIJqykLAXOhSapvjXjRZBuUxkHkToWfKTNwivd6973qsTpT/iXJiCsSMYz+QJHGg3D8IwKc+efMY3wdynToppaOBxwwS0Ys4v/dIvda/LK9uf85z7WvhEEEJSexPPcikn46rGW8cIXrRH4Y05gvm5zNkcCFH4TqEcPjFKoTxPy1AZLJqEgVZbJ8v/+I//2BUgBm6MOv445pgP3eFVrVcm4oAbfU5gRU1WNQarHg/++I//ePba1762h8iUX1s8pZAcDSNWpg/QZxwPH0KLdKyvdLmHn/FxtE976lNnD24RFCOmOxwZ+ZKTg0ZhKVrQAa9QnrxtgbrxtBX5iisPzk5sukGPXSIXfAwtoa3SkTpl8DFWjoOs3/e+93XZiOaMjw94gw46iA5zRpPLomVPLUqA63qnnDq7z33u06MDBj+C/pWmHa20mOiFBeEBoimb57aP/LFHdsZgJkX3aIjBWoX1obCI9lhDqEe49pvqVoFK+Lz22rgYENoYBEZ88pOf7EzEJGEz+hirsEQ94TpRRDvDdTrKeLWbUqrKSONNtRlpDP2UxGrv2SsP+yd/8ifbzw8JGc2AsVqJGTIeCq2qU13VYOMw5rUP7erh5/mFfA9+8IN75IEWkYoVwnNO9MCpHwUNL/COEQByzXx7wVH8oTN4QS4MlkyspE7SPXf3/NV4HITx0SQP6Kbn9KIu+oaH1z7+Wv0RkHmAzN/9PFmG7+pFIGeccUZ3cPajtgr2xp6dZ1ujnQufQNKUodEc0Hnx977b7cZ+GL1sJlFB7zz82d7TDuULs5A//vGP74JFDEYZjDfEgBhtjIPyI5J3NCneUSgtlBFS2CeFKVMDm+gqEKWDy3g8HUZaMYV29mgPe9jD+iMLqwoa/vVf/7UL0hy0ySp2alMMBhRAQ4S7Kj3pO6acF+dBkSjkJ9pJIgXiKACnxlNbWRgQZbMvz2qmzTwDVEcmoVGa+yjO2FeeMpu7VARg62B1slf8+jcumlHOv/7rv+6RAYfjwh+4o2CcjciBA6QDuwUiD3tAssM7+DkQ+0chsTI6hH5yl6LLooLHdJXOZtFgLFZE8jYHfAX4gxfh10h/5E9X7J3tm0VAQuBEYhYgc9fWFV4HpxQdFhSOmK4a1577zne+cw+7Ga2y8BUdGdv9akuclgUwBRKKxSDlEYJAA2KEiV1r4/iudNrVQYUC9iYxZA/mV4FMfFlbE8Y8wsBMQuJQeEjemiEwZiEphnMmcDMgDBe+HGxzMR99hakjmM+q9KQvugC6jCnPQzPSlMNrXEp25plndv5yLPaSeKqf+srPZXSoN5Z+gdpfmbmbK/z29XjEYD/3hc/P/uiP/qg/i3Wynj3lg9v2QYhJ7uaTuXCQTm49U7Y/W0Zb6FmUcl62KxwtGoWjL33pS2dvfvObOx84NUDm5OypAPotGmSeRcMc8RBtziw4GDpI5pU3Iy2jrB3AiRQZfvas5h+eZs5JKz7tsqA4XPxqOzfxnBlwTgwX7mqwtb/7HRmtVcFhBMXCUKts93J7N/o9JmqDEfY2DMQqYhK8GyMmAJ7TmyqMdmQaBkxdiA5z3FdIOVzG4sWkN2iOxUrF8zpAAAQVZdPPCmOliAOK8VICjigwJYjUrZIai5eFnxJxCPBTOAogGnA44RGLU0Y0vetd7+pKxqDwNvPLeJl38mOK5tCt79iejKJMIgBe38pFwclHRMJYGMKzn/3svurd+IY3GoeZ3fXOd5md/aizZi992V/Nnve853WjTSh7tcZrFJCZ/R9+4RFe2VrgHZ7gJ1kai+I7BzAP77DbxwLOOzL2fJnRwqWMgYQ/88jCM1GisfCEswX6wxPAt0D4XHFHz/U50Pbi/9voAnhtjjHg4NA3eFK2I6M1oEn/5V/+Zd/rnNuegRH8tduFKPvH/e1ZJ8+MmfZlDOiUk0+ZnXTySd14hAZC46mNd4jbaYqxBEG46Drl0EqJNnQAjMilDNMYqD2mPCNHv1WQQoOkPXMUf4zFORA+Z/bMZz6z7/8pGGdmpaB06HG4gZ+MRgRjbqAKsirFqmTV/hSaQuKX8a209n3oRBNFsmIJmznaKYOt4zq82tzc7C/hhN+1ft17+2kn+cJ1dDJG+1S8CH7zserjEd5xbnSPETFsBu7+Y20Vs1LiJ3lqAyo/Rn7WOvf2oYwVuB/b94olfzggY+9tNNBLcznlpJM77caIcZsfXa407Mho0WMldRDAC1sZnDYi3v7suc99bt9raEPwGZAX9JxNuCIEFfLl0GXRHOHNtaiduoQVGIIxxjMuwAiCFfYFn1Rbiil0ZrQONnhjeyc4MFS7Csnv1JCFRk47RStWVWMwEAZk5WWwBGZFFsbjYRS00jF1X+cWOqfa1TLjMAhKj469x290xXT/hCc8ocuMMYuSlgFHSamNHdkv67Oo3v7RyTljFC0F6JYFxHicoIhOyJt/XGDcQmRGS04M+Z/b4aOFAo/pAhyrQOayKj8X4YxuciJ7m6NEO7x4bn50uC4wI64dGW28F4W2EjFO94CCfbIdNFFKAo6QEYJB6g+0sADhlATj4NstiJLECxufUAkNI+wnLrti679etHURoMOKn//5n++rjVPlr7U58aKZV6VPH0yON6x1i+61j9CFV97SoohW224ozUgdbthC2Nt48UIffNupc1hET+ooNRkw3INXHOwy5djIh8Oj/OhAA57s3diKPNJ/TMmYXnDIWZHGNuvkObL3vPs9/VDJM3T5rHDwO/VnsJytPbU8/RIma3dGO+k1R5GT/aJVG0QWIy3RoVpe2xoTXuCe0a0D8NPD8JQNJNq5qvE5C09knnzG2JHRGoQyG9w+B+HHt/0suFYj5l1NGZUBqxXiwoik6mKslSHKtanXWD/mg1N57q1KVnNG6wTRq3hCIgaKNkZNkJhHETyewiSHG05JhVHy2k1BHWuqXlmlM/OBD14X5+ACDBNdlMG+9rd/+7d7G6GcgxO0jsLrHXfhD5qExtILP31h5xGvD/AM7QwYRK7KGKdoCY+twnjJgb/4xS/uz0312S2a0WU79ta3vrXT2ok59MfbaxU4QSswngn3OURyf28zZv1BjIZuVjCvebJVB2Kwua9y7g2W/GE7HLNVFd8ZPTo5k7e1QzxAP+Cd4t+OjNZEKZmJI6CHck3IvDNDUUeQJplBM+El8znqauMQlhWLQfzYj/1YPyxz4ggoJtp4ZqHpvn37Zue1N1Ps1xjHa17zmu6tCRnANwolZevOydgBPIzC5HSaMzSW1c1hEP7WsdcdL2MtS9EVJaFMwlHbBDxhAORp5UKvJwIMGl1WYNsPxmlltVrYMjnvcA+nfrsBTqLRZiVdBtly4Z/L/BjxZ1qEZxFBr7mgbYqnU2XmG3ktG39ZPVyM1ILnkM0CAzed5AgB3qFjaswdGS1kvI3BeTH7IPC1i77eT9WyCjPYKQb0xmv8MQ6Q5n5ed5MkKGGQZ4v22pjjAIUi8Wxop3C/+Iu/2Pc5VmJG7dGGZ8cxrkW0h46k8+jZSblnoE4SDzQl83peYBE9abOTFM/wBTA+e22hspcrRCGeDpgn5fI20eWXbP1PKMUia4eKQlJ7xXe/692d9wmNp5RuJzQyOhc6694eT9BRxxHBoZlBuPRh8KICDtLKNs9g59EWI6pjz2u7rBxv0EcvOeqNPVsvAtFL+26A35F30uDdkdHWCRMahhnQIcBnm6eQZ7CVkRnwWKdZ2Y3jUMwpsNNrj6YInUFTSKstxglR9reTbiGxB/ZWlQjoWNMa/OjiKCgEPtqDE5RogTFcExBHRVk4PJGGVwPx0NbC89m8J22lsj9krOBv/uZv+jNLKyz6s9LtltM2hjHxhHyWASP1+CcvgYi8nCFkFav6uwzXsarnPDy2shXiCOmlxQ/d0b959rMjo8U8wsUc4bB9DoUzGEFJ1WXPeqwmHrzxSugyUas/w7RqCHcd9hCgw50KPC+Dfdvb3zp7R9tLXH75pbOTTjlxdvF32sHYEYfFR2QqioX36AHoA2Men4A0zo9yEpw8A7CnBOnbM8OfsU5+6qpKEJqCSvuUSYVq9qdSj52s/Jubm33lwlsO2j9aiF4cOpK1++CAl3HsBsAZY3Vf5wF/+Jix6CKn7CCKMaDLftGjM3hGfqWfFP559Zlb0tpv3fs4NDIWKuOz85QPtddEl8GOjBaTME7KYE2SkhEsz2FSPPfRTC6MWxeHfoQEeHxGac/Nq9mf7Wm07WlC9YzUSwueFX/xi59vSvjV2Z7GjeMu3ZmBLmP0OvUUS9iElxyOaGGnsA7/wnNj6SdPmVzyIgByRh8ep706FwPJig1HrZe/piAHpRygi666GAr61z3tPRZ0xzGHFtsz27kPt3MVEHrd4y0IP3dktOksZRj2C+4J1QEKT2fQrL7u14EQGWVYpW/6hLb0cfDgP1MYLq/m4mgIUx+rgRWWwV7ZzokubY+DwHGLn2oE/VbbQ0yVGb3+EQ1XzDAKtBEsuteFdfm9CD86yDVglY1himgAepVJV4FKH34xpt2E7FnR43J4lvucv6wy3jydWqXvojbCdWcq5IsuZwG2QV4iYUscyyLYsdEKfzHfqZ4wShjHSHk5AjSwPCPZCcT4MC73q+DRPs4i7Skd5qDXaqsN5RPSUZq9G1tvScVg029RiqbdMNCpMS5s+0Un2YQopDsaiOLBYf41vypejjl8xVuyN/8Ywqp4VmkH705orLjJ1raNAbhEgKE1jqa2v6bv2YRIxaGny7lB7IhTQX91bCN9KxntaDRhqgMU4NTViuXfp/a3cJRgeU9ljDf9pwhJWdqEwCo8kwCcgUnlhC1txzQ4kxIggJOD2Ybj2t5vThDQy0UltqV7thpl9b3ssktnJ1znWi3Mbv9Du6FRq28drrzKinGwreLHt384aP+3efnWnnZqbq3htmDCz6QfbyfGv/7rv975lz3tIueXfnAC41X+4VkOh1LfGx76o79rkRPCSzKNXLVVxoBHSJ36zD1p2oZmbbPSpk3StK1p+tWyqXu66bku/sHvMZZ9rgO24FhnnK2I7PLed1G/KVrG9sb3xp1n8BXwyzhj+9rG/dU53gpH4U3lM3FInHL+4R/+YT+kcPIoPEl9+kpdKdcPpB7BFUK49oxVOIv5ywwWDn2rwgRvcCbfUPewuO9zj2v/XLB3y8g6joNb9FzZcLVguRnkIQNsxcc3Rc08vEE0wmWN8RXMsSp3+qZNnFLoE9JH2cx9bD/mw8Pgq6k6ihD+cqiBsd+IN+2k2gZH+s1rr16dsTKn9E1aced+xDfmM27Sef2MwTg9DfCfOPQmh2b61v6hJ3TCmXFTZjtlv54r9Rl/Xjq2qzpQx0n/kV+hLfWhpxttkCdNZRrXzuooUgVK55U8nsyyL0TWR9v01Ud+xF3xjPfocZksxpuU/YBQZxFoRzAZO23Hsa+8qilzo+ngwTYnG9oKzaAZ9dbq2kLhltnTDbsduAj92yb4yoOXdFqO6422jPe4Nq63wjJWX32vOvxmlfLwOcONeXTHkEUqjO5oQP8YP+eXVTsygjv0Hs046TvOJ+VJp3iQOmloSZq6UZ4pH1NzBFZbL2MIiTl7vGSAOagc+4XujCtPj/BLqr/71I/9x/zYbpVVdMQxld8YCdXIvm8eICTMS4oR9oeM1eRcFTJGLcv9OLGxXF/MIgCezltMy5TY+PqNuMd8a3IEHLfn8EpbK6668siGG8f7l7+tFle0lfb4Q6/8BX/ecLJCgy2jliZ/GJ8+ubYwbr0mF+8eHqduKh35XdvU/pwZHtZ9XcYO7bXveF9xqVs0rvpxvsmry3gjTnX0L/VJlQPtl42rjX7maUz5zJvxesQC1AWX+9DnUaH+GZv+cQQuOm7hWAWCr7YN3uCudWlfaan16XNEeKyx/8BBnAlb4Xj8LOsZMEyRz0BBbkUcYWyzrF77jKUtxmK61ULo7UNnVj50UcQRRrrmjt/2tBX2DPnUXXnVYSNTdrDRwYk0EmYnn9KeCV/SPrNyeTvoaiH1qe17P6de79S+97Yaiwr2HnovW1+01bRnyh+0hl58do2Q+pRP5XPwkjZSPORQ8oZTFDY01bbjfZVH6sZxx/IRb/LkmL2l+ZFh9MYLHA4OEw1wXqkb8U/lq26qR2N0xPgOpZS5Mie8kjeWbQmdz2qMR3DGDrxiGnsInqTaJqIMbaGh5te9hxcPOA/nMxtRChMIgQamlIjLxOrgIVIKIMylDB5XIO2SH9Nabzw05UpeH/eY57/9eTz01XGCV7uKs96nTcfXDo2uupJH3cJ9VT9Iqi227o807fZ2zrW2/qWLkR68IoctW7y4vL1/zYgZSOPx2oD2zBlP0b6Mn+P8RCL4l76IcK8s5w1wp80qRIau2nYcN3XKUzeVRrHVwWt+yqTyjIx8gftxOxScdTz3KZfmUg5n9FPeOGkrT4/kpeS2DLQLBA/8iQCXySt910nxwVjG6N+IysBJCZanQxzrRhBI/ZgSfhWqfIW0r2X1fqwPLimIckkRLRTnFROOV1zu9as4631tuycLaIS8Ynh8+XG+Ft9OhxtfrnJq3Ax/797mDa/cM7vksvYLAd/a4seJJ269k71372F+ZE5JKz25R6/6tFnGz3F+MQqCJkPycy8VHpKvcu0yVsael1Z60mYcdywf68d8jDXl5okmq3AMQ9kyI0h/44dnSZWpr/TXOvVVv/GmQsWd8rRPHo25UiZN36S1bp17uPGD7jukPOwyChaMSziQCadavl4pTxrmVMYsI3pZPSbBFyEndKKIOXTI+OukjdUNb+thpW2GNzvusHFVPOOeds9eq1YxqrZC723Pf/buOTj7ZnMolxz3ve6xeW372T7GIYThS9I6TviQNHVpm3Ssr3ltCBkoJ2xleEfoZMtwOb0YbvBmvKlUm7FdHbf2GcvHfmSWNknRQs5WVfdkC9CsTTWU9MmYNR86pSmvaa1PfzwB0tynTvvwM2UWDVDxJq89SJryXrjDP+Ye3ffobiMHSAiLcYSpvI7nmvYY2YwjdJxYpSXE1okacBFk8mkDB6EZP2FS6rRFizr0OhSggMCY+moToaff4nSL0bO+d51i+uHe8F988dZvvRon822D9kY+03J5e6vqkhapOEU+pe1xL7308Gl3+LLd7zDqbSWYx6/0HetH/gWlMThf9eENg7BvgyNlaT8v5XzInEHps66jHOfK6Yam8JC84KaPZFpXPIZboc43uJWlXFnK9Uu5++i4++hIyjKOfWP6oMlFx+DM/lf/jKG+QvqmbKxP+aopWZFj3jxsMtzycCFOSkAmEKJ4ZoLDSAYzKs3U4Omrrt5PtR3LMDGGmP1M6AuDY9ShVz5CwDTtAiMTU344Pbwy9bJDBtjvm6CAOWxdlKAXbf9p6tIaNOEeaiu9+Lv+xWqr4cbG4c1teJF0G4nWhxBP1WmX8qS1b71XDxfe4AO+uA9QgDhrbenAPFAfGZC7tnBVGtzXfOYRnLVOGTzKQhN9g1e5sbIopN+YjvizhdMPTvPNGMar/fVVpx0+4M8iJxQatQtd4/jwZwzjTdUr3ykEX3R6I3tXBbmyioUY5fFCJhjjmCIik1w0ibEfJlaAvxqtfGiTYnb68IrKIihpaAjOtE3+6umWQjO2TndLgWTbQA/dYOB1Ttha2YNnz/bmeKvEI9+r2v744u96E8unRbaeG6a9dKRR2XI6tbo6RKipocSVZylPSpYccWQ09k87aXTAvXaVxtRJzWcevpTDATyZiAFslWzxA830MW+w1brcSysN8kJGZZl3XaXVj7xWbxFy6ZftlraBypPccyjRw7STjvhH+sb62neVe/jQQO/BBgYJQUOMAYRPVUAZVOfqCVcZcCdtPJIIRLhoQKM0joaQeeisBLVt+q+T5jXF9Nnb9q4VvFwBrt2MosIe/21wCLxcAbwGeWU33PbJ04OHP7EZBU56qFtPohxJa5379BnrRyXx2A4v0n7Eg29WWm0oOgNeBBwoRQ++ujKTh/LUwTPSV+vUC39rWfRLHfCctAJ8wWmudb7KzQc+TzzMacQ31d98arvgN269Dx3a0j8Oz0HZCOMYtb6OU8vXubdY0nvy2vCfBjIhKAaACcpAJpHBk1dXmS8fwNgIVz+XvL7wBrf2FZ+8Z4m8MdyYpK/20qz4hFNxBI8+8M2jSztQx9QWU9DMm6VvOyDegkPPb1uA1PN+wtPBk3/vc1p8QnsEBHyUywU4AIbbjtBakHzY+ENbHb93WOHPVB+04kNohoaRWUX8z6sUmBv+ATKGCy9dU3h7w0N/1MPPmfpXQS8n2F/lEz7qF+EY6yqtdKIamrqxPTKUuzKH0Je2wQmf+7wAwTlR9KxS+gVHNf7gm0qDOzq4qJ+2ozxC4xTuVcs4GXjIa4NxmITJAUKOYayCcIogOFwMQSp8wTiToTAmln5Jx7EwhgD0y4Pu0De23Uk+NPDSxjJnZfL44X4eeLnihOue0Ofn0Y95Af0Otme344o9D8+xLMe7zCX0hcZ1xyUDcvNP5T4ze9ppp/XXVkVp/gGeQq0LU3JfxHP4xz7y6YNGgE5OJUbq1Vp00kV8CC9GXL3zgj/6ZYwFza6Rqg1G5b9AKNw6xoq6TJzSu5Ln5eATZvOiICfQ4xj6aVuBIODCJHUJexLSZJzaZ+o+7ZLWsSJswkCjsdCtbf2PmCm85pD2lOS739sKf69suC67rD37PHKLPoVi18syR4jd2/KQLYVlwCOP1yFAJAaX71v7ZpS3gjhSK7o6fK0Q3tayVe7Tr85l7KfOfKQZl5HSDRdHRSboAtox3OSjA5UfGXdqrJRps4iutLsm0g0TxASGS3kzuUWDj5PkxSoQqssH0/xT/ObmZn905J8KhFQ+8wLgCRNrfwzFIAKIcXAAoW0V5qWN1BgRcDxtHc+9f0oW/vHQvp8LQl8LzHo+fw76ps+1Npr3bvuL9r+4V7S3oIB/x1sF0DTyUD/lUabQvwifOc2bjzo41ONjYGrc1NW00kg3GK1P9tzoBjfsPArenTqEyKOOOe8+NIc/dKKC/0UFXoH0Uyp+wTEHmXTGx/H8HpL/TVYeHlcci+4ji6SL2qoLvcva7bS+r7SMFUH2kia56qBWT6uSldAqhWlCqDPax6Htlb3nqY3Uh7X8iJJ/7PbbnPv37+/7IuOOAjR+LsqREB6za6g8xURlBKN/Vmb9eFtlnNTUeGh7bPu9Uf9W9+pXv7r/W5e5dQEP7x43dzK77FIHHrO2op3Y5t5WW9uLqxhH4+XsyJVnSjgUjzGhF//N0zUF6PWzHL6OaJX3qw7+5cz8zEm9NACvdoxNebY+qa9tlU3xEU6Gav4OXs4///wu1+Pam1+fuXDrVw+9nWOszqMgL/jGcZLn5BO+jn2hSbuCst8aC6/omzZ+JsSv6d2lffurKXL/RwN77vyKBR7b1ztoI38/SXmgfeESnkDGko58SJ229T59V03ZgoiHXrIHYB5kZP7GJSO6CUY6emH5c/jY81BhnVBpd8QtpCbh8olKv8ztxNIX8SmXcIUCEgxCrLC84Q3bp1N4Qh/Z8t/6DjMox6iswV0ZxaNTIunY/gjiWgZ9BItJ6KPs+vpfX/98PEYGPrPqa433aR4aU7/caPVdJoxluCMTxzzlIAAwpYS94tCf1Edpzd9lLAD3aAhoFwlQUA4MTx2CUUbOkvFWGOmrfKz3tU/u9Q09aDI3MuXURE/G9qE30QhFXIYveHcjRZfvZu3bt68vCuiyqlos4qA4dfeMAH9Eevhz1lln9a8x0j2ygiuyWEZb+KnPMtA27dNWPzKkk+iil/gYmZOhPPB5IXaxCK5mtIsap85+KaHqbdunNe1zrKantQMKBotxMRDG6Z/kEeqHmW7dQuWzzz579vftMxsmVxU++MeUYjBWyrwKs/MIw7/x+S2Xpz3taR3lS9vPI/oZRmNWYAwMl1KuKsjaP0KgDOiMMGqb3Id+oTgF9G9oViyfJMU3wp3qj7+2G3hvhTEmiCKNipLxpOa0qnFpFxo4CErkm9EuDu0tLULa3y6fw6FceBkaMuaqPFxEc3BJ4UcXvD7l6idc/PaSVRUORumf3EVxfvuYHOiAPg7OfCbX6qtvHm/CGzrDm6TqwEjfmN9qdfhv+CDVNnl8IuvbNH28SZOjOgtPDNfqL5rxqMs2cBnsyGjranyrQ3tWg/qBX56MAto/MFani8AqTMAYjcm3bum7moIq44EWQZTYuFGoRe0pl5XpcY97XP/xKGNaXa0QBFPph4dBuDgiPxvxzvYZEErAK666spsHZYnHrPRRDniiJOqsAH5t/fTTT+88+/3f//3u6EbF0dZcKBzFs7q54sCmxtPnaACd5sNgOQiRFIcm6nhV+8axVXbqWeU4JlnNo2+ZAVRc8OAtPWCAZBWDRQtH7ONoLhGIKIYsOR269oxnPKPLnVOUxztGw6iWRW2hA70u8hlllLlEvhxDBR8lf+hDHzp79KMfPbvb3e7W+WguNRL9cPt0qk+osp3gmzdO/yf4EBQPkU514HqflUyZPcMLX/jCvmf9Qvt49cXNwzFCn93EJKsvJluN/bo4g+JZ4oV4lkw2Y4QxY6oebVOTgcMqb2zhkdCJ0VL4hCWUjvGGqVa7fS3U8jFuKx4jpQBCaH0oymjgobGmBK8dw4RjCqqRxan8+I//eF/heVj7aAd0lNy4jCZK9fSnP73zj8L51pFvC+kTeYWXGTfyTDrWp928FH8pvK3Mz/zMz8z8CDjevexlL+srbByx+YI4VePEqZrjPCc2b9x55fBGRywKGd+9X0Pwa+z0CH/wj3wZbYwd7YzbSrwORM/w0Vwz3xFHdI++u2cfdMtChYfOeRiuSMkH4G29LAp47Fvcth6iPQ7pL/7iL7oemHPGNx4aAjtaaYVmiOPxrah+Nf0zzUMwYBMjRAzjpe057CnPOeecbhgOpF772tf2gxTtEFYJCmHz0jqRtDEWr5W9AKP1WzTZgzFA3wuyt9YOcwk1HhAzle9vYZ/vIGffg65VPTFatB/nE2VTH6FbMXle4Ttlw0M0UbisEARPiI94xCO6hzYfAveTj76UzznAvYpTWYe/6CQXPDn7rLP7XpAx4N8rXvGK/qlP/DQXimV8hzzGQA9D5RhjyPAdLVQemvtLXvKSrl9WVSsTvdPG3pCzA5ttG5atEWP1u05OkfEXfdq7pvRppDdtwsfka7vIg+4Z229IiVAc7pLtJxoN+CeS88sM9A0+7X/zN3+zH/L5EThOmV3Bh4d0IuNmvJWMduyEMZTZwA6YMC9CIjRexuHAmWee2fexTpMxys9GED7PyHhjbCN++XohtgpubE95AlZbPxwl7KRMGIDGl7/85duPcuDy+MIHzNGJMfk9GoI1h1UFmnGTzqMNTisAIfK8nBlaGawfrUKjvlYogF88tdCOwVI2/KOA2uL96I1DQ01HemrdvHtKx6k84IEP6EYgArC1cE7BmcRg8YjcQwt5MmIpegGlZOQ7hcxRajyn5lZOjiQRH16hgRzRQ/+cn+Adx/hXf/VXs/3NIdNT/A1tU8Y3j87Kx3qvvTx7sEiQrUMvC4K8SMBnUkVGZI2GRGPsiA6YFxA6+7Fs8xAu0xnzGelcyWg7xvKHEDCR8BDLAPx6OQYBHk9I5XBH2InBDjDsFa2yvGXCu6AdCUt50tQnTbkUDQSHJqvTvhbyYpq2Ju63ZoRHmBEm2RMJSYQnfu0PQz1KoaDwHA2MNFJkzCdcSiwCQR+H4kCHEzM+QB/+anO/+92vp4TqA2UUwDlBNYIIXF/3xs5lvFHBtFsGnAv+2Nb410y0k5lIphosPHhl68MZUVJGIXwXAuoTow0tld5ldNR68qVH5kbpXcrol1ATeILhM750T4TCcN/Ztjp4S9/oCTAfMMqpF+7gDzxocTjmN47pPaPjLBgs2cVRkC86E0J7YYWxshkRLLoZtkXEAWXmXcmaa7QRNqFgdFVkkzaIwxRhFOW/ext4s+1f9SN0wjNgfnX9A43w3/3d3+2Mw3z9o8gMaxHAiTFJx7b6MwzjPqY9a+XpeDF9OAm/DE7ZKB2Fd5L31Kc+tZ+I2nuj48/+7M/66m+fYb7K4IXD3K0e8uGFMpdxowzoUlbzyvTBD6EwBbfXFgVwJA4fCCghZgxDaKedR1YE7JDPXIxnblYWeF3zAC0A3+bxLvV4Z47APsxFiSjQ7/zO7/QwVL0y80Av2VuRRTWiAWE/x+jswh799a9/fT8ciqGjwf06YH6RReZhDDwA6EOL1ZcxkH34Zqvzyle9ava6172u8w0eoerRAjpGoFNPetKTenQpmrzgDy6Yve/97+tOz3NaekWX6B/ZsQGR3lOe8pS+2HFCeEvemy3SoS8H2tkPuehXYT0Otp4UAUIC5FmEIASHMMCjOXXUjrJRSITetq0cDCpexGHCER8O773n/0E4Zk0pqbEJMs+JhUcm63HTG97whu7xGRwnwvMnbDca4f9F2/z7XR+0x0iNE2a5x2htMRYd5ueKANMWznovrw1DthoRCvrMnzOxx0G7PhQPTiuFwzErnXH9GLL9OMHCpQygBU2MaBxTPnT2xgv+MCS40SVq8njHabWV0l7QSkGBrBbwimbwmnEwWA6YM6GIeKX+yU9+ci+DA+9d6A7tC8i5WtU4t7GBeTIaBzqcndVXVPKCF7ygnwGM7Xc7T6+s6lZ5UYbI6cMf+XCXJ77EUeAzx+JwlFMkZ4arnCyBPTp+kyldmNL3baM1cdcUREHVaYMIysfTiuHVBxiL1cLe8ANtJXl3Uzh54R4i9UGU39ehBIyfslYILUnVRQnd1/Hk4dGWwJwao0EbBiHkxQDMU25F4I2FJHByKBSS0urDsDzO0JZBYKiLQTMuzMVISsgQx1V1pA19+gM4bSE4joSbHBtlz3joYwzmghbjvLz9DKcwmsIbj9PUx5zVozO0TCm4dssATlsFkYBDFPisUN4iso/EYysaxaRoVlPhO4eJFq+nClMpMKXUxsGKk3h7djxQZ8XZbcAX4znspGNCcw6RntE9/J6C8GWKZ1PtUzbKGG84Cg5vf9sGMlyHY3hjznSr8+4Od5zd5a536YsXx6YusuT42JXoAA76hj46N8IRRpvKaiAUFMMzQW3kGR8DQSzFc1F2xDoB4+mcdh5oBqEvos8999y+ylFGK6C9RsWb8ddNeS/jbt56s4doJuzQ5lUtNKJ8aMQQTDqjHYpRNowXBdgj8m6M2rwJgBKgUbgnaoAfPnOhoGAdQcMNjA8nAbl4Z+Oozy/T4Sn6bnnzW8wu9/G4FtIJu05rW4/gse+237En5nQc6uH/1Io75ak7MeUPw7ey2ubYNqDRoy/GZoUnb8pldWCsVjSHfXjBQIT5fvHNPacmkmEolPjx5z6+48Ivc8Fb+7p1oerk2Bdd9oKcBZ3zcyDeNcZTY00p/ohjnfzIUxEKPSOT7EXNFd/w47zzzuuLhchUW7Knd/rgvXLy5Rydv7CL6Ks2I3SjZTgxHl4BWAExiheXmny8KuLU8xYU2arqVNPm28lmDksYgP4uobAJYaADC0YMGNQYJhtv0TUyLcp8/RtcvzOKMkXpjIGBlNumn6EwQmC1o2xWZH0wc7PtJ4RaTpWFqFYfTsDp6Z//+Z93A8Er9EnjdUNTeKkeyONDhEVp0WMMl5UNf/BQKiJhgABul0MrKxwceEjQ5CRCMS/G4jGIX15LmFX5F1wp68jLH+VWwLwVxtv/6Z/+aXdmxjQHB1MM1gsCt7rFLbtBeJnBe+TaexMJTU7FRWGMlsM74TondHkzIHOnyOuC8dGIx2QUHcUXMn3kIx45e9jDH9aNwCMx++mcsKMfv6L8dfzIDD3wrwpjW/qBB3m8aUH79re+PTvp5JO6I7HNsR0Siexvq6hTeD+y5u2osx51VneSZG87ZwGhi+Qems2/wjYHw5hUMgTKhfH72mmsUAfTHZx43uRZptcChXUIZrwEwyPzEsDKghgGTug8Cm+IKO3Uh7CMOy8dCa/tCAVQYONhKrwERDDKOQrPi4Wd5gW0hdcxu3pOyCpjv0Y5MNvPJFIOc6CgjAYYw7WIrt6w/TFPqyAQLnIalM1Y6HNYx4DxklMjsL3Ht5P5ds/gjQGHOnIhE2XH723PSjf2dt7mxFabKFVVyj74nD8cslWRseGlFdYhEudMEa3Ang7QA05W2NkPxtre7YNtxSBvK4UVOJGM+YgAOBR6sy5NlVTzwBM4YrDwk6eXP4TGnFX0z3vkZE/Oxv5aWzAuahed5ejIvfImMgyNdeyp+6l2Vsm/btsYTo3zsyiR+YXNmVn1LWQWNtERB0f/8epWP3Cr2UknXrfz2qJHv2ITlcZKx/bPgoRwlRiUPOb8xm/8RlcwRBEQZIg0iAlQIoahD4OUNzACMU3ZPe+x9eyU8ufNH2NREuOtCsYemUZRCSkP2gmFIO0N++FO+wfXzdM2Z95AoqCMBDAeDNaWwmIkmqUA0ykCr72/ecg8/uiVK/5Ba+bIIztZNAYHZswYGWGLZCgl47VH/MD7PzC76BsXdYeBbnzUXj0j5ljMFT8d8OF/HBLyouiJRFYkufMXHmMKg5/4xCfONlsEwjDI/EUvelE/K2CQgCPk1POer5DfHG2TOHm6URURnbnQOCqnugp46CIXKzi+kZuVXzRU+bKvORZREodL1+xp8QbdDhvpLWcSJ5pxQsOoW6lflIpSyNZ8rZbOeazwtot45EIjnpKbOhGfly8c5H35q1/pzhx95IsWfAnPxrG3V1oVIdxk3btMnuJaXR0exTgJkDLyKBQNMykRYSGWETFeRFqp/u//93/7XgfDhHH2oAx6VRgFWfuh0wR5MgyyL3z0T/xkDykx0Rzs2awSxkSTFPOccoLgx1jejvCkhOxZG4FYeWLQ+qwqYPRRZA7PfgVNFQgIv7yuiIfq/+AP/qDvb/AbGDcRTPqiudKQORgvkLLkp1KKLXQjE6EdA+Q0jC36YLzGQZdVWGRl1RKdCNvPedw5s9MfdHrvi6+cG77ZD9vvhsaR3ilapsrwJDrmoMlTCA6YHDlgTixjcHzkqg++igDwg5HrY5tj8WHEDDe8qs4juKZomSpjaPq7bLlcHCWdZCPsgE25V8apcNKeuhhfezrm3MQ8Ky1T422/exziTTYhhIEYnIGy74RUG/sufSiySSrHREasPeEJlxxK8CZOTRm//YbQilJQ1FUYVNsYs+ZNinJhkpCOkIRyV7R/VN9sqwOD5VAIFujr2tjTPnR+0rW7oqo70MJ7c+SVKWfeETWPhMT6E5A5xhikLowG0inljMEZ2+rICNFttbdCOc02N3vbCy64oDsJ/KeAkQ3h17lnBeUkA6lPGjrRRS5ToI0wnHwAQzyvHZ6gLasW3jgn4Lwon8OxfW1VY7i2PjkVxittrMbCQrSHN1N8maJnLEO3lcl4Xl4wHn7GgZKRlcwc3GuPRnymq/RM+sO33/ooA8fksAqdoqjwBZ3hdaUB3bmUu69gLGDBikzghI9NkI9UO+82ODjjRNBvdfUSBt7GxuCK/NyPcMRKWxsanLJjBm/r3+kiOAZLoXJhlpXXKoWZGEeYCHvmM5/ZFZ0XdwzvMYI9UQ9b5zBpJFJ+ZFRtg0EExHNyBoxXiEI45oFOxoZxMd5PXvipHk5bmXm6hE2cD2MyB2lVujqm+8qvsW5R3lwIED1W/31NGe9xt7tvh1hO3jnDGDqlC1SlSnlVNrjXpUt7PLCKCtsZrdCTnMMPzs9Kxfn6eN1mc45kDPCUsXJ0VmGrmWgKrWisNMeAM59V0jzO4fyz948c888DHonhm2iLkeADQxXhWHgYC8PfbI5cSE0vXA6uRBqVxlVommpDD13wVpnATZ+M7cnAOW3b5mzHtsZ2iU3gH5rZEXtaBNt72rERBCDvmz7iYQ/vq5ZJvv1tb5997vOf617KABQQUVYFp5/2ODmGV045bb4dZxMmY6iTGsce85WhUwqpjHIYi/Aou7BMSCy0s+G3EqBDHRoYtrYcEUFTToAujIOTsceLjjRpp034NNbPy2uPVgbBYIVJ6HPwROk8pnJoASidMeYJkSMCaJmCVWkTOXCiFAiPrPzCUHSq44wBXlI6bQC6rC5WVAdhUsp3oEUtZGYlQSO5VEAv2qS5r/Uj3cbnhI0NFxlyMkJ6ISVnIVy39WKwcXbwWHg8HcgWySGjLdG+5ii/02hnOE7BLU4APVXfKl2r3jNcODI//fCC83Bw9qB2gMbZMFYvr8Tx0DfyXgb9B7g00jiXyWIUQVJs/5LFYzmU4LFsoO0J7M+Ekxjl9JGRYA7PyAsjXPjBSF7zmtf0EABDrYrrMmYU5Dgx+OC1QhEm2iicE9rrt/S+TeCA8xB+OsV1eEAxs1Lrj3GcCmMNAzEfJO2Zo/gT/nqc5EUPAkXPi1/84h6FZCyKhIY699CUNqOS1bZps4xUc4UHPzwCEyaTr5Nj0QrFBzFWdNWDHU7GloIhhT58ZbDV6aWOrNxHB1Ie2se8dngEyA+vhJNo4CDICwSvbQSnaHypC210wmWcn/3Zn+1fKvHIzQGmOYeejuwo/oT+GC9Um22V9aaZ1R5PvPTz5je9ufMNX/WJE9Y+vHA/QjdaHVyU1kA6xLvyYPahVgX/tC10Ygje3DEIo9XWiZ7BrVhRbgYrJH7e857XmRuPG9whJu2TXzdFb8VNYRivsKcfhrXwTRQA7CF4ZoyzkoFEC1GwMH1k3Dyhap+6KE5HPOePNsI8+2/hJk8rgrHHws/Kj5GGMZ9x5wy1sDi4EmWYP5lRKDxy9kDed7rjnWZ726OlPs/2idhPf+bTPZKxzdHXaguEhRUik/Cz1k3dp13oSt4c0ST0Zqy2QIzMlmsKcjJMnyuQs3nBv9mMiMFaeZ2BwGVhslBl/PRFRy5loSv1Y3vlHB37oGMWAoejxrOQWF1FnR/56Ef6eMGzanrESqvTSJAyyu/zMITgMYqBeT4hp/0u4H21I3jGywv6dzjKSBEI1z6EUxiNtiM4yj/oDvMwzDhOEu3RKBNBCvUJn8BDgz7qtZ8H4Unwp5186lK2SkqYIhGRCz4an7FSGA7naAxxlfGXtbHiMkThJiNxT/HwCG3kyyA4l3VoDa+kuab6p134faCtpp5cAKtitgvVuU3hmTdPIfHXG7/NSWRIL8mAjtoaJVSe13+VcrjQZA62ip51O9QTleKpsB6fp3Qo8543zuETjkMtpjpQpn9v+60vthXBXtEKwTvxHgTIIOx3GK39oZcQtCN0QBGzimOOyazDZMKZMqopWo0nBNfHuDyoI34vcRNWjtVDF3rWBePm2klfc8E3hsuAKQkBcoocTpRyXdy71R5tcbDoE6VEbgyK7Dhnxsz54fO6sA7/8MWWhw7hDdm60BRHss74+n22hcuMR7gt0jFPc8N/uCtM6V6tn7rHI3xx0m0f631uY7y8bTUtHOQNL1qygEzhmSq7GrchGSEGyQgpvrxQAuN5K4OaMEFG4QiUsIWpmKBcm1WEpV29RnqW5Y2Bvqyuwimez1VhFE6tW/UenesC+jiW7L+dG3y3/XwmY9kJvkXjr+McgydhLV0gN06FnOGiaCONysxpJ/wccYWGmlL2rILCzZ0YUcVncXHgJwqkz2gIHZm79jvhXcbBj7wE4rk3up3t/F07MxCi22dzEHW89F2WbofHBoFAmgmkc1YuefUm7arAq2SSEZ4VmuCVB2fS2jf9UqZ/vVJOeCYf40NLhYwLH6cBnGYGUp98nM0UTWkjTX3SsS5zNC7l1i7e0/3YTzsh+u/93u/172vhJV5RRjLIXix8STriqXTUe3wZeZMyOEY+1L7utcVr88oqqmxZP/VodU3RWmkKvikDrO3Qgw78nBe2jmMlH77BAUK/8kSBKc880weO0CHNpX3auq/t5UF01OHsT7X/PLJ45WzowKGDMzjIOjSFZv0zbuqUgeSvttLqQPFACOqZ9kcn9TVVh6nKDEzYlYD0lRJQ2qY8YyRVbkJhTC1PHzhAJpHyeZNNedrVFK3GcI34kp+ioeIwZ4YGF2dhxQwEd/Lmpb29jdQjJ/d1DOWB0C51habU7yStY+kfJxFcqQ+flbs3v9CTtjVFW2gMjlo/dV91JbiTZq6hI+mIZxwr/ZKmffoHf9KcPqfdmKZdyoNHPmNUGhJtnnLyKbObHnq/3CNGz8EZbexL//Qb+ZB86qUu5UcYbYibpzQGAeqDVF6/ReGTNoGsQMlLKU0mLx8Ck4YudWAKx1bN4r8jHq3rPIy3DsBX+6evFWGqXH3lbR5HmDsewMexVTrgyaV/rZOfgspL9eO8ax7uSlPFV/k8b661/Tr38I106j8118y50rNorLRf1EZd+DCm6tBRoeZXDWkPfPZA/6caYbCTeI+b5vG6jlXv0VZ5hWf95YrKKB0s55l4JVadfCYpH4j3sa/N2yqpk8KXvulfx029timXToE9NQietIkSwJX71KVt0pRnrORrmrZTdNQyBscAzV1oZP7z+Ffx45kxXNrHYEfaa59179GZeaRvnnnWcvcZN7Qnr5/7RbzSBo7wJTiUz4NqhJWWyDf9Ep1UelK3KK04tdM/dIXOqf62gyPU9uwjMIWP/Bm2wzOfMXIiTTcsbF4NdR+oeFM2L81YVzNaAjU5A7iiWBAZYLyUY4526iKIMGI2qQ4AAEAASURBVEzqMqAL7tQFZ9K01cZqlXwmJu8xE6bwXoSJOeiskPYpq+OlbFE69k8+9KCPgRlXmfBKqhxteb0vIX7GCh3hRfJjfcoz7pim/byULNCSFQG+4KBwHnPk0EsoV8N5ONMWDveu4Ejd1Nihe6qulsFhG1FxoRlfNtvzU4eIFZbhrXj0S/ukwSWftknTHq84XCnayLeCvP7eUSDjCuM4tQ4PzQ3EKbuvfep96EqqrXu6hj/ktRHi0khaw1X5IJXmgiygLEaLSDD2iaKqT512ddzklWk/DyiZ8VwYGKakfXAmX8dL2aJ07D+V55wihAgUTuGPQyXOz7iYHJ6od59L3jzhr2PoF5prWsv1nQdoqA4D7nh3tMqHBuPXtnCGFm3cu4yd+3njhtZ59SkPLRkn5cZDjxSM+MZ8+o140i5p2smnbdKME32STume9qEracWb+1Ge8nRFf/do0H/Ekf6hK2nK9cU3TqUb7dhAqJfBpfF8YYIB3ScvNVl4jmalDYHBKw9n8kmFL8opGwdj1a0wzif9aptF92P/Ma8vvrgA/GhhELw0xuIRz40fVUCVFnjr1ZEd+pN289LadrwnXHypziRzEMF4RohnaTOuHGmL7tCHjtyP4yUfWpOfl1Z+aKNfaEV7DnJGfGM++ENv8mmXtJanbVJ12nF00sgOPRW0D77xFDvl2sduRvxjvuKu/dMuqXbhF77Qr40oXpBAEAWMAXrEwijVuYIkg8m7DJQ+tc49Jqiv/Y2Z8Wtd+iatE9AnHidhcVJ1YGwfPFu1y/+O/UPjOO9g0h5/AKEDbzh5c4xxpL9ytNS8sikIDdLcr9IPrjgK/SIX48oTPCNNnfLILHRkvPSVT/+0OZqUswDwZ05Z4RiPazcAzRXqeJmjeu1itNLQlL7hVfIjv1I+L81YSUf86AqkLm2V4w374SwsqBsMoDYwAYqnUS7WTdBWDghsrAP6apeJBFdS+FyIcbkHqXefMvfAWAkrjele+/RhpO45E3UmI2TWj8MxpwrpV8sW3af9SFfy5ssY7WUzp/TxrrNHOGijnOhJv4yZtmNeu1zq3KdtTUd8wSNFj7bZZ2uLH+QWGYlUtJPHM/cVMlZVploPNx0IzrSvbRbdMww6RmbkV4Esq37Vunn34/jhT9L0k0/bpMrM02VeKU+avuSINuXuA2mXNOXz0tCkfWSlrJbrW/HRd3xih3i3gdApiCAJRid5jIY8dVP9psowRB/XSJz2Kct9nEXGTP9MVHuXcpPRnvJFEeSPBsKwSldok6IL81y2DpTfmMr1pYxoySlkFfIUXRknaR3LHGu5uvBhCpcyfSpoHzzpy5DRD+bxq/ap+MyPUzJvc4NzHUhYnj6hSR4teLcOjOOHX0mncKWPNuZJdsZ2pW7sl3ppQL9lMOLrhtf4xq7YV11k0jYp3NG3ON0N3mMUsoY6uUKggbQlpBjvyJTkEVJBOVwGTZtKVMrSx4v+aDI272K1da+PCWpvjNANL+eDvqmVY8SfcealoW3slzx6MBIfMB6gzxXGUkw8Y7ju0Zr+GTf5pCk3fmhIWpWDDMY+6SsdV6rgqG3wCuBneJv6tEfzKEtt4vn1dZ/26b8ohROP9DGnzEMeLmVkrjx1i/CpG8dPv6Tpby7mWvuEl3CYT3S04oRHnjzDr+BMu6Qpr+lIB/lEZ+kQfQoET1Ll+EJexgfbj3x67tCfrBCydUAMTcexTn4UcBRVGoV2D6oSpqxXtD+eZaVMvzBKH5ORT32lL4zIhGsd3GM+443pvP4ZE30YaTyvIHIy+qAVjQRBGQhHJIDeCsGTspqHM+OrD81pIx3xBU9STqICmiq/1cmjzVXHq/3cG3+UKxqNgQfmOuIecdQ8vsRwzMPYmSO8QNkimiq+RffBmzbywZtUHaMxdtXt9JEGD7oZjzkfDVhg4MRX/KjjhpdJjRMbcE+nNjyagMTL6yZCKUKkRkC5sihOnbD6tDeQNmmXgaNk+iEg7fWdAiHn9doLFD57qS3aIujgnMITvEmDe8ynfF6a9uM8o1SUlaCFiQ4G7GEx37wJQH90EnBw1bEyl5RlTpV36uTTXx9XaEi5dvVenky19b6rOvcZQ31gnF/Kk+rr0ldb//vrOS+n7t8czRk94/jpP5XSBTj8M8cUTemzDs5580h5cCVvjJS5T9RR9bbWoxO9+TCguooLjkXAwTHQ4Nc38oxtZLzgTQpvNWq07nGgwkisHpRwipFBuIgwdaPSLWs/rx6DLmvezGTR5oq3N4YJrcu4eWPtpBwNaMM7fAOUF++Ug8r0XlD+oL1eI99qPniUpU+9VzYF6EiYjK7gmWq7rMx4TsJ9guaXf/mX+68QKLNKzxt/Ec6sMLVvvV/U95qom6IlZRz2uqAPfgFykI8Dlg/uZXjTbgMCGYx0WdWmDHcZwt2sjwGYKOXLl/7sdUw2Coju3O90fGOsO994R/tnYGWz+qDb6rMMhNMVIoyUkYMxREBwohFe45nvaIQj/fpr64qXDq+SZqxFaegyvg+R+ekNH3x7U3uP1pjqjUUm64C5uMjWfMzx/3XAA7ATo3VoB/AKwIVnFkm6wOYqhO+1rN73Rz6QEDBEwj0edF2AIxNbt+/YHmNMkMLZP8jHcK3CmRSBu58y3NSNuGue4s2jWX80xEDqGISAnrTJQUIMN/TVsdxr7/LG1CKwqvm3Lr9CICSVz3eR/EvfPJorTgYRBdM+86ht1rlHh2+A2cN/7Wtf7wZnJedIp6Dya4ofyjKP/9eNFq10Ab3rOqjwxldKfA/MF0p9psfPlvqQXwxau8qz9JtKm8Pb+j9YxLgIuiLSaWS6CWRVESJSViGseNuq491WX2UkaJ7E1wF80UJKyBQIUCy4s3L1wvYHc+qFLu0oCYV3b4KhK2n6w6+MI0Krtn4HFH2+OGivh24OyjjuOYOUwROc+DHSx0OiPfMwDn6gb8rhpR3j9tE7P0PipXj0wCXlnE667kmzb3/n2/3jeWjwzDffksJXX+HQthpK+FAFjnb0oJFcyCc0wLsMMne80R/PfbbH51Ks/u9+z7s7r5THsQUnOiotyse8MjxDV84AlK0K8OEbnuGpKwdq8JIZPgF5K1n0YJRl5pqxp2hVhxfGrLaRvvrkXlv3dAGvOPfN9j71//mF/zN73DmPm53cZMyAfV3SBxP9Mz6AV7/obsXXG5Q/y2O50ji3FMIkpBjv/rT2CRofe/OFQZ/Y8NK8C0Md1Pin43zu0v8VIg4jMVv/VSHKt2hScMUhMMwz2idKfUGSsntTyRcLAvCYg29dWd208Q1kjoJCmSNYNh7nZz5TYH6EyPAYJgPwcfIoGMGiE68om/bGlpoHpVM/KlzGojTzlE2bdfgbnHW+Do4cwpgDh2e1Rwva8GmnEFmu2998Ml/6g2dwKUePK3LLIiHP6PA4hlfniIbgHOlRXmlNu6Taw5W8tgwWcCBs4k53vlOPmJRZ1NDtO9LuX9p+E8u3r7QFob1nJv7M/e7xRNvtIgoKMSZhgu/R+qTG/dsPH92tfd3OKpLfy/E9XwrIu/jY9Bv/6Y3dc/vwG2M5VsCACMllXN+08t0qK2oFcxB++oC17/h4L/c5z3nOEe1G4db+7glLm3lGS4iEpM1nP/fZfvLqK4c+RwKEnIzBysowKCHFioH4ppBv83ImcZK944p/zNFVFW9RV3Smj3Z+6Ar/OB2fIj3Q/pEbjSKTKGfFp38UuJbv1n1wk63/uhG2c4DyAK/pKKCn+Mh4Ob8YLFlVfgRn77TmH/MFSYMLf3yC1jkAGkUGftmCTWy21ZedOMgULtMBtDHcShe8Y35HKy1iKA8FEwb/3M/9XI/VMZD39d0dX2DEpD1tQt9qDLMS+1zlYx/32Nl3Lv5O/1kGRqT9vBUEwTsBKxdHIbQTXlI6zuVT7Z+QhekjqPcjU1L7DCuuqIDg0UcJFgGmEhhF0GdcffBJndXSKuXD3j6Kxwj09WlQ3w5mCICScS74yEDMhTPRFi7CP9aA3iif7/VyuhzxRV+/qNPCGLT5fgBFJ2P65jvCfkzaikXGdAltdBRwKhyeSM9vC5E/5xcnljke7TzgidFyHmQkOsm3jq9/avsg/Le+2SM9zlqYzNE44LPi+t9bv3ZReToaa2jtRiszXosmYcII5BWsTlZaoTAlc7L49vYxac/xKBrCKODjH//4bkAMQh9ffffBNYYlfN5NYBzAh9UJlIEQ2r+0L+BzJAwxntgqfP7553fG+SofA2JYwDwZTITRC9sf+Vwpwz/t8WQ02mr05gq/NnDwsH7LxZcNKJz+UTyC533hBdLRYOEwtjQQ2rSv5alfllIWyhPDdDbBCCjdRz/20W0nZg7ahj545dFTYYoGZbVfbT91T2bmvtlWKJ8kFal4BGVLlm9wowfdnF9O6NGDfvtv5wnPveC5/WwAj42vzyr0TtGkLHNLCic6Ga4zAPrFoXziU5/sOu+j7ubg1wb8JKdtma810lm/L+Qjf/qiCW1TsL3SjoKfapwyoQZAHOYwTF7CL3+5GC9lI3QrA4b5FlLK7JF4SisN5u02YCBvzFj9xAVviyFWUbQKh0UCFFFYbI8J/KyF/bZ9L+ET+CoQgdX2ygjQlXupS1hk/oSjHg84E/zEL0Zu1fh+An3g2BLCMRpOzd6L/EO31Lyl6wD8lV/L+pIb3jhRd6goattsys9Afd3QIR09w1/8w1+rmIucGY72N7zR1nN14xkfHauA+cG9KtApj8icXZxy0smz1733df2HutHJZhxEWcwYNV2VigDongsYE30jjd1o1yEGsngnDBOPv/CFL+yGKvzAwKxiVlGGyRPyckJVK8mHWpt8JbGuQnDvBgg/rP5+J4dH9isHQnEMA2gA9pCEimmUUTue8FgD46Qw6GC4DBQt+MlZMJDddGbryhdNaCQ/IShjAaIVF/kzIvSSdQw3fFs2Xq2v9+k/ppTWmHjDGGKwytHzkpe8pCt8oii0mwNDcFJvkVAm8otBZAzjj0aRuppO0TlVpo+xRQF+UYAu0jvbLU5PZGXBYLBsQJ1f7jAvYTL6LB7a0RG4RHuVxh2ttJQsBxB+4kBox/iysvIkeRzAICz/JkH4DjL8WoGDKDjW9dCVkbkflUZYbIXdt29f3x96xkm4mEzw9uNWEKvsGe1kGb1+mtEqK3zdDZqiaDXEMT5BCI8JhSLhiR8swy8Riqv2yRyvyZQhog0fovDGRzOZxeGInLSlVIsAL0YFVwbPqsCJ6WMFDU2it680pfdDVgyCXEVR6OL4yJXhAHV+td5jR+PCtQ6gf5xD+sNFr+g/nrEPi4FzHI7tQDuX+PCHPtzljnZtGef+/Vs/VC4KsPdlI+hUxz7we0oXj1hpQ5Q0q9GUx8eUAGVDCM9L2eQpJULufa97z57wxCf02N1qy7A9J7WfTXiKgSZ7NIAJVgWTRItDEz/DIP/KV76y/xaRL+ExEO3Q7xj+/Gc9qx8WMGh7WXOtTBqVKoKW5kJ3LY9CVF7WesqEP0J1TkPeimD/g0bKp56wP9QE94EWIWSPbqzgdb8q4E+d17J+GUNY+bDm1O52l7t2ehiy1Uz0hLcMyH4RTymbOkbtHo7M23j1vtKi3cjnkT5GQHc4CId0HKvHivIfbb/na0y6Z1Vywe/CUzQCzvBF7QfO6CcnU2lQnzm7XwZ1brlnL/SY07BgWD3pG91685vf3M8C4M3Wkr0AkapHkE6XbeeE1PjIPvCY46ELAePNXWnjPcfJhPmULW0wDRAeIQpfGOm+ttIJiwmZ9/CFdT8yRTn1ZyRTDAyBq6ZoInhMctDlrRM0eXjtzRMnhuaRMTHC3ujmwvW9G92RCIsjeLjcL1OmVekz9qgk+gb/ZttrCUM5EopIaMInAnVYt795ZBEKYzbXUSar0rFqO2Ogl9xu3E5AL/7e1q8foIkDEcqLVKJkHmsoRy/n5zCF0uEhnlcnHxqMsepc6Ig5Mwo8gDtGqy56CLd7sidjF74qczpvC8QQpmQRuualVYbu0V6BYwQOZMnTSgs4YafXjDVRSebO0NHoJ2tsHS04N79pe4TVbOgWLVoUOte5dYTtT/+FgSklgABQoFqf+6SYJwQmSErnsp8kcDgQxjgRwFgdbWMcYe4mYAojoEh+opGSv+ENb+gHZISERsJEi7CFQ+GJGStPSKD6o0tKQQhCe8p3LIHC299QbqsbRWMU9kNCZ144vwGbVfhY0kOp8IwCkq/Vy+rpoMRqa+VDlwMhj8mUkbNDFw7bD6/ZMtlD6jtCdEe5ceK8xnbJk4Ux8YdcyYyOwYN3VbG1gQ/vLByMgpF/rK3I6IFnXLkyzqKULlS6x7bq6Q4Hhjf0P6uscx4rvLHRCw8aXXiNLvrHwEUGfpb1Zo338KEVbjwIbK+0KZBCJLwFEI7EYkRCIKva0572tP54hZFG2BiJgYhlMI62rbqY7nEQ5TMJBBH60QAcrhinECVjMFQrsDlgAjoe9KAHdaM1B/tdKzF6taF8mBllUoZxeHI0UHGOeKwCjNKqaiwnizy1Z5AO0p70pCd1I8ZPh32j0o20ybuiFON4y/LBh48Ml+HZP1IsvCRHj9LswThjz51vwMm01ULIzylrS3fwfwpC41TdVBm5AIuI8RiHMfCMYw3QJXR7pMKJkCvaRQlWuswNbyqkXNmo77Xd1L320R36xWFcecXBHnnYDjJUfENn2sFjMUAfA8crCxq65b3/4Dmv8jo//Y54I6oS657Hp/xTECPxzCwvL2iHCA/hPQLi3Sgk7/HAZtwPaaubfnCK441BEeu4cESg81JtKtjvWJkIhYJhmslTKodSxtBGuf2jgzGMwTQe2+/nMuB4wRMajk+2Awtvb731bW/dFnQdc9k92s0ryuA+hkvx3vKWt/TxbCkIS1gZXltJ0Odwwv7I8zwvm+vvciZACfESjAo4RZvxKz1TbWpZHCBHR55+YQ4PGexjHvOY2UMf+tBuDE5uRSqXNGN5RHsr7td+7dc63/04tbCQAVG8owF0my840A51ODg8IzO/NxyHazFhtPR2X9M1BkThOWX6SN7mVSE6NpbVfL2HIzJNGjlwUBYo13e+e3GPTPDA4qStvmkbnMpciaDoL5oT6ZojmqvsJldaDVg6Jd/f9lMjYFLCXvsXhypWL4R55e4TjUnvaGUU0V4WUd79vUNbNbwOByoRI/518yaa1YejoPyO0H/1V3+1G4aDC4rNEOrrg+iVR0sAHqvHl9rlzS2KuhtgLOOgA040CocICH+U4Smlc8IpTCYwIZb/YeVchP0U0AX0mWewxst1tPQfvKr9kHRb1Tg1jtBBH576CdFXvOIVfduDjls1B2lVYyy2S+RibrsFkRMZU3Jj4lfKMw6FR0v0gsHafnBA46qVPkeb4nUAPbER5ehcxgc6R9aAkZ7YVmaHVaOTUd+NNgPGok1OeMZoY/kaB6xcvAdCGKy2vKmBPTbhecXgBmUoTvwoIOJjBGF00uDeSUoQ6ITb81g/xUDB7VkJkKNgBMY3R/SjVWqls9e2J5bHC0Yj7HLiqM9u0Fjnhb/GsnoQLkC/EAo96swFHe4d7glT7cU9y1OOx/qa+27TB1/FiSeM0B7Rfo1cOZ39zaFTNMaMz1YY9B9LiK7mQGnKEOncLZvjwB9RDRpdorH0O5Y0ivjoE9rYQRyzMaeMUDk54yNgW7dqB6pkztkor0Z/hNHqQFiWcAMb1P2UdwrzhHIXXHDBNoEU0QD6ZuVwD0YDqIT0Bjv8A2+MlpBe3I72Pcy2pxEqcT72WpQfaGO1EvKhH2Pym6GYGlxSfNgtOo2Nb/jpYqRZUa0YLkBoLsDhOXW3h2MYVjr/nGHbwbBFBpFF77BLf0blsq1wwumgTxjqUMrqa3xGgj5bJYZhZbMSm4857iZEP9GHh3F61cmoMy7DwT8pIMtrAozPWDfakwm6uYr+0IM4PPrJjoTb+DjSfTWjNSlWzzM5CDn33HP7vw5VASAqhLjHMMRRHl4YIymdPOYJp5761Kd24xE+f/uQR1FfmR2GKlt0pV1SbU3S5EyUMnu0xCgBWp/97GfPfuEXfqErPkFajb0BRaCYxTnZe4fJcMVZwb8Tw0gf/UHyxgr/3OOhcbWzB8RrxsBpMAjRi1PZM888s9MopOeQOBwGZO4jwJVLXeQUGsb2Yx49ohHhLpne7z737Sst2TJMPKNo8DFW2x97XbRzgLZF2hztfnakSx7vwj9zzJzIjAydeNveKa+LTgw87adw76QMb12ikayYDpEOXnmw65uyRHoOZtFpQUObe1Ho2Wef3c9hjA8XO7ENoA9WWvMMbBttJpLK7AMdhrzmNa/pwmAMAFKQtu4pGUEjBnOsrqc/8PT+ckV/JtpWO2EoQ/IaI9B+NyH4eDm0YVToEWo4EUenvZjVwD2FjHHiARzhRWgb8ynfaYp/BEapc7JOyYVuBIwm9Cda4QApaXgscmCscJjrbtNnXmRIaV7wghfMfuVXfmX7gMVeEjjDuHmLYr7a6BbNOKBiMN7k4TAPtAMjc+G0oze94zH4g1d4QGeB8axWnAv5MwwQve2ZXfxDTjkl5+TMmwE7VxGh5LCMDNFEbvRMHp+1wz+Lm3lwxl/4/Be6vM0teh2St41WgQaZmFMvxub00p6Vwrh4/inPzhvoy1CESg4jzvzxM/vJsr0Yz+F1M1faGlOfkSjluwmec5oLpXI4ZoUVEhNopWU3x1yEK49zHv6wh89ud/vb9Yfr+MNwGaHVClAEq62wFO2UL/JZhP9o6ygT5fF4jrys7P4za3Nzs8sf/pvd5KadJvoQcKqNt57ROt1FO4W+JowWbxiAFc42giP24gyddoF6H5p3I8Ur40ltuxipRcJW5rzzzuvbCM+KragBNHK+jPvJT35yj6LohS2H84qPffxjnW/4N8IRRptKnh2jKQ2knhNabT0fs7yPioMYwuMx7B1v04z0Nm3/KEwBz3/+87swHRKZVDxfxtutNHTBT/kx0uVQSrjEKDxqEfZxQJQKTDmNCHq3aKt4rK6MwL8rZjUlQPtFtFmB0a0OjYxGxOPxFdCG42RcvPZuQeZM+d3joxXLe9mcnPd40ULeaKNg2tpKMXDKaqUlY7LIVmm36JuHh/ys6JywxYKT7pHI8Vt7SsYEpK7Mcx6+dcvZCZsJL+iYQztG6LXE6zXb+M92BsFwRVN0T50tDr30QhLwzoDnuh6HHmiRyjzoRmvSGEwRGCuGY4Bl+h0tnHXwIbR0MTwTpzBWVQpI4bw+uK89GzujvasqDjcBLwIIRRGBYBeYMpJ5BK5THrwJjyk+sOfCpFe/+tX9mzzCF/PTbh4cC+FmLPzFOwZpTy0sskIwBnQxxBgkw8FjSsnpODm2KjvdJit4dgvMuQI+Ac5aRMIwN9tqK8SzV/XISkhKwaQMPFECWdSVpeLd7Xs8wFO8YgSe0eMXmsl4nNeYP1p6jM0QAYfqn2jQYZ/PiXg/wWXBE4FwynjI5vCLHji38G+t3uIjZ8C5TNG/Fey3BioTa1N2SsNrXvDc585ObvsnXsHpa/4LBWKM8VjFW1EG5914HSe3HoALlxCDSS7EwRvj6pSt8QcODFrWXxttMQfT7BeESlaG6jg4lkUAB9htz0zBPSoT9mZV2PzBW/fPkFR6OFGeGU/twXlh7/eSCzmgaxkvdot2Y3omzzA4ZfqCf5GJcdTRnWU06bNbdOEX3aOL9HezORWrHF3zaRe0hJ7Is/L4WNxzbt4ntr/lkB0i4gvnK/rkmIF6Rv7B//rgbP9b9vezAIeknHH4g/bch9b+7jElhxTTGRUPAAiFcQqPvJHjsqKqT5hshcA0ikWRKBWPwTsjKl7Q4DEmuMNI9+vAKkZLYOZjbG9r2T988sJP9YMVY0XZrikhjvNzwEMwIhn7f/8RwuEJsQB+kgUBerTCCTJ04aeV2SpHkJTUPN2Pc5HHq90Aq4JVF13GTKSCXvmE6lXGIz2VjihiVcapOdQ+i+45EDjpLj6SN/AtJnjDhzreInxHW4c/ZMUWHNKJPtEl2mMvHIwDPafsnndzyJxzIpPQOY+HfaWNIVAUkxdWuMcMA1gVrFBWKisDBUKEtgaSem5ICQmQUSgDBI2ZFUJULVvl3iRW7UuZOBf7RDR4rc7zTkqONun3E3hjjs9pureKRAXmRuB47+CJIxSCmof5xFgZC17gKxmNME/YkcnYflmeQhkzKyz9AOhEF/4CzjIGMkVXb9T+jHJcVabpP5XiBV1EG/3j3JzHWNVCE1qj61M4dquMzZgTvuG5E/gshDk9Ri9bIdPI0zmB9urmyRCN3WgNEIOlPAYL0xko4PHF49lz9cJDfyhfhShHGIRZFcJEZdq6KpHu65W+tU3KpBWfvEkbE1O8G+vf8xyWoJ9RaG/OUZbgTR6OKUi7sU6/1I20aJu62g8fKRdaKVj2MZUfoScOhlAB2WinL9Bu5HHK0UNhsudKuXRVQL/IAA74Mkfju1KGzsw1tC8aQxvzkOpX09o/483DhS/aOwwVnXi06HCHMyF3h2hwMBB6Hhrn4ZuqN3fzw+eRzpG+yMtYHC9IGVkHMnc6uQhGerb3tAYOYoMFlCMSsS4DZeAQmzSMTj44Up58rVcnD+8qoG2lL/2SBre5OBgRpqDbxLMipG3GQ4Or4k1dTcd+ta7eB8/YPszPWBk3aXCgNwaZPmOqT8Cca76Oq1w+/bUNj9J/Wap/+sGX/hlHPuUpW4az0pu25h3IGPJTbdNOyqDMj8xt0UQxDoIsJkJPesBxcTx15a04cp/FKvxSbuXkGPR1ka92lSfpv04avdRnEd8qL7Tte1o3FSoC9zphSDwCJhpQncsE6yQrrqn7KoR1+sGlrxWqQpgnRZcUXu3QzVgxWhgCMg/3lf4Rr/qdAJxgnFvy0qxaMc6MkzbJj2l4t6xdradg+KAv5a3zH/HPy2dOcFTcaT+vPPU11V97cqp4qyxq+2X3WWn1t7L6+Lf9pHl65smIgzsGvggn2iowdjpkS+g+ehLaa9t17sdxxvw8XIeX1NIi/0tbirrnJ3gKwPMsgnEyhLMIwtBFbdRF2DloUFb7Rpky+RyC1XaMBPODS13aJ1U2BcE/VVfLpvinXv/wxlj4gp6UjXwKPfPGjcEHV2io7dXJuzguK0XlX/qsksIVfNpnnFqeskX40sa8q+HqA5d9X4WRL7XOPZ0MDbZEfmrDYah+tnr2tu4r7SOOmrcyV+AUXPbsuTIHOJfRV3GN96FbOg9G/P3/aaP4OlJojQg4HmxEGILnDTLWj/3H/IhHfVYDNBAKsEpQOqtpDVUSZhg3lznBk7GUxzjgSrn7wFRZ6qSZl3a8LT6hKSu6evyzoucNJh6aoAPhdXApX3XctE37zEc+ZdqgKRGGfADP0OXcguNFv3bLAK0ZQxrak6ZOPmVw5n5M8SOvQ2ZsbfDOxcgq1LnVcvehh47U6C/tvEMAzDVt5UOTe+X0nRO0kjrHqfXki1/45zGdVDtyxr/IAa5jAcYnM2M5++i/mofAKJMJIF6DhBIYCdS5wgD3mVxS7ep9+kkD+k2Bfi7j5167EV+MhJDgwlBp8lN9Kr6psafKpuiEJ7wKXRxLaHLwgHeUiFApg7oKU3hr/XifcVYtp1B4iIb0JTN0cyLGd49u7ZYBHPrkCs6ktTxlcCqvkDz6jI83aESbFJ9yTfWrZbmH05j6x3lHP9Nm3TS8GvsZI7qJTvSTNSM+lsDJGSe6tWFFQyQIw0McAjHXVSF7Q2WpS9/abt59hDdVD08u9WlbywhdPmObAwZSwjDQHPTN3LTVZxFkrHltQkPStKMsLmMRpscOjMMlRK8QGpKqW2Xc4NA27TP/Wlbx4UFoxR/yFD5yxvpakVcBOIxhftLQnvFrecrgTbtxjOgVnuEXmaGVXCko+laF0ANnjFZf5SA0yKdtrxj+hD/Gjs7UJuhjOObnPu2UGftYAnroEqM1bl9p64AmFiEoR6TGlbAwIv2qoFK2KJ1iivZhtHtjVCbXMdTJmwChA47ExXCB+opPWZ3DFA1je31WAQyN00Ab5cMzKaGGplVwrdImtFeepEx/85BX76JkIPcxlLTrlQv+RBbau+RB0lqeslrfG5f2eAL0A7UPXkamvbL9Sbvkaxp6yNZVcWmXfKWx9s99+tOpylf1GQMfM4Y5oDMGHDzHIuXULEwcrvGOazH/VQidBybtQiCCK4SZdeWt9Yvuw8ypNpQccYj0QL+OW+nBuMpgiuricdFWFdk4yqcg80jdmE95TdGBkQ5NYgwUTjl6lYU2+5F1YBy/8kpd6oO/lo1tjevRhzapS//QVP9TJ2U11W+qb8rwueKvfd2P41FC+oRfHJt6c0m7MTqZJ7eMk37S0CRNeW1X62t57qVe0kg7eQ4ZzfRyxKl+qkz5bgA6XPgVfefqrkIUGJW8F5Y/DKm2yX2ITj7KlK4pl09dZUraJUUgBkkdnMQzpz5GsQiHtqEr/UJH0pTPazev3vgUidHaT2dOaR/6kh/TcfwxP9JT56ku7Y0Dalntqz60jDj0Cx73IPkRB7kD5eatnTnXeaesN2x/5IMvZcFbaQkeZerTL/f6pl/wLEqDe6QtfVKedsqDX1mlp7bRjp1kTsGjPGXuQfBt5Y7+b5UhmrrRzkObwaUjYekT4usE6712weN+rFM2gn2N1ZvHwyjGW6Hiq+Wr3i/rP2+uwW8l4HmdMpo/fK70U5Z5Jk3fqXSkZ8xXHHWcKaOFPyeNIqgeTjXaKlT8wZ1Uu6n69DdHV+ZY+6XNvDR4kwaP9vCkPP3Dz6QpX5SiK7SlXcUbepNqU+vla518IIsbvs9ro+2IL/2PJq3jbXiBed5riHUQjKhMTh1kFWHKa7qsvrZ171jdSsure/tqt5mwjJ4YQ+gax+dQHOJoZ7XlVOBMP+3TJ2lwSZeNP9aPebIY8aRMudUf7/QbFbh3LH9G3KrGMnOAj0zogPsoLvzupRlr7J/hUp5/3RQa6xMepT6pOpD64Ek6VZ6+SbWt9+lb02X1jLWGx6O9VFzul+Eb26+b3/CgnQIaCBM9WM6glSnuw8RKWNoqq+2n8vP6Ka9AKQjWimvfgyYHOxl/XHlr32vi3ssTeQ4rGnChcx4s40vmlQjDCkkWgKEkPB3xz1uB9PGYzrNQfJvXDr7QVuWoXB96QVk5TjSEDn3ICFRHBceIpzca/tA5ip85rtJnQNGz6Zc5oDm8nGo/ryx45tXDSyZkbqyMN6/9sS7vm1meGeEmTNiUcAT1iM0Ek47tkk990pTvJCVkSpIDs++30VJihsEDC5WjKIsMd9680zehF96TB0VxKdcm7fBzmdIwNAYHD17FONCwSn/tjJcIwj0nSmnhdsZgrqIMV/RiHVkvmwMalkFw4BNI6h7NNZ965a51aOWszBu+OCn4vl/QjZZimIR0nOhOCcPQXBVHmJW01s27RxdngmGU5PsNhBilQBsDCaxruIwfnxgCvPAFyIKyxEmFZ0nTbirVF26Gy2irwi3qjxZj5tLvGc94Rv/Hcv9cznjN3b9iel3QVxrgc+m7CHelU9ujhYxVT+dTlpTOuK959K8D2uMH2awr33XGWbVt1xAKY1JRxlU7E+gqDKhMhXtqJV80phAPUML8h9Gi9kdbt0z5CNDKH57JV4iR1bJ593iOj75q4FtWfqKTE/CJnv379/cw0rzDZ2MuU3gRiVA7ferYU/2VRZbu6YPvffm+kY+T+dqCr5bYFlBa9PhWFCBLnxXaCRhrFdCOweDV1Ny9X7wKTPVdpZ82xo/MV+2zrF3mvy5d2//lg6hR+UakyYeJJhHPQ+j6S3l3Hs5zVm2TeqYZhaZU2hDEMqAkFNF46b+sT+oxBE0BiuzdVuOiTX0OFtybw6gcmXdwxHtrj29ogld56tJ2KtWvAqfmKx8MwddBGIev+fnoAN4Bc4AbhO6emfgTWUbR4I/jG5tnbvCbg39p8xG5M9rXFnwmRd64/k/V96m0t9r6jI+vgvhCCaNVxoDHuY3jyWdM96u2J/sqM5GXefkMko/kgb1tDn6Dyb/n+QgeGoX06PJZF99f8l9AdXz9ltGgPf7kGtvjm22SdiLBOFk6nq0OOxHxcIgOMqXr6jJaweFYbCu/0t8oRZRIJ4THgBFE6Sihz21guBXSCuIVP0ylBNrDtYrhhjCMGZmWunkpZhsDjeD/b+/uf2+76jqBn7YXEJnEqcCoUWe+l1oFlBLBmYSxjFcTOhkDJaGFFPmhBVJK0pDAD8AfwG8kBBJDw0NmOgVCeRxKsI3SoOXBBKUYUx8S5SE3irSo2NFRcQaRWa91eV8+Xe5zzt7nnO/33h/4JPus/bDWZ33W53mtvc/e/gwNat9wYvYo0F5xzc9SOtagOX+aMAkavXDbsn++0jHs6IMs9UduIiyDpexeiepP5d5c4i0aVva96M+7wTjh8eH+ueTpcxdZehBEVpJvCillKI99THu7R3u9jFe4cFCMxZ2Rf/eEJ64e+suv9f/VukVH/yL/ubSm3jp552GQrB0wRrqFDpt9NsAuYtjBqVzKh52MlnIzAoQQnJIQnMes016h2jy0l1p5BxJjoQCuKb2gjDL4x4JrcGFINZi6Xwe4dB9doOLzDmTRjBPhGXlfTiUr52mztK996hM8XooM+r+0GG3w1jHU/VzfVMIZ57itLUXzEjcy8hIBfyTXRrbjHWGU0BsuZSUV1yjDTfTEAOa00R+FByKsCO/buBwLflkl53TyojxG82++/3HnX5Qn6jJ2H4bzskEwp99eccYPHjBYJT57JdPR0VHPBPIWGLyXTXmLRl2Xia5VPm7rciejTaeUjDcjQKkKQ+AFvfuYB+a1MRUTOyPbPsj/Oe9rczZRF1QmMuRExX5xjx/CxDC0UTiR/5fbR6yubM6EIKXG3jfr5exeoIbJWaXeo9tFTQmMw2O4WdS6tDnCKDbB1qxmEfIZlfGaYeATA/BOIwYpHZYRAQ7XOQ5aRqC+Y3IFodVYst8vHOBHn3E4eES/fuHZ/2V16anL+qtkORbG4DM2vnwgI7Bo9o3/+0/d+ZAz2ft+LoOSKlee7ktz7AFOum16ce211/a3gIrs8MtUvKHUO5G9ukmQcA0fE6Hnsqr/nxaTs2k4h+kIFE2lSi972ct6f4RI+RAuzaP83hrAsF3DWMaMuVIubyX03iaCSL5vgNnm0DE1UO0oopITgRudvjXjk5GAM3FNtLfoQsiUI3+ePpTTmKJv6hyjoFz9rfiXXdqdIB6iA137AD5kw9spyHg50byvSj3yjONTxz4HLfKhK04G/uBOmX5c2weCz3uffM+ILH1+8zOf/Mzqf9x++/mvNOpH6itF9lpfc10vTmfEN998c5+u4TF942yMJ+NOH+hcSi8nxnCPWnT1VUHfrfqPz/y57lToGV5ZyBPcfCbEZ1O8P1ygQK/+Qkf4tImGnSKtgUtFvHHe7QBMsBGgwTNoEcxCCuNkuBYqRGYG++M/+mN9lVQ6qh4vNBI5DiKDmVPqHx3+AG3l06dNpFQWLYDbFWjSNyXEaJtFHy8BT3SZ09ch6hg7wf79/2nfw23RAS/Rb9uHD3Np07++IgPpcYVc4+ROt6nPFc1ZM1hR2QZCb213qH0Ghiccqwh21IzDNOsz7U2WFpesjTgWxYBgIEjQg/taNie44C8HRAdBxtoP9vxhtAJU5vs+Ai6a/nq7A/Dl5gRdN1X0IW4LfBzKPffc03v1Nk5jQ18WbLfRtpPRYggD4PG8y1UkEykomNTDfAgDpZq8HO+NMIP6Wku3rm9vXsdIEZpA3v72t59Ps0b+xQANJNtYJ8cZLDoI56qnXdW/J+TL7wyUAKXAGPrVv/jq6i//qr0FoKUnIstNN93UF1fQedKAbp764f/9cE+ZLKp8u43hpIx223jJAJhiSP3ONOWjiN7Za56G/uN0LtEBUcsaCSM9275qYCM72Rs5eoUv44kBm4ujk44qLUTVVHbbuOdeFy3RJqPMrTCp8H9v0wz8Afd/7v4exGR65uICnkAmAr/3ve/tNkTe7Mj47K+DWUZLKBWJeSGDNX8IEBomCvlve9vbevjnsZ3PfARBjOcbjbGMJPNfAxTh0ocyijD2nf5qmfrOEbD+MPFnn/Gz/eNGoqpFFa9S9aZ8wlOP8xExZA5SKWm9yMyojxMyztoHx4dfmU8T2VS92uak9mO05CXFw1vGgpe5DXScc24GZ/4nA7JoyCEzvmQEHH+mOmRpZVuKTPl94hTN2jzQXvYmiBwa6hSCvsogZZjJQmSS5rAP/MED/dWuFtFkDD52bt2H4Xq3uLm56eI2mGW0vJjwjSDL67feemufZP/LP7fbBJdd2jtidDybOaG0mBANhuKZm0UB3dPDTB6H0TNqAoEbUAh1412VoxdPXfVzTRsGaNMfA5QNUKo777xz9avt8ybqxCMybAbiXp57o4TKuDH4OAEN6FdWME4CI1yA35TxJCF8jZGmRIuoQMmsvAOOjawpp3rHabR4pX8GxxCiW1aF6aMvIcaARVn0HrUUWjrqI2fmwuGl9QvGQW8YuPr7Ap3jdOFMCo6XNroeJ0PfZKFvfvObexYq00QbHVTSVeOL415H1yyjRZRB5xMWvo3jI0cAw+64446eelJ4KbGIugnMOSy984iW8M2TpDYGieFVsaM4m/DVa+rzwqIohumLF0MTj23ewEmY75pfm38Yj/nSFxoN+btdxXno/dFgR/wcoTSdUl0MgF4GK2Jx4NJBii/qkVl4fVy0kicaGITAYE541IySszXl6ivFzWjUo/D45ssS/63dJcg6hran25SMcTBcDvpQjiZOBF9kmqKnNRR6J+JzxPQc7+ifY3NZq+B46lrPQNsY6Ow22Gi0BBJmiV4i4/XXX7+64vSTOl5fb3vf+97Xnz/lcQMYpy1gRLZ6zLCt6vEq5rai7l133dUXstI2bTgMUVH7bOmnlq5pA9Bsn+fjSTHEMTwUjOfjgKwonjlzpkdl7T7fsoXcDnB8oQCtuYWGhmQTF4qePHDhEcsnPv4Jq8/+7u90J03mnCGlxfPI+NB0wh1n4R6/dJIuPvvnr+5zSHcFRDoGwXAFAfNvsjanpAMChNs+dM1TXAIM530oMHbZh8dPOQxRXt8+xGX6h0f00FjwTP1ke3Te+kBuN9L5TQ5l0mhHAfBSuVXDYEUCEZbBIgpTRAbE8Dba20BKihihUgL7zpkf83xJLTDftbrNZSwcwWsffnRLiSMgEfbpVz19deNNN/Ynf3hlzoPns10sICvgXAAeXkjDFbHMwcz3RVcrtiItA6EblG8J1LFEP7a1xwtGmQ+8mcNaiaVLI8Cvrj8zoFWWAERZBk3n6EaMYy4NYz85pnOMjJGKtNZOfNPZOgkD5ixkCAICfskMLEQJHG7x/VEzdtfRPIeWSaMNMQYmwppY81BSYo+KMVLzL8vWWR3TRmrLI1YhIoLhWLhg1FbOpARSGwyUdme+kX6rwdqHo26pp3S9gnqEJs216eu6667rfUlDzHX1jY7MaT7XFNAKtoUVcyfMOy7IeCp+40cz3okOIKvtaMx8baptxbPvPt4BMtcnQzF9eNGLXtTnXWi0dkEpRSq0ZQ6u3SgL50DGRi8o7S5At6SOeCQigW99s/3H91/O/QEfHdkEFMYjPaWnf9QMwspupnToQBOch4DwDS5OzXeQpd+yUnPu17/+9d0o8cz4PeCRqaEgxTZknsbF5tC2SdYbjRYRCJKq6Twey7FFAQSCURA6rgNBFCIYDebxMp4ZFQEZiPumwH3eKIH62frFGT8GC7TDIKkK/Lzd09ui1I+2CT9FQ0PSD4z6rXYryAIZZyTCnTQwVGMnQBveMRzRhOHgSeXncdOXvvDpxS9+cZ9D4psoJ3JZMAGUP0o2RZNrQGl8sp3RQU+1G89Fn5SiPd0xrfKAhRVlGR/ZCSDkbSHUgzwyKDr35RbJ1GOkois8dCQBJuMd+517HD6wA47FgxMyzrPtboq5rcU7GYHMAB/pHrqAvqXVbAQIbHRgE2w02jBLJ0I8xiOKQulMyYC3RSbGKS11g/lZz3pWN37GgVjGYj6LWLk9nCPoq24YXqEeM1x1RQpPnliIEilOHx2t/qnRjo4s8hC0ebk0yhgwHQ37AJ4tBTTjMcFRLnThBwW1sni2Cd8YM07jOzTAHbzSXhmJdFJ08hwvWTFY/KIDeKgeh5PIMI49xwxVPcfqMpYYj/PbDBkvGJwsiAP2VNRRk6f7/z5a7hYjRSfzTIPwR4bH8Zl7oxXgc3QkEbdfWPATPtUm8AJjYyciPKchgpKj6GouzhY4Youg7umyA/LmmOk+fuxltBEGJJhBeRipDkyqgTrbgKFKr3kdN7oNgqDgk8pIJQgU8QiHExNslCnHc/pCC8YBBiiSvulNb+rRFW4e+pWvfOXquc99bl+x/uAHP9gZy/NhIKOJcXQkJ/DDYVAERvvgVx/svOaRLaYwnuOGcbyMxIq6h1IYrae0vtKUME+SoQeP0cz4KP8mMEXhEGVmMqAqzyj7pvYUmdExBvPB3HbikC1M4R/9QTcZ0k910cewjY/s0YBWfS41WLhGPo00Rz85GPTQcbptE0DwTB3POMDFqaCFA3SM9jmwMdJCgFjIX/WqV61e97rX9aeYMMJCBAjTdYooJUFiJM941Dziq1/96m6sPI3rUgfG+u53v7tHWZ4bGKj+xs017WxLQP14aMzi/UR7twnAhz/84a6I6tgIe6qP8Zzjcat0uWYM62DEpx6Fw5eHvvZQF6L2ooQUFTBiPJ1q2yuUn9CGnzbHKafocg1QZDJkGB79tEBI+RnH29/xjtW9997bnTbHzYkzArKGk4NBo75EEvdQZTXGxVHTk9tuu62PTV+O9RtFd24d6At+DhVONEmB3SYUaTPNqhGKPNHH4I2LbDlxx/pGt+vojf6l/yke5Zwy+9pWcH4KH75UsOiEdo/O4g1a0aicAxuNNgxFDAZDjKjTbQFJtCQ8ikZIvApvqC6hv+AFL1g9s3nrq9qCj9Ta88YWsTyZdPfdd/f5EeIxsg5en47rpu8o1pxBwZE26LEBdJlXoN1NbvfQGMLFBpQS/YQ9CjxjOSTNFDjOlyzdP3TLwuomOYiO5ES+NrQxIk5YHcpnzsa5x3Eneqhv1VRGI+vJohr6I9P0vW5M5Mmw1KdnjFPJEJ2PITJC0QqPXKevxgbsO5f6cMXpjEa7jo7Qu+6681PykUGC6DnewBU60yalunXfcYVJow1yFTEMAh4zAz5q0fNMu79pdZZAGS6B8YKE6flU8yEpJ4ZSQosGf9yM5AMf+EBPaaTGwACqh3QuBmt/E/GuT0FtE2FhkvmQf2BQQM9GM9w6B5rCtfRc5d3ctmOb0I9v+BMwhm0KnrpLyuAlY+m4CCtSArKVIt9yyy19NVT2ZGrEOGUCbp+kXRZXrOr+v3/+Zo+MDOv9739/j9IWirRbCnSQsaOTrohI+nQef+BkgMC+84mmaBI0jv7Duf+3ciBwcSb0eeT9NtoiG/XqvuNtuFKfY2Evgp5zdYNnG2zkYDpRMj7MQhgG8a4EzIvYpCgMFiGErM1jHvXo1Z//xVe6YTMQCz5SLB4XwDWmBBiewWcw2wYxXtcOHkImRN5WBHH7gsGaB3kEz60sQqdYFxrQG+BICBZv6vm6n7qHKPEbbnIV2U0f8C1OmpwZK2As+OuaeaK29tFs1ZQztjEKK7g2t14Yf5yDNvZtYI4jSn94YpNWmhu6i0GnAIMmX/hEVTRzLB4XvOa/XtNptQKuDXyAbnDs2wDO6OWmungzQtqlZCvosoHoedqmHPHkeKPRphIGEBAlN684apGWh7UBzCJMgGkiRFaGrdyZE3niwwYX4jMAAsh+RzD8GEDqpxyqdIVDH4gwKGEMlkK5ZWUBw9sL/KsiT3CNUX7EfRLHUV5GY7zGoqQoSrxlBPaPA+BGA/6KQjIocqT0ZImXruOt83HU9MH0gkFqg6fmmjZ14pyNBx74YyBVlvY3jS38MXYZknUJD3x4nNHqunueFvE4XzKnU2jlfGRXHnLgjBish4Hcj1cP3ilHiJ4RkmZPXavnMpacU+onY3AsAMKn729/65HTwbHfqeNZRpuUhPG95z3v6ath5oWn29wWECQiGAfhMVg34TFYG8pIATEKENwmIWXA6myq15G1H0oRp+FcDNc+XCKFe3ucDK9vFRSthBslUvdCAYHijbRTCknhKRm+28c7tB4XkA8+6Y9TdmtHf9YAvCzt4UYXPtmcP9siqWjlfq36FiaNgfHDkzQ58/G0U0amxmSbA3ijrfr6MsXi/GVOZPra1762yxxt6JDh/f0//kPXu+gFo7ZoZRUXn9VjNFNGO4embXWit8qxj+78vnFujWC8tg2v6+ffXJHKMZgcK6WWGMKTmsMavPmr9ETJaHhXjwHyYrxvFQ4PiEkMG377mwTmunq2DL7uV9rm7PPGHhw3t/EU18VksKHfOEUm960/8pGPdIeIp6YVeL8Uwre0oxzOTfExzpTz5TSsqlsw5DC0Y3zV8MgHBKc0L45bPe30U2GkJzhqnal9ePSjvtLtE7jomDsYbiNaDGOc9FAd+xwHOtwrTRCxAGp8waUuGGkNHTk/0p7rF6rsRqtzhK0jjgclWB6ZYtncc+NxeQ0GiBH2MSorePDGUCkegQbCkBzXMsx0rtJU92v9Glnrfur88A/9cF/dTMQfaUm9uWV4lXJuu3X18MUGnxSOolkfoGC5z7iu7brz4VV4GVqn+C7CkhMZuy59I0cprX2ydQ0O1x0DcodfdpV+Qk/6z/FYwjO2USd92J+iVZ+J8LImBslo3RqzngLnE1tmZf9vm2HTUcbtToF2+KzOVN/6BFP9nrsy/zc4lPgVnjnu04XHft85O2np8VI4FWRhMqTZDzJ1kvrknPSE11O/EsYw1N0GtY+6n3YUKbTkOkZzCPW2QepXY0Vvogch/dSTf6qnUZwNBYsjmWqbc2OJFlBpCl1TdVOvXltXv543DveTbcYb+cBT61W84742o2JuUlJ48SnAqcFBxrba1vnQUduEP3DU/eCspaicOnBlP3WCP2XtP/uyJZuVaVM1esfJKC304CMdUnJ8Ae0r3Tlfyyl6nOMwOLERQmc9n3PK0Jzr6H646SFe/l3bVwedjDkPLaXuVDkZaSEL2IcQ4hACOaj1HBuYOhg3xZgYkrp1ICOe9BN86lcY6+c4ZZju2L4/BzB2Hlf66RzD1Q860KusNOkv+NJ3jrWrW66nhCc0KLVL25xP3Yw1/UcpKMg+ELwp69iMN0BOoTe05tpxlvoKD8MTZaUhPAsdaE024Bq64TC/Di51x+cGMq91LfirfoZHoUO9Cvq0kUmCSb0+tluHL+MR7H63PVz0n9tqu8UymVVshm1xlJvg/Jw2Halc98OYioQRVxiJdlxxpG5VnLqf62M54g3OlKkfXCnrdTjMwQnW+6GsYGN8hVq/ng++es6++tnUyX6ujaXrwRXBqQNyPjgohs3xPlDbV3nYT5/wp17KbX3XtuvoC651150fZetc2qWPlK4Bx7KAsW3aOc8Zy/TwmQNknCJ76sCjXj12DuSc67ZRVudqfbfeuuN15yt+t8c8M20hzSt80chY19EWnMrJ1eM8OpeK0o4wC+MqMxGSTf1Ng61MqDjq+fS5qRzpG+tW3K75q5Sl/nizde0rHSOOMFwZzxvvqw/KYqMoVqunIDjqtdpPcLtuv16rbXbZr32bLwf0YYuiOl/54LjS4Zq6gIHvA/gVJ1GVNbcSR9wZQ6VHHUEE30UpMmYAIDjTR85tGp86bmWFL/q0wYFeUbs+8KL+XEi/bMn9a6m9qZ6FUnPw8EO5CU5BAAyQcdrG8OwaROlUnU0QZo110t75MEOJQUqgrS1OQr9Ji8xVbAYKF6NfRF5NAAAemElEQVRRtzIxeFLCWZXUca5pW6Eep85Yqq9e5tVoQGuE7Jo26KNErkcIwV/Lit+++sB+rvUT3zmX/ZSpk9J58pFNZD5qDqVPm5Vg9FByCkjJp+Qd/MqKO3icr8Yz1nF9HcBh7oaOyjdyNI3JQwdje3W1DejT5nzt35jUq/qmTdoqa/26rx7a4pByTR9k4971OrzagrRJf+fOPrJ/5+p1Y6/HaaPUH3lGpqcsnaucTaUsJKXzlK6plyeIRuJdB+rUNufOPpLInEv9WqZtytTNMSPB1BgLQVfIHCb1xzJz8rQZ0/2cT2k8m4BAQ5N64Y99gh7pC77Kp9AYA3ecc/CA8Vj7cVOHQ4kiM04K4RzjVKqDLhFJf6McQ9+5Xh/Zb/pzTR+BStvYPnVqGR1DR5yG0rFINwX6mMKdcxmH49QNXWNZ8efapnMCB7ni51g//ad9ro/nXXctW+qnXsqcT0nX8SY6dknzSu0Vu99lvooZ/Hg+SFKmXo5T6jyE55wyCmkf7rH9OqLVD2gDT4w2hpvryhhJaMg4HGN+mJb+Uo705Hi8nmN92ado6NEP3Nl3vULGX/FWGu1TChAaa/uMI+fUcS79OkYPHDFGtOkvRisK4YFzqVPHA/d4DG/AtVyv9Ix1Un+qRINbSvq3VRmiF/3po7bH1/Cunk/dWoYXoWssa/s6Dvj1E0eSehw9WjlAtFdIvzmXvsbzU7RrU/sPjlpqpw66gBDy7SBPOSIfkYaojmHiB56pOgYdCM6UOZ8ytORYOeIkYDi3RcrgCE6lMYYZro90pK+UwaHUPrgc1zp1X516rO42CN6l7YI3tGkfHIyEEhqv9JjS1etpeyFKxlCNFg2j/oUuMgp/ci5jzPGccpNcXKNTHFsFuubcpra1/tT+SLs6O9Ev0iKyKi0mLhHqFDGV6E3XQ3RKdW05jqGjLzSN+FK39rnLfvCmHPHmmLflKEbBpl36Tv0cn3RZ6UGL431oCr6UxgPfPjg5lOhb+FPx59y6cp++1+Gs/Qe/c9nXrtYZ8dR62+q6PtYf8Y3H/ZYPBaxGq9ImokYkhzzOAAgTRKDoiXNJnUP2uwQXXoW+0XCX4DnuuiOfxuPj7n8dfmsOue0WZ7yu7sV0XrQFF5rmU5aaMZDyjWnKhWKY50YzL7VgIbWTz18sBpJVdvRYyEMfg6hGcaGcHpn5ryZ+mceGZ6Gn0nic8k1/+hj7lKlk3ph52nHSsg9u40C/gEHu5ttznlrap89tbbvRMhDRNkY7TrS3Idnl+ijIioNQPdUCMA2j0BbjtX/cUOmr+/pFH2fHIFwLbfUm/tjmuOmt+N2WwCt8Q1Nu+ZwETVHySs+4j67I9CRoGvvf5dg8O3RPtT/JcZyigMK9lIWAeed4yZQhKGXOTxGfc6nrOPNS+2NqUeu5DtRHF8VjvHEoMoIsopyrud/vOA7H6JmiqfaEPo5OFiArEC3wzqIKQ2YkFxLQb8FJZJAJALzcxdnhiS2LfvajwMZPNmTkuW6Q+pWHzlVIxCLPWq/WmbsP97445vRF3mSdW6Rpo+99+x/5E9zrysknotZVnnO+DiCCdo6xVqj16vmpfR5O++MSUJhGGeNUltA3RfOSc5kK1DYcQVLHyrvQlbK22bSfMW6qU6+pb6srueiox+hmgBw9Wdfrob3iHPfD7/H89443c+D8HwYipE3V5wheHVGSEG0E4581m2DEG1pSil7BlTnaJnxzr0XxRaUKovlIU72ea7WMMsPpfHBrl3rBUa/lXEp1M1YRnfIHtzpJyVN/Thk8I12b2qLRVh2G+mjJtbE9uvU1tnN8McESeVxMdIeWHmkrUwmpHqdiStfGQedaSnWkPlIy+wRdFS/15pYUlTJkTiElOySMCwvbxrdJ+Tfxbh3NeTqoXtdHjM350LQL/op3132vbfE5Fa94EVm9YkZJJvjnTxk+xcHJjIa+a5/b2uFF+LKt7qGu6/NCySBj6JE2g48ybiMq9VOPQfY/HX/nSRG3Q7yX5+qrr+5zZXM9f+7+0Ic+1F+nqV0WS6YUNsSlpBjmY/rZZV4WPLU0VvN4OJ///Of3N1t4M8e73vWu8yuuqZ9x5liZc8qqODlf69qvdcyNOCKOjYJ7gTqDUKqHX/6w7UV4shYvypOteGWKP3NnoTCOUJ/r+q10qD+nnjqyD/RxHPr34nIflfIcN2eMHiUeMlRvcPTCPP+kImsyA+scrD7WGfdIY+UdnK6L6nioH9eVaae01QBkHOppM+rQiF8fI8BHLukj18fj0KI//SdwsQkbuoF26pIJ51chjm/EnTqPMNqcnFOay6RDxFEkgvb5A97YN2C8SA0BFma8jMu/GXz2zytUvLYGA7MANqdPddYJem579TAPw9DmHb83+PBw+7Ka9wd5P299dngKr7brGDqHvhidfwP5A/eNN97YjRZ/Tl162eofvvGP/flb77Ui/LzO1P8wP/axj/Wo5q0W+sLz4JuidddzZEPhgM9K+kpA/h1FebNAmEUln+rw6iHy5Yg5QM4JrDPcfnGHH/LDFzTiAYNFK2Mkl+rMgj5jcUx++8A62Qc3mkJL+oqjUGYfHhsb0IY+BjIG58f+utFCHORptK3UAeaJmNIjntbnP3xcyyclKKCXfvW3833py+3F1k9aveQlL+mvfXnHO9/Z/9+qTzhGoYaelNtoWXo9c0ZKhd5rWlZA0bwTF4RhwYtxFXI9PBvpdFwZ7Tht4IGPseGTN/mjwcu+vWGBYbp2dHS08t1VBhKQolJWBmEVE98o7qGBTChW6PC6XE5XSnxf+1hZHuh3P5hDMQ51va9JZiDanm2veRmnHYeiM1EWPvonE5DpWcH3h3K0yxI4X3LlWNBFZ61yjzyrstpGYzWs1I0eOIYrDsWxxTqyRYN/qCnRT64cCR5xuugUce1HnxKVR8M9FYJT6mgb8AyYAjnvy8PecMMNq+c973mrq37maf1LAv5sLnJJ8URVLwn/hTNn+oeH/I8QkzEAnpOGMJZjkQ1QUl/Y86ZJxoDpS2AJ7+AlMEYpOkk5CdML8Xxu0xssRWCvCH3hC1+4+vc/9uP9e8B4TeAUlBF5R5cMZkytltC9ri5Fo0z4Y+qgT+fMW30XySctjBnd/kb3ile8YnWmydYHpbzB0bi8dMAcdylv1tFUz1NwwBEy2te85jX9VamMwNtJnKdz3h/FiDkUzsV/WL180PnjBM6UwZ1ubyvFDx/bekLjky/Rm17QewGDU0ETWgWM0Eu2rnGO5G481XB7gu3CJua6XiHeRmonFWawPrAlZcLQBz5//+rOO+/sX1jjdaV/iNfH/fff39NjxoGZFK9GodrPLvtoZXQGyTiUPC/hmocxCBEDUC4pKMfByfjCGeXc1ZFUPlWeVt4aK4EyhGe06PW4x35/n6e+5S1v6Y6DERKklE9KSsgiA8fCWYpuxhMZOF9Tv114NrahdHgne/KhMm+xlI57kRoe4SkgQ5uvHh41J+QzIegxNTInt6HVeJPCh0fKKOPY/7ZjMqJneOHzq5yF/vFBMOBwfOVCHf3gFQdDF2UyhzLajCX05pjs4vDoGFnjaWSHFvx1jl6yITqCR/gsqOGpc/iJhyD4HxFpq3KFkKkScwjymmuuWb385S/vCygMkFf79Kc/3b8X6hUaOmHMjFoK5R3IFiviQRAdQqb62eVcBkpgjI+RUj4MIUwM0Kc31FsoI2QLPICxJyUZ+6ZghD9F71y+BSfn5r1VP9kcmS/SeY+vuSD8PDDPe7all/e1VBS/0Ci6Sj/xOdEVLWOqlz72KaNgFsZkUY8+9aju6Dg7fOQ8KnDE3pUs62JAxsCYGLFFKTxF61I+1T7qPtkCfBTFKD7aZHV4pi9RDg1kjB5jond5CCT4DkUTfAk+7EP/DJbzAOyBjNEgjWfY5M0oyRbf8Jphe3MHxwTQHbz9RPs5H2lzYk7pZVTe2O8jW5QPUumdRRKESUEoFmN96Utf2g1XuP/NT3yiR1mD4mkYFYHGc8/pe06dCIKCW0SRaooQaJC2Oe89yBhFwBSR951ikP6Cz/7IQOcqbLuuLuFwJEqOjjMTsfSPJ3BQLq/JYcC+r4tHrokWUiljIfRD8w59nMSTG28oHKfXv8PUPpaWDCCeX12AP5/97Ge70Yoi3vgvs8Jji454HKi8zLmlJXzwoO1MS8uf8IOPX336t88tItI9fGHQdPRxTfmv/vmr+8vzfQrGGstxAJrITcnwrD/gAZlKd71LmkMhQxug++xHJMYzBo1+dwjYj+ujUzbuc+vPC0fBE/Aiv9S+QEdpeD5f4/bpSgSaeFu4oGyiA2LM1X6jzYkQpE08iYEeSvGCiyczYCmKOaMvwDEMfVN4ixJWuTkP4FMhnA46MAljkmKHNXCPDMy1peXjm5JlxRCtshC0iRbSdYIUtdChHifjHOdC8Xy9gTJQTMLNOJbSsa6+yPSfGh34BiiZ6YPoP+XYyJtxMlgOEq9EGo6JgZN1DG1dn0vOow9NnItoLlsR0c21TbfwDej7R1qA8TEwzk5GgIfoA6nXDw7wE8OVxTFa+scp4x2nRsesS6hHlyJb9WUL3hTq7gUZsylyNwY6UuH8LR8DyCAg3QSux1iVkGIW4xRBpc5WPq2KSgN4tzvuuKO/tR6hGI7oGNmmvuZeQxNDZZCilGzgpptu6umTxRJvv4vAEikYpnMcjUUTRuDYebRJXZQMo/LEft3wIPyzvw0+fu/H2y2mn+7eFb0coLmrfqSkIhRFxytjso/H7nNbLENjaMXffcF4GZxoj37KJspSMP362oAIwOFRJHRW0I484eFA8ALdsoHoVK2/774x0yG6hj40MVpOhcyc4/TcrTAGBmuhMWsZ+/af9hkbXYgjsC9q2sILdwVkKXgC0E7uUntBRcbnTssnWibKIeOluvgcfUpf2u8UaQkPI3T69Kdd1Q3T7R7Kz3jNI3xnBVMRg2G8IGIC2Q9ROb9rGSMyUGkTGqTGFssI06IIxmEYA7niSVf09NS5P2m0aU8ZKABmM+zMnapQdqWvtqNIVtaf+pSnrn7lJb/SF5xEK2mdLAbfCElUC+Ar40CTa+FbHFDq7VKSBb5QFMaLZ1I8BoAGUwuy1S8ao6BL+tImNC9pN1WX8VF6zhid+CnqchocNvm7KyCCqYfXMi3OLlCNIOf2LY2RruARXcI/x/SPI8Ff8nId7bJRn4S1QHpfS51lo+xlG+xktOZZwr2OKZL0TlSVEvGuPLVIh0m8tLkuZcNARrWL0LcNBJMIggKaj3nC6Oee8czuRMwnpB7ms8ACxVN/+qmdqX/WlJEDopwxALgwWKQDVdiHoB2Oz7WXVctIfvGXfrHzDc/QT7gyFnyljIyYsqPp8n97eY+weMmxOIduilHBcd3qtXX7iQpkadpj+oAei3eUDu/gDI/W4Zk6P9I3VWfJOZkHXeJoRCa8imzhYcicNsPlrEVhq8aHchqbaDVWfFOiT1DIx9PJHZ/RIWgIKtJiKTR9QCddY+zrAO6djBZCgjSPtSp266239o9xmY8hCHE+LHz/732+exDzHRGMIcwBhI2bds6tA31SYJP6G9pc2mOUvpxmMef222/vCzo8sPt1mMVIKP+DzbPFu/HSFIInNG+SgjJczDyk4lF8YyFAholX4M++8uc9IohsxsMLU0CRF/+u/MkreypltZtw41TW8WTuebgDZGg1E68onayKUuEVBeNUAOeYjCBtp0p8MxbboYB83BqhezIQOodnaJMpuGPhNgp9YNQMR/9kix5jOS4Q7fWBP+QkwvvEi2CGz86T6eU/ePnq6Oho9ajLTnXa6Zj66mT6EScTvU85z4qGERIWIiCnPG984xu7UVx33XU9TcG4yx516rzih1gEM9wY9oB250PKm/TO4sdVbdFGumThQdpBwIxD2sf75v4nj+bczTff3Oc7mIJWEUyEc42ndv2QgDYputV3QsYrt8o4GFEfT/FI/5/61Kf6vVILUaYjoqA5kkUNymsMc6IffLYIvjohzgOQm+gvY1KPY/ZAhQcWODHtQUqGgO+OZV3SUW3hFv0oK16qU/uzb9vVkEOv6GojfzrpPDqsynPKgCOWGTJg/W2KYr3Bgp86JjwgDzYhst52221dl9yVMLXgMNAC0Mc50oGvP/w3PS22WAXwK/yNrPqF8rPIaEMk4jDAMUIomnSEp+ONgQ5NsD0JhZnuoYm4YFvE1bZu2uTY/gjx/lImEUJqbvD20WVxhzAJEqOUhAx8cY2ygYyJ4SaKzTGI3njBD09v1dOCkwUTAmOw0niRDX+Nl5fGWzw15819UGPBQwav7r4QhwcPHlx2yTljZHScBkXEB07X9SiV+pnyUEQOUXYi+lnDYFBoPG7AAzTpi0Mkd0aC1sc8+tyLCcjbOI0henxousIXdwLwTj+mFwCf0EOWDJbzJUf8Nec2JSJz9ZUVxuNFRlsRZR+jzINswr4Q78kZA7A4JcW75ZZbunIhKKlo2h+iNKgIQir3lcYwxskgRStRFmTwSp7Xhn4CvfwH2jPUf/e3PbKKdIBxYegUpD+CWGo4BMhgj1p6hCeiptVrggYiHkeHTosU7n2LYFbkGbsxiX4cE4MKLaETTeO5XJsqOQA8ouhkCPAGH6SXMdi0hZ98neeY0UQR3d7DCzTLckQZdY3Dhialc4wHjpwL7l1KfXLc5EjueCWiMoSHvvZQ7wvPAZqXymsbTZXX9Enf5KcfMjJW+8YrQOCTwEFXPVgjmCUTmONU9jZaA5I+8hw8rI82u70DRA2PMFIy/6b5wp9+4Xxa3Ssc6IcSiI6UTGS666MfXX29KQ6joCS8r2tKURcjRbGzLf3DTMIVISgZz2dRQAahflKaCBrjo4D2dwEeVuSkZNJIi3pZSEEHQyZ4CqAPdEm5ZA2MSsQ1BtcPAcbJaPEQXd/81rk5tj4Y4JhS4jdDp2AciY+Lc5DaUlaOxG0+aamMJQZaacXDXflX8diPQRiDND6pscUn0xvGwSgC1chy7lBlnC3+4J8x4oEAgG9uBVk1pgMiMufG4XAq2ph2arOJxkVGi9FA5whCCGPkbc0BzX/e+ta3dkXHyDe84Q19YcgNd95FxPjkpz75r4QF375A0Q3U/MHC00eb4TIAuKUkrl1//fWrK6/4ia5UHgSxqs1wMUk9dZSMAROdp8gYaTyVkfbDj6W0E5yndQiYoAiNYqETT+GlZIxF9LOQAhiX+Tka0cco7I90oLueQ7vjeq7uc0x4hRbjpfz4KSrFYMMbpTSTYZCr9QHjQafxyKQ4bffFw1dGPNJZ6al8XcpL9eFCPz66M8AxO2cMjMK4YkypX/s5RP/whe/wcVQ2oH/0yEj8AeOoBRO0kqtARz50Dl/hAOqvg0VGGyQYJDq5LeCfKIj4tWYA/7MJi2em5ASe6KedSKINhaheLzj3KccBiqpokKoDni5pskWfP/z8H64eeOCBbgCUEq1wKCkXiACUHFT6cGwjmJzrDRb8iLDaKgmPsPSLL4TnfObUjFgE+4EWQZx3XQRhaPvQUMmFh1JzCObX5qaMEBi7yM4Y0SnSczgMVoSVinI25rAih6mRTapPaRkOGHnl2KbvQwBcnJpIS+8AfSOrGM8h+tmGY2o8dIzh4ttRsxX8yrMOkT3DpX9zYCej5R0QQrjXXnttF+rvtyVrN4cpIQIJ02NwHufC0KyiUY5dADOmGDLiovw2wmIEFJ3imF+jSUTz5Aklo/jmjzFadGqXqFoNeOwntKQcr2865kwotSilvUUcczGRk1Gi26Z/xkvY/lyANivHlJGw8dk5dO8DDBMPyJUy6TfOjJJJzUV26xbmroxV5sRA9G1O5okpnxPlDOHhOEFoS+mcMee47ru2DwgmHAyZ47HbQIlkkVP63aefOW1rfzINtLmzIXiQGX65ZYrf4cFc2nYyWp1SdmmIyEmRRFLzMwtPjINQzXcQK1U11zW/mOtN5jBmqg7aKDPvShmT5nIe0jjOw+KKSAw4GW0qYJ4t5yOAlLXuLvv4wGlwDmjl/AiTojHWZChKUw+OkcEQsDm3aMiwjI1xHIIuODgMPAPkqs+b2qOgIrD721E6hpwUmqN5Z3upgYU0dGUNAG2JItsi3aisu4yHrBJlkzWQdZwHfqkz9rWL/Oa2MQ79oce9Y86OU7GeIhuhB+jCnyV2sZPREobo8JQnP6UrPUUzx/EMrajgL3sWJng589g8hMFQEDgKJcYRZhho3XJ+WxmBwIcZGIFh6MUs4NaKhSa0oWObQmkDbwQw0u76UoAvCoUuAk0aTKCMlbOzTpA01Jjw0vPHmeNykoegB484YUbLMXjYwzSCkbp95jrnwlBFYLwVxaxge8DB3wfPtrUBgB5bDBbdUzTmXIypN/7OT+SYc6mb47HEL7I2jbA6i9a/bo7GYliV74h3xLP0OPhCn+N6Dh34BbwgQmaFl3jnSUG8ETTwPe3m0LCT0Uo/CPCSSy/pjEK0xwY9SWNl7LGP+b7VF7/8pR5h77777h6JKUNl4Bzidq2DGQFMEq1Esj/5zn1PKTIhz2VUhJIyuHct8UK0v+fue1ZXP/vq7vBkJR6esPrtPqNIxRHKZmQxHA2DPY6/lmV1U+Q3L/1fd32kZyX4JnrhJ+OiYJ7c8bqb+9pDK6I+B5JoNvKjymG8dshjsuT0GAk6ZQZn24Kk0vk4hrnyPgRtdCX6IvO8sq3/MGDZlEW6rKxzbvi+BHYy2giQxzA3O2rpksiLKYgS9j3h4y9GlBAzq8GGeRnUNoJTL+W2+vDzXvFkz3nOc3ra94nm3USyJQa7ra+516P4Svzo/3x61x2rL37pi6szZ870RT2riyIbI2IISiknx8dAGJSsBoSH9rfxBS82AXlyxBRImgufKMsBi/aiPuV3TWT1HLesCY3GMkKlbbx2HMdoR5/bKJyMLIpeWhQ1NrAvTdt4PI5Lv+nbI7U/1PgIOGyOzzoLx6zOUuf2rzk+9j5xTLjmLrw/4QK3Ws62FEmqxHAd83QUT/2ThsoINDz41Qf7gklSy5Omp/ZHUBSL8AjRwxUeUzSH5AApIIdI6ZSiMiXEV7BUgWrfU/vkY1VYJBUBLCi5d6wUHfCPkVI0tHEcogMea7MLVKXepX1tk9tN0mMbvqEzab9pxL5GW/vbtk8+MVh1pcVWjPFNECNLjpA8GS5dWAKnloZmyBFFgPnL01Xt73lf/5uv95VZBGQxIoQsVTKRIRvFEBkB5ZrrBKqQ7r333j6XRRdmulavh85tZW2DJgqdyIfOCEsf+DqOWx3XlCKUVUWLeDIT0UuUlRrDTdGsEhNwYB3tla7UHcuRFtdzTnt9ObY55nBttZ799JVy6npwuLYOyNei1y76N+LET7wUaRmH6Q9nKOpyQhnn2G7JMRz0D92b8LmW66aQp1tqfNQcMWeCZ3TQ7TN2Qn84l6VwyoBtEGZ/LhLKhQBbgGIhJsoZ4QZ3jlN/qkzdlEnBCBnuuZE7fYlUgTBUmeu5NrfULrQpl0La4JGNIjBSG+AIjFXp+lLAL5spCdxLITxa2m5ufYaKh7Y6bZrbfqxHH/CJwVpEY7ScIUO2wKbcB3bhhzZxvhwvh8yByEbJ2bhdjy4soe8U5TBgjCRox0sA43k4RFAy6dI6QcwdPDoYJ9wA0+FEo4HOhfSXMoqS45TpZy7e8AnfMF0aFlgnBH3ob9117eFTZ6kM0ndKfeBVtpw/qXIbP0PfElluop08pMimZrIW0czaBb0R7bbRswm3a9GTbfVyPf3pXwbjdqfpoqmONYFqsHCnftpvK09ZTIhwKZ+3AiwhkidHHBxRXgsDIYSAbI7nEmj+hPHwZYDw86hL0wn9pm8CDL3bGLPpeiIi2tBIaQL6Mt5NoA6I8trHG8aKPmOtETL11ZsD4REHmjknnHNh7G+JPszpAy3RiTn1t9XJa2S8etQckTzoNcdPN08a8C8bPfY6YU9rmVLSmTj7Xelq8rhkv8dpWs+jUKeEPp6rBI/t67Wp/U24pupvw78U31QfOcfYRoWs/aevlGmnTL2UU3Wccz1lbb9pP22m6qQ/19JnSufqdcfboLatdafwODc6ual6Fc+mfW2TOUYWI/6x/bb+XF83phGXY3XRkDbB7xyIfizF2xu3n++GiJw5hjLEHwPqiw5lBLKJsKX8WFp/qu8lOMa6OY7yTeHf5dyh8YUGMoB7jizSZlOZ8W+qM14LDeP5HO8z9uWrHOn1e+UkB3YR8CSiLScJPduWqhf95Ywj5T4E478tUW0fXCfR1piXwveMdinHvlf/oBwYndx4vEtnDCFRdgm+JXV3oetQbZj5+TmtwSI81p8yna3zXjmPUdnSZqqE16adRYkpZllEyCKPyXvawKd+pTN9jPTmfOjL8ViieQnoG31Wyy26oTPjgWcXhdEOjileuDYHMv4RR87DMV6bwqv+VJs5bafw1XPBTSa78qniO8R+HeuIz5iji6F5rHPSx/8f1TWQ7jM7d2IAAAAASUVORK5CYII=;" vertex="1" parent="1">
          <mxGeometry x="69.33" y="288" width="147.67" height="120.25" as="geometry" />
        </mxCell>
        <mxCell id="J574YpdcSMkNGBud1Ear-17" value="" style="shape=cube;whiteSpace=wrap;html=1;boundedLbl=1;backgroundOutline=1;darkOpacity=0.05;darkOpacity2=0.1;fillColor=#fff2cc;strokeColor=#d6b656;gradientColor=#ffd966;" vertex="1" parent="1">
          <mxGeometry x="584" y="365.75" width="30" height="197.25" as="geometry" />
        </mxCell>
        <mxCell id="J574YpdcSMkNGBud1Ear-18" value="&lt;font color=&quot;#67ab9f&quot; style=&quot;font-size: 24px;&quot;&gt;Generator (G)&lt;/font&gt;" style="text;html=1;align=center;verticalAlign=middle;resizable=0;points=[];autosize=1;strokeColor=none;fillColor=none;" vertex="1" parent="1">
          <mxGeometry x="200" y="545" width="170" height="40" as="geometry" />
        </mxCell>
        <mxCell id="J574YpdcSMkNGBud1Ear-19" value="&lt;font color=&quot;#ffd966&quot; style=&quot;font-size: 24px;&quot;&gt;Discriminator (D)&lt;/font&gt;" style="text;html=1;align=center;verticalAlign=middle;resizable=0;points=[];autosize=1;strokeColor=none;fillColor=none;" vertex="1" parent="1">
          <mxGeometry x="520.99" y="570" width="200" height="40" as="geometry" />
        </mxCell>
        <mxCell id="J574YpdcSMkNGBud1Ear-20" value="&lt;font style=&quot;font-size: 18px;&quot;&gt;Latent space&lt;/font&gt;" style="text;html=1;align=center;verticalAlign=middle;resizable=0;points=[];autosize=1;strokeColor=none;fillColor=none;" vertex="1" parent="1">
          <mxGeometry x="37" y="472" width="130" height="30" as="geometry" />
        </mxCell>
        <mxCell id="J574YpdcSMkNGBud1Ear-21" value="&lt;font style=&quot;font-size: 18px;&quot;&gt;Fake data&lt;/font&gt;" style="text;html=1;align=center;verticalAlign=middle;resizable=0;points=[];autosize=1;strokeColor=none;fillColor=none;" vertex="1" parent="1">
          <mxGeometry x="382.99" y="441" width="100" height="30" as="geometry" />
        </mxCell>
        <mxCell id="J574YpdcSMkNGBud1Ear-22" value="&lt;font style=&quot;font-size: 19px;&quot;&gt;labeled data&lt;/font&gt;" style="text;html=1;align=center;verticalAlign=middle;resizable=0;points=[];autosize=1;strokeColor=none;fillColor=none;" vertex="1" parent="1">
          <mxGeometry x="367.99" y="380" width="130" height="40" as="geometry" />
        </mxCell>
        <mxCell id="J574YpdcSMkNGBud1Ear-23" value="" style="shape=image;verticalLabelPosition=bottom;labelBackgroundColor=default;verticalAlign=top;aspect=fixed;imageAspect=0;image=data:image/png,iVBORw0KGgoAAAANSUhEUgAAAEMAAAAzCAYAAADM6LWyAAABWWlDQ1BJQ0MgUHJvZmlsZQAAKJFjYGDiSCwoyGFhYGDIzSspCnJ3UoiIjFJgf87AzSDKIMbAy2CWmFxc4BgQ4ANUwgCjUcG3awyMIPqyLsgskWb9urrFSxZY/rtz1ezc/LuY6lEAV0pqcTKQ/gPEBskFRSUMDIw6QHZAeUkBiF0DZIsUAR0FZE8AsdMh7CUgdhKEvQOsJiTIGcg+A2QLJGckpgDZd4BsnSQk8XQkdm5OaTLUDSDX86TmhQaDzAFiGQZfhkwGBSCZz5AHZJUA6SIc6k3A6p2BKgoYKhmKgKrTGTKAOhQYHIEiBQw5DKlAtifQnGQGPQYdINuIwQCIjUHhjB5+CLEsYLiZ/WBgYGZEiKWVMjDs6WFg4N+AEFNtAToFGEYHagoSixLhocr4jaU4zdgIwubezsDAOu3//8/hDAzsmgwMf6////97+///f5cBzb8F1PsNABtIZlDj14fSAAAAVmVYSWZNTQAqAAAACAABh2kABAAAAAEAAAAaAAAAAAADkoYABwAAABIAAABEoAIABAAAAAEAAABDoAMABAAAAAEAAAAzAAAAAEFTQ0lJAAAAU2NyZWVuc2hvdGO4CHsAAAHUaVRYdFhNTDpjb20uYWRvYmUueG1wAAAAAAA8eDp4bXBtZXRhIHhtbG5zOng9ImFkb2JlOm5zOm1ldGEvIiB4OnhtcHRrPSJYTVAgQ29yZSA2LjAuMCI+CiAgIDxyZGY6UkRGIHhtbG5zOnJkZj0iaHR0cDovL3d3dy53My5vcmcvMTk5OS8wMi8yMi1yZGYtc3ludGF4LW5zIyI+CiAgICAgIDxyZGY6RGVzY3JpcHRpb24gcmRmOmFib3V0PSIiCiAgICAgICAgICAgIHhtbG5zOmV4aWY9Imh0dHA6Ly9ucy5hZG9iZS5jb20vZXhpZi8xLjAvIj4KICAgICAgICAgPGV4aWY6UGl4ZWxZRGltZW5zaW9uPjUxPC9leGlmOlBpeGVsWURpbWVuc2lvbj4KICAgICAgICAgPGV4aWY6UGl4ZWxYRGltZW5zaW9uPjY3PC9leGlmOlBpeGVsWERpbWVuc2lvbj4KICAgICAgICAgPGV4aWY6VXNlckNvbW1lbnQ+U2NyZWVuc2hvdDwvZXhpZjpVc2VyQ29tbWVudD4KICAgICAgPC9yZGY6RGVzY3JpcHRpb24+CiAgIDwvcmRmOlJERj4KPC94OnhtcG1ldGE+CuU3MLgAAAzESURBVGgFvZpHb1XJEseL60MGk3OyGUQWSTAjgsQAAhEEEpqBDQvQvBWLN59hvgF7FizeiC0SiCEjghBISEiABzAYkMk5g4nmvPMr+N/X05zre23sV9Jx9emu3NXV3efaunbtmvJ06dIlra2tTadOnZr27Nkz7dGjR2pm/iRJkuopFAopT6dOndK+ffumNTU1aZ8+fYq04mE8fOjnfdSoUenGjRvTW7dupe/evUtPnDiRLlu2rCgD3ZIR4lBWXlvy8aVfv36uZ/LkyemkSZNy5eGPeAYNGpT26tUrTZqbm7M+s8+fP9uNGze8zZ/MYcsY/J0xIE1TywzxNlgPHaKlHdLzDmTBtaamJsuCYb/+8osNHDjQ7t+/bzt27LDGxkZ78+aNy3j//r3rhgd9AunFrhD0/uHDh7DbsqA4fxbwf/TrBb9l/5MnT7w76dy5szekTBjjWgLRiaaqqkrNojMKCgNv37718ere1TZk6FAP2J49e+zAgQMeDNkBkfjiYOhd42AeTRI2ERywaJgk3sXrRnz9Ix/gwf5ERopIBDFmPBYYvjOjlUDjjUbbvn27ZcvBDh48aA0NDRbPajk52MajrABLhoLz8eNHdxC6rAQY77IXrAdd8Hz69Mk6ZemaKooizjPmxYsXRWGMo6R3797Wv39/e/r0qZWb2W7duhkBU9C6d+/uBpKu1dXV3pbeluwQjbBsf/78uXexPJDNw9Jkxu/du1cMHHaHoIDSl7CGpVyYAZgwHIHgV69emeoL44DW3dAs7XE2hFhpOKa0pA8ZcijkCduySxg+2kwAvGT369evvS0+sgHbCQptgkL28I4/YRAkL4FISoQZRChjemQwYwLoJVRYYzKKd3ihlXzeSUveaUMLfyxDssQnrH54SX9lm/rBjKlfPoQ41oVsrxlSIowwDCSSYEUyzgzo5XRctdUvw6CN5cfv0ApCftEJQyNnyAqyVhDSYG8YENUV+SMeMHwJA0RRHd7I/mCMggEWjcZhlkH0MdOtARktHMsPZWtMtOhhlnGWSdASydMPDbaxq+AHcuVXSI/sJK6yEBAImHjYYmWEsISgAGNc0NczCWOiExZ9KawsgB7HwfSF/aFc2tQLZQXOYUsYNHgJErWMYOAnwFknhFBHEqa3jIeAQCCcyPJoLBREW+NggYzSex6O5ckhnGTWZTy8ohWmDx3wKCNjnWS8bKMtXjmPDEDvjHsw5IgYwoMKRqEQJo1LCO8YBI1kMCY6YfpikBHqp8qjh0zEeHYCgeQI00/QmEj0h6CgkAEEFZlkiPQJiwcaAPsTio+UCDOIMQiKlTEGSChCMAoHvgcIAjIxTutb8uSgMP3oVfYQSGyAXz4gj3MQ7wRG9gpLNisAQHY21ul/FwBRZDhm+kpcpEAJNIMHD/ZqzvqVIUWiFhra+2UMvDioB1bZILnC8ZjowFre2Dt8+HAPCHcfBS6UgRy9Oy8dlYAUhrTqI2VbC/CEgeCdQJCNGCjZ5eSGdPAhQ/zhEignh/Ev19JKKHNo5ExbgqGqLoORhSMcpzme6yYptaHT6gsx4woCGBkKeLi8Qp643eZgoBxH5EQsuJL3mTNn2qpVq2zevHl27tw527lzp506deof2x+OVQoKBvQEItwIygUTnqps7f4RRy5mLGUQCrMPO8UdAIHwil9tMEGjKLN2sw8pNn78ePv937/bb//6zSZNmGjjJ0wwgsO5gJssAC28cjKUF7eRr7qWfXTyOwg3Y/ofPnzo8vL+SA5jBV7CbYz3EEoFgv4wiKIDqx3KgpYKDxDEKVOm2OQpkw3Dqzonln1tstGjR9uKFSts8+bNNmTIEJfD7FJs/x+QEIhw/eY52BZDFAhhBYjZIivWrFlj48aN8y05KWQXwiwgNTU1ln2yswEDBviyefbsmdtG8EK7sCd+JwMAgtdWKMyfP99nBKMlMJzdtgqGTwGgTWEE2IqXLFlis2fPtn59+vqB6MrVBuN7RPPHT75MxowZ4xlCcAAVWdoEIQyEbA37oGsLVG3ZsuWPhisNdu/+vaISKQgFaobDPmaBg0186BKtMEFm/ROQWbNm2fr1621CViNu3Lxp+/bts0OHDtnNrN30tslGjBjhmTFx4kTPmuzDsfGQHchjx8kDdBAQAsey4uEwBs+jR4/yWL7pS4j+gIEDigMIDGe0OJDTwAA5nDP8TRcOLl261KZNm2bVvXrbX2f+sq1bt/qXKLbCuXPn2suXL23BggUeEPC1a9e8AKoIojNvsvIyo1I/ZGjy+PHjb6otDlYiKC8QeX0oIyvmzJljK1eutGHDhnkAzp49a7dv3zZqw927dz0Qd+7c8bHVq1cbwaOgEogjR444HU4ji2tCbCO6pV8Y3bRjWvoB9UOT1J0/b1evXvUU08AXsvJ/ERAqDTmQRcpyomQ2KdTUgtraWl9WjdkR+cLfF+zBgwf+swG0OH306FFPa3YXagsB5PsrYxcuXPCAIK8SaK0/yX/+/NOLF5GOlZRyNM8QaKVcbdY5wWD7XLt2rTHbrGN+nzl8+LBdqr/kovSlSt9ROYDt3bvXd5sZM2b40uJESvaQRSwp6pRA+sD4AAZkD+24LxwTbXL9+vVWRRtGgZTzTjtWoF2AM0NNVpvIDIClcebMGb/gUYSV8vATQJzdtWuXX7T4sWnYkKE27ocfbHhWXPnSXeom7cKDP7E9wVBus0DNCA9dUOGYIpnL9bUTZ1uiY5yqzrli4cKFflpVVtTV1XlGkg0YjRzqgQo4djFRBO7Vm9f2408/2dAsqMgjKxToUvaFdsUZX4qnwMwognFFpl9PKQGl+jGGh5keOXKkF83Pn5r9MLV//34/X7BkdOSGDqPZOpl5jvkEhG2Vft7Hjh3r5xQtp1K61R/arrawaEJcQHm8d+cxqE84FAI//YDGNXMcwTlR8rxueuNbJUtEV3V4RSuZsoniShawexA0lgxAQQXC2feOCv5okvJIE9IORR0BChCyMYIZJwPoJwvjSYhtoD7ox3Cyo0eWSWRFpWkfygttCfvDdoF6ES+PkKC92ixHPg0SfLKCCVAwSjnHnYnvlwB2jsx+/aMYU2BL8XyPvV4zvkdApbwYTxCSqi+f9BWIlvi51HHcB9haOZ2y7PhttyMmsKBtSmu9knRqyQGN4TwPP0xrhrmkNX9uLh6ymGG+bWADzmn3IQtwetGiRZb9w4mLRNbx48etvr7ezy10trT+ZUdrcKajstNca4RCy3LAIdKcixIBoRByxObOwUEM3QSfa7s+yBAQggMdlzo++EBz5coVu33rthdUBa+1NpWjT9o7ulKIA9QF8OXLl+306dO+3jleb9q0yc8QnCi1M8DnB6zs3kI2bdiwwZYvX+4HNc4bnFjrL9f7r2gEuiMgwVgegtKeQFaQ7swiO8KxY8f82s4plJtr3+zccC67F+mIzRbKGDdazhN8CQNOnjxpnEs4nnOf6UgofhYiIO0JLAHdH9gi+WaBk+vWrfND2MKffzYePupwsKJQslzYOtl1WFL8i9Pu3bv9m4eu8EyazijtaS+yPDPaW2iePD7ecN+gflAHpk+f7suIwxjfPjl/AIwTvLrzdXb02FHL/hvQ/xGOH6mUvRRbtfN0tbXPa0ZbmVvDRwGlbnAj5T99Fi9e7OcFlga7DEdzTpzcWS5dumQXL170C6Rqipxv7wwOffD/3CGlO2LfDhXpExxXcHRt27bNlwQ0LA92Ec4enCV0ecRxiiX0jHVkILDDv3SFlzU68yDPEGoCOwaOMHPQgHniLVtHfnRRXAH16XsGfVoCZFJLENsjncLoZ+lJF/3lwJeJboyliClYQGgAM82swcuDk9BhBE8lyvP0EVjpaSlbSwVbMhUMCjLFWUHReB72AsoMy4A8Ivpi5yhoVH1OkbTZQoGWHHCCMn9iPfF7KfaYjsOeJgjbZF8pfvoTvjWWCwSE8Q/BZAUPW6AeycGweOaQUSnAr6cUTyyf4stEYAP1JcxYzjtkcjlIqOxyQhgmjCGyCGbmuRyF40QaBSjl/yDA0KGYWvC9GVLOcPST/ujiDEJwQp266jNRFGhwOSgeusoRxspET51QpcdAAoiBBKcjAefQQy0AA0yWsoN3lr8CFE4kY3mQIKwUoTIDoXFaIoxAYAgKaYuOPgLUkYA91Czsl95QJzYxjl1kuQLWkk3+f6ClgoFwnjDCEoYC+MLMQCHZocCItiMwmcf2y7kEfQRHNqEP27CdgJTK6tiuBIEKhjBECA4hjDr92gI5I4S0moGwL5TTHm3sZIIIPICz9EknwcEusoMiT8AqqhnhrOcFgz6ESpFoUMiD8xgDQCdQn97Fr/fvxUwO+rBHNiGTPsboYwmptoS2QRfbR99/Acd/MKcrNbhRAAAAAElFTkSuQmCC;" vertex="1" parent="1">
          <mxGeometry x="393.23" y="322.44" width="75.62" height="57.56" as="geometry" />
        </mxCell>
        <mxCell id="J574YpdcSMkNGBud1Ear-24" style="edgeStyle=orthogonalEdgeStyle;rounded=0;orthogonalLoop=1;jettySize=auto;html=1;exitX=1;exitY=0.5;exitDx=0;exitDy=0;entryX=0;entryY=0.67;entryDx=0;entryDy=0;entryPerimeter=0;strokeWidth=3;strokeColor=#FFD966;" edge="1" parent="1" source="J574YpdcSMkNGBud1Ear-14" target="J574YpdcSMkNGBud1Ear-17">
          <mxGeometry relative="1" as="geometry" />
        </mxCell>
        <mxCell id="J574YpdcSMkNGBud1Ear-25" style="edgeStyle=orthogonalEdgeStyle;rounded=0;orthogonalLoop=1;jettySize=auto;html=1;exitX=1;exitY=0.5;exitDx=0;exitDy=0;entryX=0;entryY=0;entryDx=0;entryDy=88.625;entryPerimeter=0;strokeWidth=3;strokeColor=#FFD966;" edge="1" parent="1" source="J574YpdcSMkNGBud1Ear-23" target="J574YpdcSMkNGBud1Ear-17">
          <mxGeometry relative="1" as="geometry">
            <Array as="points">
              <mxPoint x="526" y="351" />
              <mxPoint x="526" y="454" />
            </Array>
          </mxGeometry>
        </mxCell>
        <mxCell id="J574YpdcSMkNGBud1Ear-26" value="&lt;font style=&quot;font-size: 30px;&quot; color=&quot;#ff0000&quot;&gt;MarginGANs&lt;/font&gt;" style="text;html=1;align=center;verticalAlign=middle;resizable=0;points=[];autosize=1;strokeColor=none;fillColor=none;" vertex="1" parent="1">
          <mxGeometry x="69.33" y="163" width="200" height="50" as="geometry" />
        </mxCell>
        <mxCell id="J574YpdcSMkNGBud1Ear-27" value="&lt;font color=&quot;#ffd966&quot; style=&quot;font-size: 43px;&quot;&gt;?&lt;/font&gt;" style="text;html=1;align=center;verticalAlign=middle;resizable=0;points=[];autosize=1;strokeColor=none;fillColor=none;" vertex="1" parent="1">
          <mxGeometry x="787" y="434.38" width="50" height="60" as="geometry" />
        </mxCell>
        <mxCell id="J574YpdcSMkNGBud1Ear-28" value="&lt;span style=&quot;caret-color: rgb(255, 0, 0); font-size: 22px;&quot;&gt;&lt;font color=&quot;#ffd966&quot;&gt;real &lt;br&gt;or fake&lt;/font&gt;&lt;/span&gt;" style="text;html=1;align=center;verticalAlign=middle;resizable=0;points=[];autosize=1;strokeColor=none;fillColor=none;" vertex="1" parent="1">
          <mxGeometry x="720.99" y="432" width="90" height="70" as="geometry" />
        </mxCell>
        <mxCell id="J574YpdcSMkNGBud1Ear-29" value="&lt;font style=&quot;font-size: 18px;&quot;&gt;Real data space&lt;/font&gt;" style="text;html=1;align=center;verticalAlign=middle;resizable=0;points=[];autosize=1;strokeColor=none;fillColor=none;" vertex="1" parent="1">
          <mxGeometry x="67" y="263" width="150" height="30" as="geometry" />
        </mxCell>
        <mxCell id="J574YpdcSMkNGBud1Ear-33" value="&lt;font color=&quot;#000099&quot; style=&quot;font-size: 22px;&quot;&gt;In RGANs, the discriminator not only tries to classify the data as real or fake &lt;br&gt;but also assesses which data (real or fake) is more realistic.&lt;/font&gt;" style="text;html=1;align=center;verticalAlign=middle;resizable=0;points=[];autosize=1;strokeColor=none;fillColor=none;" vertex="1" parent="1">
          <mxGeometry x="52.989999999999995" y="720" width="760" height="70" as="geometry" />
        </mxCell>
        <mxCell id="J574YpdcSMkNGBud1Ear-34" value="" style="shape=cube;whiteSpace=wrap;html=1;boundedLbl=1;backgroundOutline=1;darkOpacity=0.05;darkOpacity2=0.1;fillColor=#009900;strokeColor=#d6b656;gradientColor=#ffd966;" vertex="1" parent="1">
          <mxGeometry x="632" y="195" width="30" height="69" as="geometry" />
        </mxCell>
        <mxCell id="J574YpdcSMkNGBud1Ear-35" value="" style="shape=cube;whiteSpace=wrap;html=1;boundedLbl=1;backgroundOutline=1;darkOpacity=0.05;darkOpacity2=0.1;fillColor=#009900;strokeColor=#d6b656;gradientColor=#ffd966;" vertex="1" parent="1">
          <mxGeometry x="622" y="183" width="30" height="108" as="geometry" />
        </mxCell>
        <mxCell id="J574YpdcSMkNGBud1Ear-36" value="" style="shape=cube;whiteSpace=wrap;html=1;boundedLbl=1;backgroundOutline=1;darkOpacity=0.05;darkOpacity2=0.1;fillColor=#009900;strokeColor=#d6b656;gradientColor=#ffd966;" vertex="1" parent="1">
          <mxGeometry x="612" y="163" width="30" height="146.75" as="geometry" />
        </mxCell>
        <mxCell id="J574YpdcSMkNGBud1Ear-37" value="" style="shape=cube;whiteSpace=wrap;html=1;boundedLbl=1;backgroundOutline=1;darkOpacity=0.05;darkOpacity2=0.1;fillColor=#009900;strokeColor=#d6b656;gradientColor=#ffd966;" vertex="1" parent="1">
          <mxGeometry x="600" y="155.75" width="30" height="167.25" as="geometry" />
        </mxCell>
        <mxCell id="J574YpdcSMkNGBud1Ear-38" value="" style="shape=cube;whiteSpace=wrap;html=1;boundedLbl=1;backgroundOutline=1;darkOpacity=0.05;darkOpacity2=0.1;fillColor=#009900;strokeColor=#d6b656;gradientColor=#ffd966;" vertex="1" parent="1">
          <mxGeometry x="584" y="144.75" width="30" height="197.25" as="geometry" />
        </mxCell>
        <mxCell id="J574YpdcSMkNGBud1Ear-39" value="&lt;font color=&quot;#009900&quot; style=&quot;font-size: 24px;&quot;&gt;Classifier (C)&lt;/font&gt;" style="text;html=1;align=center;verticalAlign=middle;resizable=0;points=[];autosize=1;strokeColor=none;fillColor=none;" vertex="1" parent="1">
          <mxGeometry x="533.63" y="104.75" width="160" height="40" as="geometry" />
        </mxCell>
        <mxCell id="J574YpdcSMkNGBud1Ear-46" style="edgeStyle=orthogonalEdgeStyle;rounded=0;orthogonalLoop=1;jettySize=auto;html=1;exitX=0.75;exitY=1;exitDx=0;exitDy=0;strokeWidth=3;strokeColor=#009900;" edge="1" parent="1" source="J574YpdcSMkNGBud1Ear-40">
          <mxGeometry relative="1" as="geometry">
            <mxPoint x="580" y="224" as="targetPoint" />
          </mxGeometry>
        </mxCell>
        <mxCell id="J574YpdcSMkNGBud1Ear-40" value="" style="shape=image;verticalLabelPosition=bottom;labelBackgroundColor=default;verticalAlign=top;aspect=fixed;imageAspect=0;image=data:image/png,iVBORw0KGgoAAAANSUhEUgAAAKAAAACXCAYAAACSsFA4AAABWWlDQ1BJQ0MgUHJvZmlsZQAAKJF1kE9LAlEUxc+UYaRRULQKmk1BMIVo2C4wiQgKxYrK3Tj+K9Qe40gELlu2aNUniNbtbCEUtGnRLigIW/cBgiEomc7TarTown33x+Hc+y4X6OnXhSh4ABRLlplYXlS3d5Kq9wU+jGEEYQzqRllE4vFVWvBdu8N+gCLr/YycdeO/nUjG6kvzVwtTwUYs+tffFQPpTNlg/WAGDGFagKKR4weWkFwlj5pcinwiOdfmM8mpNl+2PBsJ/qXckYeNvJ4mN8haqkPPdXCxUDG+dpDb+zOlzXU5hzmONexC5buPEsliNf/xz7X8UToEDmHSnUOeHSoiVAQKyJBXOMfALDRyEAFmSN759/1cbe8ZCL8BvYqrZStA/RgYunC1ySOuwhtdV4Vu6j9XVWxPORsKttlXA/pOHed1C/BOA81Hx3mvOU7znPOf2Gt/ApkuY5e6n4BhAAAAVmVYSWZNTQAqAAAACAABh2kABAAAAAEAAAAaAAAAAAADkoYABwAAABIAAABEoAIABAAAAAEAAACgoAMABAAAAAEAAACXAAAAAEFTQ0lJAAAAU2NyZWVuc2hvdIhrHmkAAAHWaVRYdFhNTDpjb20uYWRvYmUueG1wAAAAAAA8eDp4bXBtZXRhIHhtbG5zOng9ImFkb2JlOm5zOm1ldGEvIiB4OnhtcHRrPSJYTVAgQ29yZSA2LjAuMCI+CiAgIDxyZGY6UkRGIHhtbG5zOnJkZj0iaHR0cDovL3d3dy53My5vcmcvMTk5OS8wMi8yMi1yZGYtc3ludGF4LW5zIyI+CiAgICAgIDxyZGY6RGVzY3JpcHRpb24gcmRmOmFib3V0PSIiCiAgICAgICAgICAgIHhtbG5zOmV4aWY9Imh0dHA6Ly9ucy5hZG9iZS5jb20vZXhpZi8xLjAvIj4KICAgICAgICAgPGV4aWY6UGl4ZWxZRGltZW5zaW9uPjE1MTwvZXhpZjpQaXhlbFlEaW1lbnNpb24+CiAgICAgICAgIDxleGlmOlBpeGVsWERpbWVuc2lvbj4xNjA8L2V4aWY6UGl4ZWxYRGltZW5zaW9uPgogICAgICAgICA8ZXhpZjpVc2VyQ29tbWVudD5TY3JlZW5zaG90PC9leGlmOlVzZXJDb21tZW50PgogICAgICA8L3JkZjpEZXNjcmlwdGlvbj4KICAgPC9yZGY6UkRGPgo8L3g6eG1wbWV0YT4KoJFLtwAAQABJREFUeAHtvWeUXMeVJnizTFZlVZY38KbgAQIgLAF6ghY0oAGtKMqQYrekHmlX031mZ86as7Nz5s+enZnTZ7o13aIkihIlUXQgDEmQBAiAAEmABEB4bwqFQgHlvc0yud8XLyOfyZdZmYXMIshRAJXPRdxwX9yIuHHjhicIJ1fpSMHjiSTS2DQoH2zpkLc3dsj6/R0igUHDEzxPLMyUe1b65YmHC+SWm3Mkz5+mvrnRcVI+cKhX1m1ok7c+aJeTV3pDnz0yJj9T/t0LJfLi80Wgl45EiaS5pMtJ76/PX18JZCQjaidoCMie3qAcOtwrv361RXae6hYZHDKjAirmTsmWHz5bKCtvyJGMDI8rgJ3ADgSC0to2KO9ubpd/eqNF2rr7TZqhO6aFoEsz8Bzx/a8vrq0SSAoA7VkKSi/A98bbbfLHN9tk57keO/hCnrO9HsnLSxMvrtGcE9hnz/XJr37XLB/s7AL4wE2DDKsZeBB3QRnSj9GIKv/R44wa7K8fUlICKQCgR/r7h2T/gR75+FiXK/iYE/b85HCJuIZGdOk7O+V0XZ89GJDq96XLkhk+mTrZK+ngqHR6dOGxIfmv4LMX3tf7lAIAGhlSnMgGMCu3MvmWmX3tOTpACNhBNxaHPvfmOT756QtFsnJ5jmSFuKodeGZMf727dkogZQBUWVScxwqo0D0uChwac4bnYUvFIMfBHf8sgfFhTEmGzJ+XLeXlqc3SsIn8Wj2wTKzlHX9inONthnR7Fz/F+HwmtbZ0gtPAkcpK02VacaZ09Q1FzER94FBjAZSsLPtMQYePlnSfL02mjMmUzl6TJos815sm5WUZajITLey3770b2EYGPpaNbZQSKiy3d8kux6QCUCc4K8sj996ZJ+PHetV4UGeQXI/jMs56OVYbN1ZHbxSmDh8tk5MnZcqPf1AkjU0DIS8cR3rURGbWjCwpKoTo5VvmojdKE2zR/Vz7heEBIFj7SXcDA5iRQvJip85CM6JLA1Yy0t3FL+6J4QzXI4Mhuk4/6aCXnhA9J4W/Pn8dJZAyAI5uZty6o9FNQapji+RyqcmzNR7rfaryp/vAVNF3pWvnipFerF1xrEIw6RjdkTVcJNVv1hszb0aPwaGG3XE4MzKBu6bN8tL3mra1DPU9/eh77S9Z11HlgMxIDyYQly8PSBtWNIyitWQFHjIxoeDYsKQ4XXWpRpftLPygDEIOXX2pX5qaB1XhlBZnyFiEiyXYtsR0Td+2tw/K5SsD0tllWT1yCtBReOlgHxPGZSY08x8cDArlqfUNA9KPlaVwHeDGi7E76ZWUjN5YelQ5IDNfWdkvr73ZKgeP9WJMF7QJDSjiKynMkMcfzpN77vSLn+u5Lm5oyCPNLQPy5jqstOzpVmPJ22/KkccfLZAxmF2ztXJMyNk4Qc/xKB0F1Fymu5bdEArh5Ok++ctb7XL6PMsI42SVYObBTDyH7rk5aVhLz5dH1hSEs0QfnOQx/07HsujsHJKPt3fJ+1vapQVMQMtKOV4vA/CeebxA7rrDr4CZARqklUo3agDkOu7xk31Yx+2Qd6CgcDysRGDPXnFOhiyAPO/2W/T7yAI4DxDv2AU6oLX7PJb64KUZhcnl5nFjMhQIF1xnyATJTY6f7JVAQOS6uVmqdetC1zFcS1cCoQY9xM4vu2X/RayhG23HPYnpaQpAzBs9EmA5AOV85H3GNG8EeGrr+mX3Fz3yzntt8va+TiiHWDksGqg3XTIzRZogZSDwZs7IloXzs1Laq4wSAIPShe7kg4865PfrWuVsM0qMBUt2xKteNsGjDxnPzHSfHQ9A+tLZOSgfbu2Qf321WY7Wgw7DoiIOXuiVC7/vF8oYF87Kkue/WyRLF/vk3PmA/On1NglAb+HHWCkpRtdOl6oxjSJ+FT8EEYcXAXJt5g3/lWM7ZHkpFo4rvw0MyTtfdsr+E9QIMgA4Fvl78dliiLkybVIBAvvYiT555bUW2XYEwIZ8ViFWdRegB3KDfYPy5o4O2bG3W3Iho127Oh9ALgEAXdipkaqr/h0VAHIAzW7wct0AwAckgFVNL82WJXOzpfJSQPZVgYuhW51RliUPgf2vWOaT7GyWuN1drA6ga2qTTeCgR69gPRilWuLPlFWLc6SpdVC2nwSdgUFp7hqUfoB18tZOqW8ckC+P9shkCLC7u40Wf62CT+eWIHRKx8bkeWUeZKcrlviUps+hY33y3ledMtA7IOfxpxwCNvdkqjwTcMwnaen8trQMybnqfunqoSIHPsCNL8iUO5flSjXGnJ+c6JSO7gH1JxlpsvxyP4szpW5UAKhzEIYUSqQMQuPr0VWwte+7iBacFpS5FVny+CMFsvj67IhVEtJobR2SfQd75NQVgDhUgEU5pOOTizX9sv0M6OBTQ+eArP8S+oeKW2Bsg9Y8AQDMzbWvvOh0XUtXgqWwACs+mAycaeqXPoILWCnOTZeZKJ+70UCpasYhzXsHkXKMq/miFN9zMtNlDMq1FGM5DTp9ZR5Jd+r4TDndAmBpuhhnL0V5e719AGCoJNCjVEBfc+I4rC6ljvmpyEYFgCwEDwqNkwJVmgDPvuo+aXlnUBoxKFaDN3jKRGoK8tPUOCZUFLbLlCmZ8rO/KRH/n1vl1e1titudRWH+CcqpXPIzxjSIg+CERg5dVk6mPHJbnjz7ZKFMx7jIWiE24tfIQxqE6YsAiL97oVhyXkuTN3e3q7ycaApI52dDchQTFOahFuAUNbnySKEvQ372TLEsJ3cEYGbPjBy3EbSLFvrk539TLLl/BN09Bl0OY377equ0csZtMEWZWuSVn32vSB64Ly9qXSSruEYFgFUXA7L9ky45gsmAHtewBZ5qGJIKZHbRtDzJh0b0ymU5UlAQvclxqe1WaE9T1Us+CRVB/6CcrMUznSpA1E52hiwb75VS+KdY4dGH8mXZUp/4wQGveQAi+aVQrLhpZY60dwxBt3JIPj3WLS3Qf6xuCeDPqoqGicKYbLn7xlxZc3++LMCEgW2PK0Jus+BSrM/ftDIXSr2giwa761iPtKLLPVqDelEBMYEZlyWrb8uX1ffmYxLiVdyWn1JVbikFIMch/Wion+3uln/8TZMcquG4LdTMUNBF2emyBl3KD75bqAo9G3KoQoAmmuO4iMH72fJZKtrxFvT0IH3lpCz5ux8Wy40roJpFmgA1RRZmIeoAmsC1cDXTxHTm56crDlRWli6DvwzK+wdcdCsxTrvv5lz5X/+uVMaPz1CTt1g5IV0/GvqD9+epbrrrHxtl2zHMhkN1wsnG0w8VyI+w3l5clKHAZ5SZTpu+xoolsW8pAaBuMVQaeB2ThnegQn/oCmasWi0fXfGM0ix59G4/Wm6BzJ6VLTk+Iih2S7tQNaBkiJu2ovvg2Ec79C8LJ2TJ7StylSxrCpQWyCmnYNBOZwJPBzDi0k/XxtWeJnaZ+RiOLFqYLc8/WyRFaEQHIcY6djnErZhotPA9GBOXvdEqT0N+Nxuz/+Ec6XL/zViIq3JDZa7DQNkIWkwQ6GO8bC8znTZ91SGu/po0AGrQMUm8p6CYnO8V7N34qgqcL2iMyVSSkbuZk7zyBCYcSzFuiVeJoOYyRCobWtHlkh4BGGqRKLj5APFPMG6qqMgEI4wuylHxf4N+iiCYX/NgvgLE0FC7AUCjEBXn2nehRzo3DcmN2FsTDwDDWUcZ2UEW/uJ4Hypj83NS75IGQI/HTGhPz5D84U9t8rs3W+QIOZ8VfKHkc4ySCZldIpJ21aVT4qDAxyv+Qo0SEzfJgujGl42bb5Ejx/JCLkrZKBuq6Zh5OLRrygy5gpIcZ42DFJ3PyYlFU0libZkJ5ZLbmfN9coRjvrAgyVlApn+dmPiuFjrOJmz5FB+tb44v3ebcUqxKMu7iNAvJXnyagKWnUpEZ/mPF75ameN8lEYD2KO2Z4zedQdyiJfvArdxkTKnKqD113/QnE0RGN2B9Hi5vZj3Yy1rTML8blIznyPocLp74vietC7ZGx6ywuxTVLVu+IC/ZEJE8ssIvayEaGYPBrtMNl1G7+kIoNAI5Vw6cdL/xzyhU1csSD1bVLDyrMtH4SSCjCoAGvlQoOyCthEjc4tH66SrvUwJAajpPnohNQuOypacvGJYlMROzsEb5HczYqO3ittwWKz+U482ZAtkUykIDlYWWg5WOyRO9QjHOt9VRPDUVs/s5kPtZdwZSsWIm3uflRRdfuZUJe6AKlOW8mmwl1qKAYgJmwFSDi3SpK9eU6ANy3ffkqT45XxlQQ0CCRbcuyuTmQStFq01FZjb6m2bo/tEsRxs0XDQA6ZsTmkkTM9UKALVBvo2uvn5ALtf2C0VRVm5PaFBmSCE0BdjWcolVDh1YgWId1WC9l3XDPx/EMtdhfZ57b7Tj+3hp6jCJXFMCQCZAZ8otA8yQzpTb92gZ0DQZlvdOZ6Xr/PZNf9Z5j5aPRPNupWeUp1Gg5Kh8Hi2XMgDGygAzb2SSmXbPreknFqVv87foZRM71yMNF5tqqr5mjGZyKZ7hH0FnAozPpiMwKe+i/MvN6XC8kpaa7Dg8Mmy8wm1H0Gvo0d4wmU/K+nR+mX/l4I1jYrPM7OGiZShW+VFxJLEdi9FiGf59ihWuzQT090Md/0K/XIT+H8eI9mIynrhDIRsTimkVXhlPVSCX1OnugfROn+1TeydYMeo9KsWD2uBAmjS+TfuEW6DvWIdx4CXsgyF41G4O5hcZp5GnOViG08q2ZqlHv6Nu5LnKPqmrG1TAVj5VNaRhHdijxtMcW6bapWQW7Jboru6gbNnWKe+83y6dyLwbh2PBlhaly3efKJQHV+ehYO0wtdLtAo11G9pl664uNYsjF2B4gnYR9Axp+q1wkW9UxzPW9CXrno2ruycoBw72ymdfdMlWWAYzltSRWTjmeyokAL/4aQkA6Is7Wm5MenNdu+z8ottQ7lAhjT0zCzFJ/PmPS9TkJm6CI/QIADIj0St6hHRtwQgMWsw6A/NqH5+AOjhUqJSCoIrb5lUKsSfkFigVBMDhDOeePrXHBLpxu2h7kBFoh+6D3GFNS56lm9cfv0lXI99tUJ36HCDZ8F6HfAX1qf3UHrdkly2soXUAa++FCWWOO+6OQrlB2W5UAsZQcECBYp72jhSrQoeiAwBTCz7Go7tNlU9VePjh+jA/QKWI45dBKpCiaffCk31dU6fPqBDS02IINZ4k+KwAhJCWWtYuy88M+g1yRr6pUbQRm6/Wf9IhDT1YCFeFyG+qINWF7VmXSdwZRHAlT3SWH/Cgyi9EPm56I/QYZaifODUrBpyhI/KoPQB8t8/KkWduzpMpUAGnS3eunmi/Lg1FAzvsRd1A8K1ojFIJ2iNP+hM5Pcd+DV3UgEYjVc6eNypiuBRPyG+UCzCsm3aED3yIVZ8R/q/ixaiMAVmAX+7rkSpsKjJyFso6LkXQeRsDpUs/tFgyoKC6BKZ7J0OoTPX8aI4Db1eHAdFkAHkeVNLVgDyKN9ew38SXKIdxsIu9ZK4voQmXBpcdxroAjN11fKI/o6jpMzWFGaOadYLiu0bDBDNxAEqTv/xtk+zgrjXVhYRoYja8E1sED51Jk3aonpMbvoDJw2235EIqnyBzRgLKcrHOvCpfvvNkgdBaFgfo33THWb2y9sDMKAZogQ3erb7JLz/+YRHU54dXRnWWRWTx4A3++7CkGSnGSg0IFQCTTdpsOcxyEObUBuUYluUCHMNYHYRazVgSahtIl7tg4fQxKF4SfOOxj8MJaI5xnJwvXIDwXFHilXuwN+KRB/Pk+gXQsP6WLMlRlLTqVuzjwPLjaWyprGqCipse/wGA3P+rlXqtRRvr3lm2BncDCjAkummaTx64y6/sLZo0wiVtvkrSnQJgcsgbrJsgIQA5e+vAJnJmlgPp3vD4hSnHS7ZoiExyMAFZhD0czz1ZJPff61d7QtxENKTbB8UGWsnnPpP6Bu5vZdOBA7NcijXMF7CTi1YBEuaeBpVr6NdkCUVFaXLPqjzpxqw1Hfaxq5qpDW4mVRVjAv0YJ3hUGG5A+VFRxHDGNRvbOh/GTrgXvg8RFrZwGhElBx1miu13CSTdHjDyyVxD7MPA+Z1NbfIBNob3wvzDpdoBaUIXazhkFqU2dwz2hGDnFVsw97EugcyuGIvpLNBojsoN//pys1RBmE0wHoAg2hiopClNaC7Gc/PRN9+ZhdCE3mMDTGlwX81ZtR/anjvDapb2TyDpe7s//cQTDD7Y0il/eqtVvlLlp79Aoxx7s4sK09S+EPOteWfv2cz3V3OXRACayeBKxz5snXzjc2we4tqRamAeKcjNlAkF3AyTJrdgC+Z3n8pXKxYc52SCG8YCH6lzMvPejk4514SNOXRGwzXu+eh4Dn/4Bt+0YgXkM8gBP+NxF6oXiQWwWN+MQqAdmYNHemXbgW5pUxYSyBjMcLHKMLLrvvqCTSoAdQtRMjiCgXnTjA/jiyduz5MffZ9b/rBNErp93IHFbZM6XDzZUUtQmqYjQCoKyBHF1/Ko5m3hyZullaHg9Npw/AkzwmNhKtRiTfDFTyN5PpMKQBsAbPnCA2Rz7GrnzPZifGFG6w4+lo6NQDjHxlv+WiqCT/bHsP9vxY1L3sYWeGU1jjpbuTw7oQbM8nAv2a+npEwkJDV+R4kBfAXY9Eyr+JxM2IDqGq9RRO7gZAALfRIDd+XYTwlkXel9014yf0YZ0NQGtZfDJ1OorHtkMcQu/+n/LFeKuN+03FnTmyIAUlWK0RhAmY0Jxw8e5yw3FxvQ458kOIFKQA7CilbYAdi07vTcg4XyCPaYlKJL/3Y4M48USf0t5Hy0ALvnYLfsqzTWvjn54LiZzmioJmhjl4FHddvUc+lncKOKFN7Zy492T5KSGqNGyqzpXlk53SfdmKjedWOOPPtUESwVRI8uNrczCpr7IpbBeGXRRYAYryhSWDQnS56B4Hnx9fFrgsSuoGvrawFUou64zY/Tn4yzUGQL1mox8FsAjRXuq6YzGmp8Y2ma9Z2KvSC3zPIpo54afxxLjoXtmPFjU6+CZS3hlGhEMzPca8B9DNwWTP28SdikZB5ME29rtSZVlJHLC1X9Sj1JN13aOpk0IVPZPDF8j4y2PaZr76m9HUJ7WJugWIacihO5yRBhaS4Yb4pZHw2wD11XDxNtkFZo4+cU9HsBcu6tcd+YFG8MiflLCQCjJYFczo3FswU7u9toNP5nfh+9l0isVHQdsKmqLpiMFA9uCwDJijNaCkcNgGxttGjf3AJbzkot30gSpiRq2YxWoOwWrKIl2fneaMV/BTDLhZAyumVnKelnlj21q7nDkCtKFGsReCWwhlWG485GmxlEH5TpFCfhylbE5R/aiN78cacylUvhM8uL+w+mY0yyFtbelyyGZVR0A24t0ZkM0qRaPoFtFLzpgwvptKUSDx0divSo+mRtHPobr6wYjm35FxXsQ9TXQ60qIFhDO+49KPY0qJ9FJeTwj0dO6pg2I7/27zT8SYWFsAHQGCDkCtIOaFW/92GnMQZEvr1Iyn135sp3YeRSWymzx5C6p1EBIMuZy3OHcTTD65/DHp3SiDYzNeU0zvjF2JcGjriWm++yydrZFRAsh4/2Yp9JwCaMJeh4cCEt4rNF2x3B6s4hSG8PLNPzfA4DF3a/FIXMwMSKVlazXQ0gYeDbeQkm5o8DKZypMmYdl6YFPx5kNG8yWM51QPTwEyfmm64Btq65H+S8I79MK416LlmEUwFUfnWcRjjnLzXNj50MyKbPOqUJxilVOtFgyzEBefoJpE+skxCdbieV5D07a2jElHVBWRs1DUlyKYmtjl0vLXNS6zkkN1DyOwKmC+vFn+zpAvDSlCaMGwCtdLkf5OLFfvnjX1plG8JxYM1iZ3eSicJcOt8nP3m+CEcyGEYWzUy5zxS5SfsCNkz9+vfNsheNhObdrNXIaqC11Sch6iGoXQFI7ld/QOTw70S6W8worXcspHSwm6m3AYQT4gIg881gp8/0yRac77H+o3bFDTVZNtoZsIP4H35R5tBg0T4cV9AawJJeO+tBL6NAtNWGSU4t1uwzIVP1qXbBErCWgoNOkh6TBkBdUNZ0tTRDnRx7Gc6hcrvRBR+iiV4UAFnMFJjmvQk2i9nyOKvjDIymIuLRZDlytM9QdtiF09PrQwoJOmJ0R3lY5mOB6kahP/HKdDrdlziWYP17nbJtX7dcacNiadjRMxMMmzatMJt7xafGTeqF84eR9TRC9aeKZ0k4vxrPCoAo8uKLQAHSHadjMI7bLsDUcdicriVsH7haIns42Lxs+xJB/8jpgPz5jTYlT6WR+NFySQMgE+ysXO6EO4IzLA7iSAEem1ADQCpUACQzsZPruacLVVfJhsiwtP0S3UY0gWAA4sChHvkzNEQutWO8BVrlUHLoRqvuDB0/0A7VpTPnAlDSDMg4CHKj2YxhxTLez9H1vrK5FecQI302xzgNN8RKMx/1a/NKQr5imKIfiyEGAMYM5+XDCCIqk4vjXa3gjGwsZpB47mgj+lLNgJw5G5B6qLVFOgiWSdNqsCjSk+0N86HC6Ld4cQQHB/W/B246LUudUqA/pfqaVAA6E1sI6548N/g6KJuyBW/e1iG1J4xCpNFFyrJoIUv3BDTXxgmEuzPfc0Jzhcqt6EYmFOJsEVjBr4XMcQPOzZAAFDdhQX7Th+1qYL7mgTxljtaNpm4wlLF1cjxkQwfj02jxCNpG7AkIx3Zl18NU6zMix98Gy6qBufrV2HMwE9wOY8JTG0QunnFLRsx3VOZdh1MA3vmgQ6ogu1MtRiUrlDakKxtlyclcXA7ZysAooACTqRYWgG5VKMsr7QPSBWPoqXQcJlkHOCkFII9cWHVbLvaC9MtO7N8NO2T6Eo6N+hAz4lNnMInA7I6zy6k4hmHh/GwXLsjC1gDkZCBLHlzkl11Q5wcDhNNAMWLgk3pjf218HPaXBC0BUUk52KuyEo1o7uys6Ba91ORiikhFHhoBAFe7H8goAq0Qe2e8JMsK15XOd8M4HjW2F3uCK1FehTgTZUp5puypwlAGDY1gnFHqldtvyI1v/Ie4KB2YOwsrIfN8sJKPMXqXs+ENk6Cr/GwFH0mlFIB6U/X+r3rkTziiaxesphoVgLF6bUCacGihDwXC+uA+hHtv8eOkzEwXAGrwGbm/CdbvczBQ7vzHoGw72S3rtncITplCt2dU9uySTFlzb57cDdHCyK0jIFHkEBib3grw/eCZQrkFByLSwHdUR9FKdinkSo+g+x0vcvRP4ITVhoS3E+easLVkw3B6FkBKLYM4HHsHiptKIRlYNCdb5mN2X/PnfhzXgFOisAfmYfQwP8CxZFTsjcfR8sQdt/KwmzRpeWlQPj0NACKORBpFPPG4+XFyP/pJKQB56N3bGzpk4wftsutcqNXqlEEUU4NCDDt0vXNqspS8MPwuyg3Pu7gOa8IlUFenkmaD2kQd4lyo5DxoxsyEyGQyDKG7nZcRhWzoNdlUyGWmycOLcuUxzH5vBfg4niQmYzrFCTHD7WsQ6ajn3gHuNTWC5GDj0LSVOEPsTgAb48N4HIIyTh4kcw6TkD5IDKhdPqnQK0/hLDfugZmPshg2XaG4WB7lOFGUBs2LlNp96APiSIAxx5PyCD9O7kcPKQVgY/OQbAD4PuLheEqb15EmFm4W1jRxzFQeZGuTcNYFjVayIJwFqt/xyhWVY8d7pRlHd8En/ggaIxBP26SpCto1iXtcpMOHk0d6OLfYlw4BrV+ZCaEihDNNYe/WGwqiu2uRyJNgXWh0TB7p5+RgtX+WyNxncF2BvjDXGirqvQqOrzWd/VLTAdoX8AbirTljvLIMgnsqFlCURafLyHhy/6Uwm+NKinVaMfalKttYnLTUjC49AAIXIN7icbFcE3Zub4iHvnus0d+mFICU2reRO4UNlTsSAg7z6JJcefAeP/bxZiiDRJyUOCtaZ5xXup0Qv/zqDy2y+yzNVIRe4j3B/NCNeWpbJrcp6spTgRL6MULSQhRlkuzGOUaNy/VjrHt2IyYd6zFGwJYEgoNsZ9qNBvjKF8XJ/ZgvS5yctvJPzRE8cqouIC/jyDK6px4vVGXmLDf10fHTgz0htNHzR5wtsh9HPMwpzpQnHyiQk9gf8ubuDnkLDIOTvJ++WCyzZvJoMzMNllsH1ZE/phSATJZrovGygDZgMBCmrej7AECOrbiUlIExodNpGlwN+GIv9pqs11xV1UbIO/YFY7w2f16WOm2T4hwdzkkv8plx8s8EM++pIWJ9ExnO5c0g5IiNJ0QuVwEsGF8V+MHx5orMfBg2cG8BIOMbq9nAZ40GooKlk7KlD+PdLce7JW8DBcdpsmK5Tx0wY/Xqds8jb09DpLPnVI9092I9GKeNsltXS5Dgjmcbe2XPgTR5uqXABj43WiN9Zx0LphyArokE0BZX+OSnOFiGY6tcdMHxjNV4UPX/98+Nsoucz8ZVAR6gzQ8Acsks2nnDrmmJ9hL9Gs/M5Tqp1WlubL4jRAlei6PcT8uWiiZhz+j/Aju6U5Fmdsn4Uw6sMR0TkjT8xd1SgjIJHPnnPyrG0HJA/rd/qZd1X8BmDOSr//l/L48LgJRJsmFh8Ue1t3PYZ/zf3oLanOawSItN6TeU2mRerGPBlALQKNfQAMWWA8jVMIvl6ebaBp3uSd3qQlc6hbKXGzEO4lqy1SGK+eOz5JG78+QGnDXsTaROQUfHHSaJBnIDGsgj2CPLyY6xyG98jUyfA3z0xlegobpLTkROvWmATUVEwOKPk5DJq8Adb8C3yJUHnWeSI2CUwyULwxYagA+bLsEwpwY9Q4/eI234jPGLdIGO0bXiHsBTR7eGQ+Bd4nw/HDrRmyQDkAXFDBjOKLdQ4emXqMEidBnlUJ/3gsNoF1mx+ouTQTjo0RsqmyIKHno4HZJ8PSg3KcS+s8fN2oGFAJyu+bdYTx5ur3JMyiyK5iaIYjZZvOElJe7FY8AVwR3LlwKAls+hW50marlw96AvK0N60FX2QiRz4eIAJhJoiCFAqxLXASJJ2d5QC4nHf1XkZ8gZ0FNr8xpwIMRx9HjMku2rR/Z6tRG8yockA9CeGpaPqd5kZKLcnyE/WlskTz5W4CK7oh86VaTGrfo1wlKuaEymtT/tBdsTsRTFVp0o+EhB7V/Bor7JCo3tjuR8ZGSRTsfv9pF0WLG4sptTTvvHAwmOm4HDe1/AdQXAp226MBw947uF7ARoe//8x8UyYaxXtkOTaCfknv/xH+ulD5xPSxbYfTLKeFxujkeeeCwPq1Bp8stXWrDHBKtHOnlgqz97sEC+/2yxTIcYy3RMED1ZEmZ+HPEdx4JJBqBOoJFYroTcvDxX/JDLGXnEGvDUTHkYy2M8BTKy0erw7nkqL8uUu3HIzbkq+8HTFK4uXZhlUct3Dx/tLVW37lqQpxoL00Suw8kMx5LuLsp7ZjID3Wn5ApEZdQYQrZVGkFNOOOV2dL93oT8ttJAHTRey3MS1ENo9Q4PkXMZGJJrUoBbMXIwh2UimQmRSXu7CRi3U9S1n85SP3nu3R2qgela8Ow0jGupBYjQATR91tvKSyCGBa+I00RFeORZMqUY0uR+1UqhrR8fyzQDk/TgmnhvS43cM71F0aG+GmrzaGSD2QH4oSm4Vt7hEE8CV1kK78KeHWqRJ40aUgyXMUcmK+iH3VDqBRr7NqPBM4ukYAGdADhhaDTFyZ/pyu2MZ8pDpHih4WKmSHMuU4qLoDSaSIuumEzMRmurQ9Ahm2pvmRI5lYZRtZNhkvkk6AN0SbryLVcyxvhnZdaNrTDRRgOHCYjc8OgWnUsVk0yHO+J1bXu3vzPyY7/mOT8ws7+mMvBp5Nt4k/qvohmjGpsd4ry4ut9QlHYBukeh3zGyyWhWF3NReboIIgkAkXXad4yDILoKWTbyca/g0sbZjcATjs85i0q7OdLV3DCnlXk4+hqBAyvxSc4inCRia0COLmj3KpUsDqhfgKtQELDdqa/vONIwshtihkjwGdI+Mi+lUyafWi3KKY5hsgzLALIAn3u6T9CgHexmrIR9/GrKSjwn1GMwWn8Qh2A/AzBvPTrPKFqMVJiuSGttMn+E0ooKwtOBRQwV2cVEbjpmNUHjjMoQxVQ+6TMqi3Tgk5yJsMBEyy1D0RnzGA9POpcftO7vl/W2mRjSNPD33RIE8ubZALWFGV2WzJU09sNFSAE1FkZcwGTlbFcC+4AwYuyyWB++HsgRcZJ512ajPSfkZFQBWYy/DHmgdt2Lt1lqwOpNswcsW+2QSziiLzHRkPmltfwtUuTZs6ZCDVRhvaVeFs0XAFbIwgbsFxirHQM6oXTS6rNwjUMPfh4rgvXL0jLEcxRVcYeB6a7Twql/k5MKBMuo/7oAK2hWouXMzOB2xquOg8u0iaB7zfA/b2M0GaPOBq0AnTuOoBuupAEBxDtbQuRJCTZ0J4x1ScxWr/YfxMy9U82Ke121ql/dw/EN7d0Bya73yQI1lgG0PiiczPRGfRvjCrKEREogVjANnGqfcir0Mv3q1SapwNoVhQJyhjMyQE8zFrOz5Z4ugvOrHPo7hB9Of7e6Wf/59k5ylhrXVYUF9475OiLaG1GGI1PpwAw45KBUaOPGge/OddvnDplZDJIZnHWZKaab8TWcRlBE86iBAcqwIp15Z3oewyIMF/+WVZtmPVZtMjAfoQykth0A+HtsgfwpLYdyGYAOgIwKmlftpyPE5WVJiHAijhSZKsBr0BcweZ2HpuQLShXgAqPPGc0Jexzkhb+1ol3ZluRZmeRG3de3XkZSUPKYUgGy1r2HRe+NHnfIVT0+nvp52LIlQZdSfG5Lst1tVV/gQ2P+4sTpZodrUYUJXbm46i7MxwojRLRPNOwDFwLqGQWz9tE5O7ARYoW+83SaHwPm4yvDl4V6pVXtBCBPT1UPF37+uTXqwAkPR0UTI5JjsmPLGEIkAslsDDeZWaLGoQCZZddcP2V0brL1StunmNKfiGJf7ata92y4noanih8hp7S150o4Z7Pp9XTIPG5LugkZ4ouNADjnqsKrUSvCFkqCqBJyfaWIe+Zxqp2s6qfHowmtBl7sZ3G/XaYolQrmECSseyVACdSluEayGuYk2FMIHR7uVAZ6bV0LvLgzAOEoAqwoVoNcDcNdSXYmOwWIE5U69rTh3Y9NBaK6wTfAPpU070yUYO3LDWBUG+804GmH7Se66G1KLF9yWmQcRErkNZZKxJjocf0bnJiwLNBD1ix8Xpyufw5btGOd+iPKh4LkUgnyaImlBI4I+h9wAmzg0yp6TGyPDLvT5yhmiDRO7k9icxFOZqE2UDzluql1KAKgLj7ImtceANaocujKolT8EQ5UrsNTFbvC9rR2y9SiAAD9UFTJXTuLL+iQsKT1yV55cgcr66593hFcHYoVWTYGlz2RpPUUA+WHYYl6JMR83U617t03ePwDugO/U5G7+Q7PkQ2li1lSvfA/a0UU3GcY1nfGw8XFSw1mrK3ejDTmMGfOw5MV9MbqsnHT0swKpKj6VamlEY10HlSkWKYZ+al9NgVWxVAdM6GrQZg+1EdrlZAzGUV16lSYhYgl5TgkArSlwcoFegJLdSjV2etHgeAf2+GoXr/oTx426+fYBIBxn0op8eISvCUa50gD3Kqj/t7YHwZ0JflQAkNOIBlFVDYPq6HI7ON4K1QvWveTYZYARaOH7e+oGAAB+tPMQgo9hP/+iRzbBpnM9RBw2hEFb587ZOAVgDHQMeXA31q8JwliOab0V1sUakLbTsI19qTUgJ2r7lFm6B270qz00DK97nVi0hv2GsXNlc0C+woZ/1s1ouJQC0K11d0IHbd0XnbIDNoq5BNSkNnNg9QpbK8dgNkxxjOnslUxFyVpwujoMyDU4WMlvf9YhPQQEuRkiZWXo7yYt864Eyq9PQXRBHcTWlwflCJQ72frfwlrrNoyrSKoO6aTLyM6QUoy7SJPAp6iC5oVVIzBJqjvml5vmPwRX//PmNmlRO+1CnmCgcyUO4fnRc0Vq2yO1WaiEy/3QsRzTStuHdB9s65JLe5FWJGbGeK/8+PkSdfr8iMFnLWpYyC/DjJob+8dgywNlgql2HISkFICUNdmRgFrEO54XUguVPsOhW87LkAdvzoX8Ls9hod1eCNUQmL7ypxbZgjGRoRkMCoiEwAw7BLGHCn8J33DWyRnjKtjd47LeX9a3ys7jXdLX04/tnmFv4sFuuCdgBvd67NTTMrYxWHOdB5uE0WSWHEKQI6ujtXSygMzV83Pk6UdxCA/yOXFC/MXOmTfTyglQoWVMxs33nEGPfNOVmU822hVTsNPwrnwsQXpkIrZGjMfmsFQ7DECSB0BrKxxAJZw/H5DP93RLM8ZCyiGTZdC+nQQOQu7R0DYgVWomC3MaeFGILolHBHDPqnZWmnxHUcRmWMk/iK5IsSnt0XklAodDIbxwPZqzx1zs/TACkHWaLhfpYgUvhuLEHGzJzMX4lemjAR8NSNO3cUcOPheyvUXHfXLwMtIZshuyfFGOPLomT62DO8PE8+zMTh1AvvOzLrkROwSnxLkjzhoPuXWYJm5mw+bNcxjb0jwK8+jcD2INm6z7XulNDgCdQOnDZOL9DzvklTda5DQVSOlQmXcsxsGEj+UrtfttsND0x/fbpAliiivYm/o+gEX2XwT52MwZKATcs5CsjtxFjRnVpIZ9Yqj7Mlit1Wtc92fRSH7zajPU07WWsj0YhwsfwYgPdeMojJ4ymUCN7ajEsPqePKTdI3WwNXOFjQxVTc7CjU3xOo6HreNne9MQ2XepT/77b5qUgsb3oQcZr2NdcXLUg6ECbfcYPRSF9ziouhiWKUbhkGqd1lZpTw4A3YByFofKHLoMYZgeywKAFWipt+IoLi5x8cyP3K1p0sTBGsZup+phsWl7JxREPLJ2Tb4sQLfnHIeYOANXhSYJTQDn+z0QlcD0B7pP7VjIyjkArL/rK7eN7j+DAXeEVYSQD0R4DoPyUzDzwVmt1Tkbnf5GhncZB8qcx9JWN+WeOi36qj0Oc7WCz+41RAjLaLsv9MqDMVcu7CH5xMWBA4d61STpHHsSSseHKadIKsl5A/uuyQGgNTm68pWCpBL9hyoO5caZVTWsJHBcQyF1f1g8AwpolSfALQt2d6qd+7Owez8bYzCrs22zBIiXLfBBZpguZ2m2jGM3tgQvFucxcPdhQD1cuTKtxIgxa9Ex6VCsaOPeKhrSwHM2Ov2eqys8IeqlD9pkkBOskMcQbHQkV3kNUcPFbJTxkezD+vQuTLZeg5ipshmNViecudVZj4/UVfsqEPSGV00FBCx5MDMRzkyosFBS23DiD1cp2HNWwYb0lS6yx5BHXBZAk2XNPflYI/Wh23OZHYZrEZ4B2F2wZuWHMOw8bJooh5nmY0vZzRcoW37Gy0R/w5EgIO8RVyiJpBStkvR7dm8taGiDAXOmznDJc5bEjIAoAUtuXkMxk0JvKI/Ia6JgHkH0iMW0DZOBxb+kAFAXvpEgaJGgG51e4ZWFE7Lk8BV0wxSPoGLONvTiT08zUZC6riGcnQUbJw/c4ZfHH8lX4KFypNNR4MqzcdswxmzE2PFQNWkZBZgGcckqWH5/Yk0BxmB+Ndi3p8tJLY5ntJSKoiyZO8OntGviCBHyojNmhtC5sTZW8+sI7xBNZEyxaaVDI3oK1t6XT86SzypRL7QxA5cKXT+3lHDma3UubMb6eST3HqWd8SyWh/7Dz8pk4ThI0xlnOF7Lg7qFmj5subyIGRhPu+SMjgB2A89MGCX6v/99uXznPsjFuCDP2qQDWO9Hd/z3Py2Re3HUKDWu9fzE8OD+S5CTTDh9SmVeP0Mehln7848XYHNSIdTYLdNzeNFRR1LmvpRQseqsIjN6+OCWLycNN9oMx0UUM624xzPH04k4zm7XPJAv//YnJXL7TGhmh2haVdcSoXe1fpPCAZ2JYPmPhRzpzttzhapYC0+47TEwQrH8pmF5614sp9Hqla47J00+80iG67BX41HYQ1FWPjs4U4S9H8xSb8FqwY1YR05ELkZrXM+uLpAmrKvSObnTBCh7PgiwUwRjAscAfbRJAvdw3Ia0cI+FsRQHMRPMXyzCGcbxOjMuM8QUKB3cdlOu6sDYVXKWzA1Gi69PbLmM5UtZ5q03+zAOx2mlEwzTHjetyB12VcZMzdXf6a44pRrRLCgKia2D+MikU6ZmyOSiCXedYaiixCWvMKcACL1gZZzcxAJwJJ0htW4bbezDLRsci8abLtJnmnqxFjyA2U04fXhPs76u6lzOREV5pkUD/gUw+w2LaMCxKT5JbH+NEQEbh5FOo0FxRSaLnZUb+qOkaaSvNfgYPskAZGaidwnMtLEFMjLpDMW8s1schTJQCSBAEokr0j+KMso+Cfplw1Mg1EUSKh5y/WiCbGfJMDwbyBBvQuHpx07D8sFJINpzmDCI05ELJNJ6jVAj+k0hAKOnh1yrCubFLkIMw5ascarqhhWCEh0DBdKpUHUaDSl89JRe7RcDDNRHPHKsB1rgGCaksZKZU+4zxvl26NqnY7hhX/d2j7cbAmOaJOEauOLUIMNGw7KiwcxYyqzuFI23we5uGThfKUO1VxTB9EmTJWNahbHFLlbAJH9LyRjQLY3cAvgWjAq9BnOzneg+2YKtjiYnVq3MlRdxXPyc2dASQXcaD3cawgx7ECsWvGoOQQjQMQpaAkiH6lM6RDSjIXMlR+TwgCbO/vN/aZAjsIvIFR46Mh0vZqH33ZorP/txiUyEGbnhVLKo0v8SNKu3YkUGSjnIkzHuvfdmv/w//8cYdQQu6RplZYBfRTbMz+CVK9L50kvSs2OnYqf+tY9K3t//vXj8MKY0im7UAMhdbJeg0nT4Mpa9CBYNQI0WACXwKfTksLLx2JqgLMB5IfbjECILN4guvfNyl1zccUnaa0KW6TmTVQ4R4NZXnCUTVoyTknnFCoSpLluOeXd91i0b3m+XbVAi7YZSazivjBxICe6C0SwseVH7m5vOY40NSa8SPceJOpSb6i2N/E274A3vjzYbqi7UOHLZ0yMDlZXSc6RSec5aVi1BdE0JUIgjkuG9jAoAO2Aj8CJmw9wCqGqDJQaZQj44E8R3QkXmHsijzuDIhVfWQ+sXKxnTK2iP2ZoBtn2zLoewitJd1y3Vuy7JF7/6Smov4IgE5YwK4lkf3iyoeM0sg6lmnLA5o9ACQPhRxJJf3J3I4/r32uVf34ftPnUgjyMOxHsS+ny/xRYEKmDMnpkFAGL8FcUZRUUa/FOJVj55SKGdsvktCinjNfrxoVbsf6m5LME+LMXBceLhibn1zwiait+UA5Ddw0Hsufjtqy2yHSsXFEgTfAthzephLNpzHyq7K2riVjZC8xizPM7OWJxOpwucy3x9UMw8+fYZOb7hjNRfbJLeADiEJZAXdtXGTx0jc9fMlDHXl1nAR6qgpIk5I7nKZyaBZ6IYsy0+OSIiopDQXvQI1Dxmlx3T4bOaG6hw9Kkzyau+j0nB9jEIzhfYvl06X3tdeo+fwjcOyO0yTluAFD+kHIBMfyUOqtmCrX+XARpurrgeypSPAHxPw7InZ8bUn6P2i9OpsQ1fqk9mZXZc6pDqT2vk2DunpfJYNfYbc0wJARf8qSpBwEy06LJZJVJx7xQpnklr9aPnzPGtI09oePNweHcxut9SbJ6nPh8ZTyzH7ZsL5mbLGXTD56FJ3t2tlS5A20be9hCdJBQgA4cPS/euz6W/Hpa7VIl9ywFIIJHxMbNjoFN3P/aE3AdbfuQUm97vkNdx6MyZJoATNUetXCoSsBLDjV4VJwwngjsGOlAR71fKvj8clta6DswCMwTzamzjVREgitAVYRQNFXb0fqLCAA1sHuw6/wynny/CCVGcfFDRdDgZ3hgcy/DdpwsghPfIVqiwfXQQHMuSx4Rzxu4224fJRq546rtQIxZVNHuBJ0x6JAGGaX8jIRkZJsSc1IcmgOg4DGQP4VQeGi76AqcenQodtzUVE4YHoKW8lKdmuqiEd13G0VybzsnJTWekobpZJl03XnIKsqRyPyYhbcYkhGXI+mEnrjEZmaIUvoloOIgLibpxeo4yeEldwQqs/MTrqJLGHWpzZmbjsEesq4fcSLHigbTZu+IG8V++LF0fbpW+M9Wa5NUB26SS0F1KAUhxBE84Zxfco5QfMeKAitLG/Z3YEhnau6FmxFADL8iU+6Cuzh1nagZs04YhV8OGIADwyFsn5NKZWgwj0Y1NLxJ/ea5cPgErpG0cTxlck+O/wnIo+4z3KxFMQiUyQs8EeyNUzI4eC6gNREwvm4FyQMsdsNTwPPaDJKKUqpNCKlz9sDpq3Bw+0gts+9TSmvVbzHuYj/WuWIFxOHqOs+cAwMtRvTNG5iKVDgOn1LkaiF1exuTjbewQawUYVXZYkJgdBnkuGwVbqLmJ+bDUfm++PPtkodpvwU0/uoUbxW4UA2V9veiC+3EOWz80Py98eUlObz0vna2Y3CAAlQDSIdEvGVck8x+aJTPuq4AYBgvuo+AG0cD2H+iVf3kZJ27yUEYlMjEj5liOm5BGIjg2oGyBAm6P1wTkn37dJJ/A/AeF/Ma6sxlf1DuUkScXSsGlJeiKKWaw0HUEwjKZ403yH1PCAanqfRRb+6iYufHjDqOLdVSIygoGadOwGfwebC98DGpUy2AYMQvjPzoNQPUQ+skp88mMOyrEs9Mj9Zcape4iRC8oP3a3hUU4SnVKkWTl45zg2SUy46HpUragFDbA7W0sVa2aqxRc6fn0MHQe1QZ5S+WhIg8c6ZH3sJ+XG+950I694mOlioJnY41blQl2ry2DAJurSR+AJteqaRObNmx4ylQ8TqVMjYtQeMQfXnjwHLEO7FYJ8USQgJ8kAdBegGpPCMxxvPxWK2ZuGLdEG4yhMG9f6pcfYk8DjYFT8Gzk2aRnbZ+54/wy74lZEujqk6YrLbDuFEBXnIb9FtlSsXwizgmci2N4/TgDJlP88JsGOaM1PMvF+ZxAWcX0yhQTFGqo4eQceF6/twuKqjBBAs2dm6Atww1OSryiqEZPFWlyFUnZssGy3GRYRvjhU4WQHAzKQdjHeXtvp9r8X15WFh8A2VL6+mQQtquDvRRdMeWoom5sR21oQJlB84daCXBmLajHlPwkCYAsQDO57A5onEeBDwvyhtN+zHzkYGY4Fpu0qY5lP4PNvUL6Wnvl0u4aaTzbokQv6HjEjyNRZ98xTWavmSETbhwvWVAgZeiI1mxGizukKUnrchpr7ik2y4SW6D/G2RyFMCnHE54euM8f1wagZmxI34zG/DasWB2v7MPJmKKGKbSNSAsLQSxDnqkOQMivuxgzTluWQw9BgC/w+efSve4dCWAMyE07DNF74JB0/ua3krP2Mclcvlz5ds9TiFCSLkkCIFPjSC5rRglZWTD8xmzanV7X5HptLMexH5fcLmyvlsNvHpdaCJ6pHVKQD322peNl/nfmyPgbxkkmjKXEpqUrB/HFjjJWcmzfrL0Uu9a5kHHuuUguE1r1sfqGmv7bezvUbjRaPFiCrQcME0szhoaUtn7SKe8ewiwfKl7j871y9AQOeoTs1OhZnLP92BkLotcI7NsvXR9skcB52LFWgmgk9+gFGQpskMy5c8IAtCY9VfdJBKBOogE0pVKvyiJU2ZH4MzGg2Ygm4bgGMKY6/pdTcmzjaamvbpH+QD+6Mq/MuXOGzH96toxdXC7evHjGP7ErxxFtQo/UGVyJM0oG+osl+88tsuMYrc9rwIdI8RG70nYc7pHB3zTDJF2h3I+zSLjPOJobhJCd1hbU7in2LNiK8Js/N+OkJBBTkgUoW9iHudFIGe+RJq6GDHV1gyVQrGNUTDCI7Q2dkAuGludiE0ne1xQA0LB0ykX2R9BN9FHzBWNu5utUdZ+ybaLHHSxDtXsuRn6aT7VI1Y5qOb7ptFSfuwyLo+wyqOKETeXzSmQ8ut1MHLZnOBZm9MqMEU3Cn4gtK/ejOh0NbK6GNkkL9gJT+eLTc6hUbk6yekTAdqxmfHlS5PbKHAAWUceYqOfD+NKKJTnqfOVzUMlqBgAPX+JeGDqcF1yeJXdjEkf1LDpnutRLy48nE5sh580T343LJbhnnwzUGqshmZPHie/WmyS9osLiO3m3qs5c6kbXXPJiAiVOJniMKI/hUgBDC6U5MZrVePXjdnXYCtNSDosEPrR+Tsiiudr9dXLotWPScrlNvDQ1mp6JQg5KNiYeXkw2MjCRMbvd0QEf02rFlE47u1JurH/miUKY0vBKG9WxqP1DzzppBsPBOcmww0LDRBzHOcCs6fFKYH3vO4XKCtYWdMVv7tGcFRo1mOGvhfjqb3Hk2diQNVi3dFnpeXyQNNx3j3iKsJl96JfSuXM3yg8nAqy6TfL/7S+gEzjN6t28j5VI01fUO9Sy67eUAJCzuzKYvOCfdjTy+FRPPuyOZCplAw77aAaCR2vRmkA0VzitQGauniYVUGtiQakuAxWWmZOpul6PyxpyNFqj8Z6csBTmR9j4fopNVhcgmlHKxhZkEIMFsEO4YnmOUqm3fIpIIlW1xkGB9a5VOQpks7EqwmVH4oGN987b/ZjExWfaWBFHd+QpKBDvkiWS+9xz4l10vdJ2yLrhBsmcPYd7ECLSoF4wkVcJQjfCSVbJN6NgITsxT5GCdX8I80SuQVxFq4QgZtHKuDnFB8oTKZM4wrFm8d8Zj+Hh6/1lXdHwkXMFI5R0lTgOTagJHi3v1hww+xgOmobe8ZHhqXbGYkjYIYFBrkINoVLgPCQCzQhrvVnvE6YfZ4AUAXD4pGNrDSoHBQD4pMfqg2NlhOH1IJI0wjV5LULSPSPxMhX6I5gJRKvjZE91DNaXw96TiCbEsmLPYi8zWw3Gm8hh4430kCIARkZkfdMfHJBLvZfkTFeljPGWyRz/TMlKi8L6rQGt9wOYwTUexDb/86gZFGDhNBjcu459s9XXNXJvrU7rfXzJY/3XwijmRcj7eNK5BmEWBO3X44gy7g1BIeDPDiJX6kHsLRk8g8ncGQC6B1x0DJaFr8fwpjjsPU5KYf9Xc2MO0q6GSpSwAwBa+wDkXrgaDrNX/Ose6JYPG7fLhrqtclvxcpnogwA5EQAOAnwdVTg841UoG+42+qJpt8K2x/MA4kw8U9sElRFHfURJelJfmzvnIqs2GnPhe6rjd+MYVp418unnXUKLYht2dKgdDUxgHiZ7L2JVpLysWI2nMcEd1sEulvT3fQJbiBvReXRJhneWZPtLMRSgzqRRYFdbbOjbBOszUJODUXXBfmP8i+ZSBkAmoi5QL29d2SinusClmCuWP24CQwE53lkpp7vr5Dr/DFjI1d1BtGTq9yBAv3X7RM6sF6neC4tHUH1n13vxMzVDlhkPY3q9DPfRM62pJe9qB5YTVOGRgUuLML/ZU0NNos/29EDZoBOmhLEzrqoPKx6wp9MOeZYqx6A0dKbJepjB46rP2kfyZBYmKMM6lF8w2ILxZJsEB/slbbABRQplDkXUBXrOzLhEACV/hA6iI2dXDnEiwLcpuEWqgjWyxnO3zPdgchPFpQSAQ8gkwbej+XP59cW35VhrTWT0zFhWtmSkYfUi8qv7m36IIDouipzD+bsnNgNkSH5hAVgF3jdBMWHwY0ytp2AaunCUAWjPQTRQuWfK/S05354vcYoR9o40wH6iQNBdArHLxEKvXKIxJs5I4M5DNrj3QA+svcYz9NANBUDBKhVTHQwG0CWfxd8k1R0Hg8aMxsgD/A+TGSoDXwpelm5w1vGeMVjYG5IjwRPySvBdOSH1Mk9mynwZZQD2DvXK27Xvyu+q18mx9lqMd1FYeqTMMiAXIwDx1z/UL72DveCCg5iMDDOdY7f71S/B7cABaYhv5iqY8iwFGN81DoZmX4UxDn7w9811lBSQA/KEgXbOVJGfuTDetBiq+dNgouN377RIDdaTadhmNUxqPPd0oeDTZx0AABorSURBVFpPHz7HRkOBRRzMntNx1g20zIdapbf7DckOdonX9xzwFg+QzZg6BGeYBDfLGamW78iD0iJt8q/Bt2SLnIWnbMCR6Y/uDJ4Z/fuIvnDsd7jjhHzVdAGyCHQZvhy5tXyurJmwXG4sxxgNKuGq+QEwRzpOK055pa9OsfGYEfY0i1z6ipqfxsSN5/KOvxn0cLaZxpxaf45J5Zr+yLbKvcDU8zsKvUIfZrnXT8yWm2DidxoMNxGcPJw7C6s/a5fnyZOP5mN7g98mc42VQY8Hxp8yZkIIPhM8gTJFrNr0X8E48xSKEA047FigBmDDr1xuoNoghwC/HXJMroDjVQYvyYdyDvWBegf4ogmgNamUdMEkDmUjAyQo0AU5ZfKDCY/JDH+FHGrHqkb/G3KyF8tJAOCWhmPSOYBz2pDYm4puEC8mEIUZ+eJPhzqVUzzDcV0OJPh+GCnPRkvlZKQHC+pczxq+rHSer+krNYmOHu+T37/eJh8d61Ld7iroEI6F7cTDONnpwy+7pAmc8fa5OfIPPyuVSRMzpAa2FmlN32lR1j2jMLjuvU28nlwZ7Po19tmcD3kzCpCiHkOTKP4ChRIdYIjjMjC2JAc0ucHw1ZIiABp7eHUBnOhrkffrt0tp20G53FsvJ/swcSDLIneGdsbulkp0v6/L1sZPpTgTp12W3yW3FK2UnHRHd+CfJHLdMwBdg9Gtd15Gd7wTo94WEGKB4U+NWeIvPAS6phxHJh0wIHm5AY0KmuNNeLEfqvfeUwGphNFz2tSmK8RKCq3tf7mvRw5D+ZenJdGK17AOjdrjKYTgeVK4uzU6D6P8YquxuVPn5KMSU48/gPd1AorWYRAnJ7FcigBIeCHiUNwDXe2yrgviEuYRY8GibHQZhROkD+y/qq8dIOyTT+tPyqeeU+BsuTLON0aWFSyOBGDuWJhzfxobbzGurD+EYy5/DwAeN8aDzCU5YVslJiR4V4yBrzc/Vt6v2W9sQ2EgQAVrF0/IpLPUZS32n2yFTe1NmAUfgJF16lNegQ4m15dpyo32Z5xqXsEhqLENVmHo3YnrRXS/ZASGG8RseDCwD0vt10EmWK5fx3VltUKNRvbKBdO/J0vukomCXTDmO5e7lAEwE7Nb5AR/mCywWWOSQe5UlJMvfzPxAbm1eIU0Bpohptks79UdMMaKTCBEA/0ApmvL4SQlA1yx/qDIod/hiu6D63usGK4Jg5tK5aeqa5d5z0IcswiAp3AsJUNdpjbpjuDjqlgWFRU4cWPZ0YUu6h7jwpNXAvLPLzfJJewVbsCE5dd/aZHXN6VJKSzxfw+TkrU4N9m+REd54hmc0fIGxpEXlOhlcBCNH/QJoIH+M5iM/Eaycr4nmVmrVTTx/cAChdrYTip0TGiaPIq57088T8p1nlnqbbSflAAwE5V+U+EyuTC2Rt5rOgJ1W4z3UJhTC8rl0TG3yhPj1sjS/OulZaBViWGoEfJe41F0rWjpqIHhBq7SUQ1ZIGZZPRgD0lEhrgiS/DxwyA6MCau/AFDRHQ0i3rLF4IQQ1XxDHDFHDnb/Kr/MvpCpdU7lEiYmFyByqYZI5h6M/yZgTNiPGfI8zDS5Q277MQhC8L0IGkKravzgcASCBoWReQ/GfVzxCPYfB+CaVSPXPoYGA5iCXBTvIMovAZcDXbKbPYvRBdeiAz4N/HGIgLNSZLLc5FmmBNGxyCUPgKH8knNlYSJxX+mdkp+RJ5Xd/0WO91wEINLlrpIl8sKkZ2W6b6qaYPjTc2U5utqGvkY52Vkt56AoaWvpOuWRZWn40+9Za2WzRSruAQf8EH+YKZ/ZhjizIRes+IYB0COzcULAiz8oUqIYXQQf7+jCUV0dMngyKHfflit3wZ42rbFybzUPnj51sU/OQc+QRaKZpg5rXLHmnjEds+cnVQMPBnfAH4+rZQ+FHkcFYujEHFIhqz2rYGw8Q04HXwYQ60MEsEYdR8+TPACGmpLBvyA0zSyWKb5JGMeBEymg8F2RTPJNCI/tuga75cvWr+TDhl0AX2j2pJuktRyGe8d+y+uHTHAcZGO54Hwo1B7MlHsxOYGc0d1p9Lp//Trf0j6itpGowXTiVB/OREmXyzjDePO2TvHj5M4nHi2Qvfs7ZOOH7VLJwxp1OUXLGmR8nowKycx+QE1CJNgNTnlaAr1fYiRj9CaJQhAbCqRUijHaG4tDFyClCDndi+mrfu+8Jg+AFsoDaFXnuitlZ/NuqesHsFgwEHCd7rogHzR8LP4M2DqGuKEh0CQbardgXRjdL8dvYRdHMWgvvKo//OjaCtPRNRJ+YbmJ9c3i7Wu6ZVbYrvhnyxYmJTtOdKs2Rk2Yzdj2uuUIGhvKU7IyZCkO76Ghd7UlwiXtFEKnZ8wDEKdj5APJX99WrA1jQqfU800MuwSN+UpVgcWH6xje8l3fJh2AjLgPKyEb6jbLS1gJqe6C8Jh1PQSzZdBeOdR5nnJ4hRnOgi/2chYM8KlSZoljczn+DddyVAZQAejL0dWiC+aIm/GwJKzO+Wz9dg3fE3hWp7KJ5TiNyC8uwJLYK01yBWfu6ZWmO2D1/ucvFssN2CPM0ziNwggRYjmoW9KAMXhBz6TI+XA16sOIL1RgYf/G21T9Jh2ABA7Xgs91Vcm5NgxolY08Jh85glnYSvxFuFBz9/rz5enyG2RpwfWSHUs7BmBWM8TxFVj3xSwrE4U4dimu6IY5piE3wMQGbDYiKgVQVRGRn66lN6ZA2EhVxVQvzjiGRQO0M66WMAvqHmXHEQftBS5bjAkBLOkXw/IWh8U2FzXPLCOuWNCRfRB5cHzBW5dw9ONkEFxyg6IXQyqnFRT0s1sYfks6AFWEaL5Fmfni8aGrzcQYzNmc6SmUT+UfP+nY67G2dIn8ZPL3ZFHBAgAQE4hojkArhKxq1hqRGY8iF2jN6fDfjQGwD3KnPCzNgR4sUwKojiy6FGi0aL7O92E5IBLB4psBTZfxsKV45x0oU5Qd36lOI5RIPnPcWACjlxHgi5URjAvT0gqg69ADRshDFv0m7qKUlRN8JI+dJjIJMr8TniY8ZUL+h/q3oNd6b01OShRS+zEV39t2QI60H1e6gNEi1wlhPqkVMw2zY3K/okyAiE63QH013kLQjDFj0wnI+RZgcwU4oKoNfOxHd96A8UzbObwDqyjCt5L5BmfUYb9RV3vGrYCLlg0WhVFuOqy+uocYGriEedo+dBqNaKx52OS1FFoxM9w9h966cbM6aZAvggekGpoxPIRwmWehLPDMxZ2DATgopwSAjIPdME5MM6JDGYQLxpoAFBaLRztO27n+OxxgVdeqBNsc9xmnmSv6pKY0bUJdAb7xO350FAldnd1gZGCzcs27SF/cRH+8o0Uudrcihx4Z7/PLTH+h+Milv3bHlBvdsJEUlClSmagjKFnf1AxkaXMcP7piGEeKCSSdAGZRiZtwo5RVcFWQwI+xscYReLjHMLAMjwb4QJs6buR8/EuSiw1Cw8Qc41f5cYmT4buxuvOHysPy6oXjko2B26MTZ8o/zLpBJmJnX4RjYUUjZvFsVLihCErveuLmxp0swVxujdCkcDWOTIOywERd4iESjIHdxinYgN4BzV4a1KF4gFlmOXP9ctkSH46bwumYLgYpE4xKeWd8GpAjCc8w5FhdnTgWAXZU/Nhonh2ylu4GxuHiOtoOUVPNGdmIv9rmy6rFnS8ohaQg1DsgPpaFdrHoEVzanQiekfeDsPUMVdBxkMTd57lDpnqgYKBKV/uKdiUdKoyY9OiTYd3eWanEAvhwYa109H1KAdgPmRVBt2Vbl/wzLDmdbrHqm4my9PTk6nwpwPolDRTx4BZVAUb56DTGdaUJi0FMB42ddmYQbTMwfICg+SnibgDryooGZtEtLS3S3t4OPbsyNBpuIufeWydrGj6hB1tr5f869jmE4pDVZXBilCPlWTnQJTVpsdqHY3vUOO4C2DqCHaqbezf4sfx7eQPo7ZdpHpijk6n4N0kBaHgQeiD1C0gr/nVCGM2U5HvyMW2AVQeoU3VAWYFDBb4rxsRC92QsMCtIrfH0gWITQndjoxO5cZGnQHgesNUPwztdcgDoUn5UnLxUM6CsIbz7MUzrNkLWp9TIkV3mGO4itHo3bm1XZiy+80SBYTvZi88RFW34N34jIyNoOjqwd6K1BbRw1oUlPIFTUFCAiXGeApKVkvWe4err66WrC0CB4zUA+WQjlF+HIPcoKSmBHT4kzuZCGbG9Mx6YygGE60T3q8DHq79I/s30hfLY+FlS5I0xy3fQI2c5CY63O/iVfCRfQNwxKEex9grTWMrneQCTgKIbrsKVJ/zUBRvkL8GN8hnUSQmwh4K3yt2eW+VNqNJvk/3YSpQt9wZXyjNpj0gegGl1bnFcCFbLH4PrQe2sCvu43CP3Y4kOfZsNwFY6vE8OAB31QAWVCziy/iMA702cmXEC52IYMgN4xJrw1MIMJcu62NYvZxoCsh7S/DxYEKX60JxZWcogd3SmYI+M4CNYWlqaYTGqSYHGCkCfj917tupKnZnXz+xa+dfW1qY4nw7Pdx0dNIRugFgD0N4Vu3dKnQMBOdzWKAebuDaKNOeXyhNjJsv3p1wny4vH6TYYSoI9Tzpd1mu1XJZdclA2BrlqQXjT6cZISAxPwwhj/LZJu3wMoH0UPK5elEFHcDE0WLbLV7I5CCkDYJMHEc1aud8aLOp9A/jf+1DI+krqoCBRIhOCBwHcHFmC2XAZnqO5xKc70ShZ3vNY+PWbOuSXOGLqRIOxxqhWK3Agy9wyWH1fUyjffahAphWjS0K5VQGIr8FS/hvr2qSuPtRNx1GeBF83BNvkXM3NzbBEYKz7akCxgng/nKMf0iKn02H11S2sBqjxzV71jK0LeolH2hvl/z2xW16qOqa8/XDibPmHOStkLPQdG/u6cR5Kr/RAI5zwdTq3d5xuGFIF+td/zpCJPRv7NQxaHEu2sEsGL9X0GV9k6uxxkAaHB63YG9IN3rwMa8I/kYdAq13+KfgXORY8ZQ/geEoOBwwTZXKx0QXd73lwwON16BYwnhpb4JWbcaB0MTjfhPEZshp7GCjN5zENm3eiewYXPIdjGs5dCBimyML0Im8IDAKAYCF34littbUVnI/gsxfXcNjTtAhi0mGXa3UaaLHAqKJkYwlF3YOu9pPGall/6YxsulIJ9TAoRGRmyaz8IpkO0cumK2flQlebFGRmyy2lE2UxBOpeigIszg5pkrbny+J1xLcmRSPxe6VKcoLvoUvG6pVy8XHVHoBvd3A/tmFul5MYPz6E0egiyP++CB6RHVDvegHQZPqdedIJTzIATbZlDsNwOiQsRt0D9aEKHBDNWbAGBpeOCLrTrf3gDOkyYSz2NcCErdMRAByj8U873nN8Rs5H7hVGgPYQx5UgJtckjbq6Otv4UYOTZEif4GQXnAH7KRqYKs5QRlnIrf19kPc1yR8rj8prVRCU92OMxvUyuCs9HbKt/qL80+n9crC5TibnQncEk5t5+RhbWgFIZFiKgGO72mCdXMBmnyZwmat15GqtAEolANeMaY1RbkE5izjOQphsyAQpP82R8Zhdc0IRy5Fzvh/cKS/JbpDqlQYPbIIHz0sjOGAX4qrE2JDDh7GeMujKOMfQyRoDxkohSvNCY7+sw1iQFqGoBQMGqRy3Hp6C9agJMNN2P05/vP/ePGVZykmOQCFIOCvVju86ISohEAkI/hE0Vqffm4CxfoX+B8QsBB7Hfpr7aTo6DOMhhyTYST8fVlkJQsWUwuDDhAPf9rbUysvnD8ub5Hy9nahEIgl/oPHu5XOyt7kW4MPkAapiFyHLZDfch244FwJpGhlSLnQhoCnWrQlewWRhk7wGfnIUEHRz2GYUHujH4jYMixhlW/Bz7NvdqMZrJj0tjEYCPHmYYd+JTeV3qUmE6Sfyjl0wu1uq5BO8X2BvXJ+sx2gVacW733u2KLHWc57HIC4aE0EgyRwwgr56QaOK6oSf8Gc7UMbBsn0edN0oF3SeTs5K5x/BxkmGFWS85wSBkwxyqV4Y3SZg6LToJBdHEpBzaUCFk4AbApBdL6/W79Z7+ieXJEg5oeFsWrkQUHjPW8oOz6K7fb0Gy4DoYg1huM5nUCqbroDrKJ/4Bg6DFZvjbU2yB+9vwKSkDKIZRTJElxu+zwerZAuO1nwV89KTQQAXFWx38Iy127XQPy6DwIQuWlenw9FcxiFsHH9fMDZTWyd1Go3QsN0mP5al8l3PIzEtGmh6vBpimlDCwQUPgucZLg2csBfw7ERjMuWeoY/qMioAVCpTmOGaJcxMM8FG5htwetK7tHkCMQ3PCKGxHS+OH6CojGDQINRXppz3/EYAFhUVKQ6mJyEEH7kUxS8UnxCEVlAxLIFK0Fppkq6bY1ha47fSoL9B0OEqRy/BD07GLtgwd2at1BBF+FXLhMw2uR1myR/VVYH7ZUg5ZIOlWTg+i+/hCBJ2uxuDW+RX8gGASM7nQhNluFZmy/c9D0PiloeK7oDAJDfMDRUxlx9IO4202GiysH3gfHfIs6BX4Zk8LJhJmoD3g08K9hsb5NhImFbSy5NfYLP6g547ldIq/TvdqACQpyDdviQXx7BiN76lHFncfL50BSZrj/fIB9iMnQHdviceyVerIzTAOJzTnI/gYwWSQ3H1ggAk8PS9lQ7DkKNx8mIdV1r9WO+zsrIUyEnLKtDuAIh2NVySfeh6OwC+r1owgKe8z+pCdQGk4y3+eFE/OJIWG7RmYQxY4IU2T8ixSzsHzkfw/RGCkvOQ10VyPu07KKchD9yMMRgFx0sgAFnjuUcJgLUPt6vBJa1lC/V5cL5fyC3yuGe1LPTMQwpVQt2C297lQtRym2eZZAYzpAsaNfuxKX0vbMJUeIrkOblNHkZ65nhmRKVnt0hoI528hxkwV/vi94vUmWfWE33Y4Nlj7t3fLbX/Y0D2nO+Rtz9qk8kTMtUeVx/GhtGc5hbsPjk+5AlJ7CJLS0txHBbOBibHwp8VMJoWQccw/CMYYzmGJ93i4mIFaCs9cryP66vklXOHpS2A/SxcXgMndHVQQCiGLRylpggPEyCO+c6UefLUpDmKA+oxIAF4OnhO/gyJ3BGM/0KIdSGJsvFkY+KAjeryJXgQxoEwU0dhMlcghncaYJxw+ORncqP8nec52HfBxi644bpyTZ8AvAtxLpUFUoPGEMTYcq+nAbPhxfI8dsXRXkwseglYBtJRJnqFPWcssY2BDWOKYJyOgLxQhSOsqO0LNF7Grn9ahXfTJXWG5TO7UIKI3InLZuSA0cZ8OrwOoycwfK8BzXt+1473/EaOSpBbHa16tQOEbVxm6wMA2aL453QY8z0+aSaUEGYbjBDf/ViWmw/hNDVj0i1hGHOPpw9dMBV3dXfmJAiD6J5i+XfymBSCc1H9jXZ1pmEnGrvihBzGkP8RwubHPPfJFM/EhBUKOP4rRKy12Iy0LvgRGs5+RB9AI/BLuacUWoImd3dLVyQi3HyN4J1Zhx5YeB+AYLodu7cMA+NWcmQaJ88EpB7rxMW5XrkRBng4BrQeY2oFhzUs7zkGJPjIoTjm43Ms/9bwVn9W0Gk/BFxOTo6i7wQf/fhhKmRp0RhpnDwbQAyE4jXBq3ox4DEDXPTJyXPl0fEzwx0b+A5Ag9UfC/iMeNn5odGiYsmZFmIVwY9KrITw5AoG88ZsMygVUPl82HOvjPOUw8gQ5WyGRsxwYhMjDv4aDQVnS8kqz43Yvzt7WJGLGda8Y1rJLRvBh3fIEawjYwKG5yGPc8JkhrHepQaAyBvPMFMLfZDtHsVS3H/9fZNkg8tZqkdNMnhQNQ1ddUFx4eZ5Pvnp88WycgV2m2LLYdiZaA6/4g27LQJk7NixivORS1lBZfNseaAf/jE8Z6/a8Z0GIrtajv3IVTnJIbCdrhhjt7XganeUT8awXtNhxYbuecEj35DTZVnlfU5ioWdWJngtBBZ+uUGmygsh8cUnwT2YjuyRzTACRPrQ0ZFs7O1wk61FIe36mqVMpVFyspE43VUzq1yjNvJur+dYdFMCQGq13H+PXzrRnb61rV1aYOG+qZOJ045VAocN5SsqfHLj0hwpzIdQdk6WLF+K8Rb2NFgdM0dg6PGaAg8AUghgkPORA7oBxErDek+gcqxIkFG0oyciGoB8788FVy0xuCqB6OYy0e2Ny8pVy2tu3813Bpcwn6PfEQi0qfciRlEU3q70LEV3lgceCHMbUo7V2qmAXxAThTmY7+ZEJxTji7mkx87S0CmM4T2uTxy7kpZ2xjJeqCHqly7XlADQC0OKt+CYAp6Ny0P29p0wtDas8TNp5di/8OjqPHlqbYHyyyMJfCG9QDImMCTlCAyCgEDTjl0iRSzkTm7do/bndqV/hiMQKYDmH+PQjgAk+AjSmMDW6dMBo15N2lG9hD4QgDM802SiZ7zqEqlNQi4z3TMFe2/Hobu8SfFXApJWCRJ1pD8WUsMKjCErMYGZh6eRAtkaN2nMBa1TWAkpRdrG4pdx6S7a6td6nzKVfEbCUx5puakBhnSszuA02D8EjaSKiiyZin2ssc7RZTfZC6sJWs6nJwacnWoNFSv9eO/JUbnKYeWspE0AejOhn4gzM6zAjJduVH9sdZwGq045qi/bh+Eq0OY5jgcsaGJ57CJmzxfUqkg5xpjXgZtyInE1rhlj1OPB02osSM3oWTJdNZrhxqQpAyA5GB0VE/S98cb+q88Jsb6lfwtDUp8oOHaCwflspRHvvR7zufmPRd8Jo+Ge3eh/Xe/YXXKZj+M1cleCRI/lRpomNhRrt0ua5IDDuZQBkBG7AWm4BCXzu+aUV0MzGTSuJn6GTTYXvNr0JDP88BC9iticXOwqSNmCxuJa2mOygKO5IOm5xhvi9DreVFzJnQjCb6NLKQf8NhZYInnSgOWV40rt+KyBrd+F8eWcrzj79nAA+02c3uyBIp5AhdsWnWmI8Je8F/8/FyweGp2Cs5UAAAAASUVORK5CYII=;rotation=-90;imageBorder=default;" vertex="1" parent="1">
          <mxGeometry x="376.72" y="202.38" width="96.02" height="90.62" as="geometry" />
        </mxCell>
        <mxCell id="J574YpdcSMkNGBud1Ear-41" value="&lt;font style=&quot;font-size: 19px;&quot;&gt;unlabeled data&lt;/font&gt;" style="text;html=1;align=center;verticalAlign=middle;resizable=0;points=[];autosize=1;strokeColor=none;fillColor=none;" vertex="1" parent="1">
          <mxGeometry x="356.03999999999996" y="155" width="150" height="40" as="geometry" />
        </mxCell>
        <mxCell id="J574YpdcSMkNGBud1Ear-42" style="edgeStyle=orthogonalEdgeStyle;rounded=0;orthogonalLoop=1;jettySize=auto;html=1;entryX=0;entryY=0.316;entryDx=0;entryDy=0;entryPerimeter=0;strokeWidth=3;strokeColor=#FFD966;" edge="1" parent="1" source="J574YpdcSMkNGBud1Ear-40" target="J574YpdcSMkNGBud1Ear-17">
          <mxGeometry relative="1" as="geometry">
            <Array as="points">
              <mxPoint x="550" y="248" />
              <mxPoint x="550" y="428" />
            </Array>
          </mxGeometry>
        </mxCell>
        <mxCell id="J574YpdcSMkNGBud1Ear-43" style="edgeStyle=orthogonalEdgeStyle;rounded=0;orthogonalLoop=1;jettySize=auto;html=1;exitX=1;exitY=0.25;exitDx=0;exitDy=0;entryX=0.033;entryY=0.711;entryDx=0;entryDy=0;entryPerimeter=0;strokeColor=#009900;strokeWidth=3;" edge="1" parent="1" source="J574YpdcSMkNGBud1Ear-14" target="J574YpdcSMkNGBud1Ear-38">
          <mxGeometry relative="1" as="geometry">
            <Array as="points">
              <mxPoint x="510" y="488" />
              <mxPoint x="510" y="285" />
            </Array>
          </mxGeometry>
        </mxCell>
        <mxCell id="J574YpdcSMkNGBud1Ear-44" style="edgeStyle=orthogonalEdgeStyle;rounded=0;orthogonalLoop=1;jettySize=auto;html=1;exitX=1;exitY=0.25;exitDx=0;exitDy=0;entryX=-0.1;entryY=0.594;entryDx=0;entryDy=0;entryPerimeter=0;strokeWidth=3;strokeColor=#009900;" edge="1" parent="1" source="J574YpdcSMkNGBud1Ear-23" target="J574YpdcSMkNGBud1Ear-38">
          <mxGeometry relative="1" as="geometry">
            <Array as="points">
              <mxPoint x="490" y="337" />
              <mxPoint x="490" y="262" />
            </Array>
          </mxGeometry>
        </mxCell>
        <mxCell id="J574YpdcSMkNGBud1Ear-47" style="edgeStyle=orthogonalEdgeStyle;rounded=0;orthogonalLoop=1;jettySize=auto;html=1;strokeWidth=3;strokeColor=#009900;" edge="1" parent="1">
          <mxGeometry relative="1" as="geometry">
            <mxPoint x="724" y="239" as="targetPoint" />
            <mxPoint x="662" y="239" as="sourcePoint" />
          </mxGeometry>
        </mxCell>
        <mxCell id="J574YpdcSMkNGBud1Ear-48" value="&lt;span style=&quot;caret-color: rgb(255, 0, 0); font-size: 22px;&quot;&gt;&lt;font color=&quot;#009900&quot;&gt;increase margin &lt;br&gt;of&amp;nbsp;real data&lt;/font&gt;&lt;/span&gt;" style="text;html=1;align=center;verticalAlign=middle;resizable=0;points=[];autosize=1;strokeColor=none;fillColor=none;" vertex="1" parent="1">
          <mxGeometry x="705" y="173" width="180" height="70" as="geometry" />
        </mxCell>
        <mxCell id="J574YpdcSMkNGBud1Ear-49" value="&lt;span style=&quot;caret-color: rgb(255, 0, 0); font-size: 22px;&quot;&gt;&lt;font color=&quot;#009900&quot;&gt;reduce margin &lt;br&gt;of&amp;nbsp;fake data&lt;/font&gt;&lt;/span&gt;" style="text;html=1;align=center;verticalAlign=middle;resizable=0;points=[];autosize=1;strokeColor=none;fillColor=none;" vertex="1" parent="1">
          <mxGeometry x="709.5" y="235" width="160" height="70" as="geometry" />
        </mxCell>
      </root>
    </mxGraphModel>
  </diagram>
</mxfile>
